<?xml version="1.0" encoding="UTF-8"?><svg id="Calque_2" xmlns="http://www.w3.org/2000/svg" viewBox="0 0 45.27 47.21"><g id="Calque_1-2"><g id="Buttons"><g id="Arrow_Right"><circle cx="22.64" cy="24.57" r="22.64" fill="#d2b2b2"/><circle cx="22.64" cy="22.64" r="22.64" fill="#f1d3de"/><path d="m18.3,10.79c.77,0,1.5.3,2.05.85l11.03,11.03-11.03,11.03c-.51.51-1.25.79-2.05.79s-1.54-.29-2.05-.8c-.55-.55-.85-1.27-.85-2.04s.3-1.5.85-2.05l5.17-5.17,1.77-1.77-1.77-1.77-5.17-5.18c-.55-.54-.85-1.27-.85-2.04s.3-1.5.85-2.05c.55-.55,1.27-.85,2.04-.85m0-2.5c-1.44,0-2.79.56-3.81,1.58-1.02,1.02-1.58,2.37-1.58,3.81s.56,2.79,1.58,3.81l5.17,5.17-5.17,5.17c-1.02,1.02-1.58,2.37-1.58,3.81s.56,2.79,1.58,3.81c1.02,1.02,2.42,1.53,3.81,1.53s2.79-.51,3.81-1.53l12.8-12.8-12.8-12.8c-1.02-1.02-2.37-1.58-3.81-1.58h0Z" fill="#fff"/></g></g></g></svg>