<?xml version="1.0" encoding="UTF-8"?><svg id="Calque_2" xmlns="http://www.w3.org/2000/svg" viewBox="0 0 45.27 47.21"><g id="Calque_1-2"><g id="Buttons"><g id="Close"><circle cx="22.64" cy="24.57" r="22.64" fill="#d2b2b2"/><circle cx="22.64" cy="22.64" r="22.64" fill="#f1d3de"/><path d="m13.04,32.23c.29.29.57.43,1,.43s.72-.14,1-.43l7.59-7.59,7.59,7.59c.29.29.72.43,1,.43s.72-.14,1-.43c.57-.57.57-1.43,0-2l-7.59-7.59,7.59-7.59c.57-.57.57-1.43,0-2s-1.43-.57-2,0l-7.59,7.59-7.59-7.59c-.57-.57-1.43-.57-2,0s-.57,1.43,0,2l7.59,7.59-7.59,7.59c-.57.57-.57,1.43,0,2Z" fill="#fff"/></g></g></g></svg>