<?xml version="1.0" encoding="UTF-8"?><svg id="Calque_2" xmlns="http://www.w3.org/2000/svg" viewBox="0 0 141.13 33.31"><g id="Calque_1-2"><g id="Friends"><g id="text"><g><path d="m64.31,17.23c.39-.49.59-1.09.59-1.79,0-1.28-.33-1.92-.99-1.92-.75,0-1.12.78-1.12,2.34v2.11c.62,0,1.12-.25,1.52-.74Z" fill="#f1d3de"/><path d="m108.49,13.7c-.22-.12-.42-.18-.59-.18-.72,0-1.09,1.66-1.09,4.99,0,1.77.1,3.02.3,3.76.2.74.52,1.1.94,1.1.34,0,.6-.21.77-.64v-8.54c0-.21-.11-.38-.34-.5Z" fill="#f1d3de"/><path d="m139.66,19.45c-.21-.28-.44-.55-.67-.79.27-.4.49-.79.65-1.08.84-1.52,1.24-2.9,1.24-4.23,0-.85-.32-2.45-2.44-3.54-.53-.28-1.18-.53-1.96-.73-.73-.19-1.63-.34-2.78-.45-1.09-.11-2.38-.16-3.97-.16-1.74,0-3.36.22-4.8.67-1.54.47-2.7,1.03-3.54,1.7-.42.33-.79.71-1.12,1.12v-5.27c0-.78-.25-1.55-.72-2.24l-.02-.03-.02-.03c-1.45-1.98-4.15-1.98-5.04-1.98-1.72,0-3.35.29-4.86.85-2.39.9-3.61,2.24-3.61,4v1.38c-.55-.08-1.13-.11-1.74-.11-2.82,0-5.16,1.21-6.77,3.51-.18.25-.35.52-.5.8-.15-.35-.3-.69-.48-.99-.89-1.51-2.79-3.32-6.78-3.32-1.03,0-2,.14-2.88.41-.65.21-1.25.48-1.8.79-.75-.53-1.83-.92-3.38-.92-1.69,0-3.32.28-4.85.84-.62.22-2.09.76-2.97,1.91-1.53-1.69-4.22-3.04-8.92-3.04-1.9,0-3.59.18-5.04.53-1.6.39-3.08,1.08-4.38,2.04-.66.48-1.24,1.05-1.74,1.69-.1-.48-.28-1.04-.69-1.58.83-1.2.94-2.49.94-3.12,0-2.15-.96-3.83-2.71-4.74-1.22-.63-2.72-.94-4.6-.94-6.73,0-7.25,4.35-7.25,5.68,0,.23.02.56.08.94-.81-.33-1.78-.51-2.95-.51-1.57,0-3.13.38-4.64,1.14-.08.04-.16.08-.24.12-.76-.56-1.89-.98-3.55-.98-1.75,0-3.39.3-4.9.9-.24.09-.57.23-.94.41.15-.88.24-1.85.24-2.96,0-4.75-6.59-4.75-8.75-4.75-1.94,0-3.72.33-5.29.98-1.15.47-2.16,1.12-3,1.93-.89.86-1.6,1.98-2.17,3.45-.28.72-.49,1.49-.62,2.32-.74.36-1.55,1.06-2.09,2.42-.4,1-.6,2.07-.6,3.19,0,3.64,1.19,5.06,2.5,5.52v7.18c0,1.63.93,3.57,5.36,3.57,1.81,0,3.37-.08,4.65-.23,1.05-.12,4.23-.5,4.23-3.34v-6.99h.98c.43,0,1.21-.1,1.98-.62v7.62c0,1.51,1,2.8,2.56,3.27.51.15,1.26.3,3.33.3,1.39,0,2.76-.08,4.06-.23,1.17-.13,4.29-.49,4.29-3.34v-7.61c.25.05.55.13.89.22,1.76.5,2.3.59,2.78.59.52,0,1.25-.11,1.98-.58v7.38c0,1.52.97,2.78,2.52,3.26.5.16,1.25.3,3.33.3,1.39,0,2.76-.08,4.09-.23,1.18-.13,4.33-.49,4.33-3.34v-.2c.1.12.19.23.3.35.72.79,1.56,1.47,2.51,2.01.93.53,2.06.95,3.44,1.27,1.32.31,2.86.46,4.73.46s3.77-.24,5.69-.72c1.42-.35,2.41-.87,3.11-1.44.44.71,1.15,1.27,2.06,1.54.51.15,1.26.3,3.33.3,1.39,0,2.76-.08,4.06-.23.52-.06,1.43-.16,2.28-.51.28.18.6.33.95.44.5.16,1.26.3,3.33.3,1.39,0,2.76-.08,4.08-.23,1.01-.12,3.46-.4,4.13-2.29.31.37.65.71,1.02.99.68.53,1.52.97,2.49,1.3.97.33,2.02.5,3.12.5,1.54,0,2.86-.29,3.95-.86.39.2.77.31,1.08.38.46.11,1.12.19,2.76.19,1.2,0,2.46-.08,3.75-.23.72-.08,2.43-.29,3.45-1.31.31.2.66.39,1.05.56,2.05.85,4.94,1.26,8.89,1.26,10.2,0,11.73-5.68,11.73-9.07,0-1.85-.5-3.45-1.47-4.75ZM13.94,13.55h4.26c.58,0,.86.94.86,2.82,0,.83-.12,1.58-.37,2.26-.25.67-.57,1.01-.98,1.01h-3.78v9.79c0,.23-.59.42-1.76.56s-2.61.21-4.32.21-2.56-.26-2.56-.77v-9.79h-1.63c-.58,0-.86-.97-.86-2.91,0-.77.13-1.49.4-2.16.27-.67.61-1.01,1.04-1.01h1.06c0-1.43.21-2.68.62-3.74s.92-1.88,1.5-2.45c.59-.57,1.3-1.02,2.13-1.36,1.24-.51,2.65-.77,4.22-.77,3.97,0,5.95.65,5.95,1.95,0,1.41-.14,2.56-.42,3.46-.28.9-.65,1.34-1.12,1.34-.19,0-.55-.07-1.07-.21-.52-.14-1.02-.21-1.49-.21-1.24,0-1.86.43-1.86,1.28,0,.21.05.45.16.7Zm25.58,1.89c-.09.88-.29,1.82-.62,2.85-.33,1.02-.76,1.54-1.3,1.54-.21,0-.89-.16-2.02-.48-1.13-.32-2.06-.48-2.8-.48s-1.2.11-1.38.32c-.18.21-.27.51-.27.9v9.34c0,.23-.6.42-1.81.56-1.21.14-2.45.21-3.74.21s-2.13-.06-2.51-.18c-.38-.12-.58-.31-.58-.59v-15.78c0-.41.59-.84,1.78-1.31,1.18-.47,2.47-.7,3.87-.7s2.18.38,2.35,1.15l.32,1.47h.22c.3-.81,1.01-1.5,2.14-2.06,1.13-.57,2.26-.85,3.39-.85s1.92.18,2.38.54c.46.36.69.83.69,1.39,0,.09,0,.19,0,.28-.04.21-.07.43-.07.66v.59c-.02.2-.03.41-.06.63Zm11.53,13.98c0,.23-.61.42-1.84.56-1.23.14-2.49.21-3.78.21s-2.12-.06-2.5-.18c-.37-.12-.56-.31-.56-.59v-14.51c.02-.3.04-.58.05-.84.12-.41.69-.83,1.76-1.23,1.21-.46,2.52-.69,3.95-.69,1.94,0,2.91.5,2.91,1.5v15.78Zm-4.32-18.43c-2.99,0-4.48-.96-4.48-2.88s1.48-2.88,4.45-2.88c1.41,0,2.51.21,3.31.62.8.42,1.2,1.17,1.2,2.26,0,1.92-1.49,2.88-4.48,2.88Zm18.12,14.05c.77,0,1.77-.26,3.01-.78,1.24-.52,1.89-.78,1.95-.78.4,0,.94.61,1.6,1.82.66,1.22.99,2.11.99,2.69,0,.83-.85,1.46-2.56,1.89-1.71.43-3.38.64-5.01.64s-3-.13-4.1-.38c-1.1-.26-2-.58-2.69-.98-.69-.39-1.3-.88-1.82-1.46-.52-.58-.91-1.12-1.17-1.65s-.46-1.1-.61-1.74c-.21-.94-.32-1.91-.32-2.91,0-3.88,1.01-6.56,3.04-8.03,1-.75,2.12-1.27,3.36-1.57,1.24-.3,2.7-.45,4.38-.45,5.4,0,8.1,1.88,8.1,5.63,0,3.99-3.03,5.98-9.09,5.98h-1.06c0,1.39.66,2.08,1.98,2.08Zm30.38,4.38c0,.23-.61.42-1.82.56s-2.47.21-3.76.21-2.12-.06-2.5-.18c-.37-.12-.56-.31-.56-.59v-10.18c0-.96-.04-1.59-.11-1.89-.08-.3-.14-.57-.21-.8-.15-.41-.42-.61-.8-.61-.6,0-.9.29-.9.86v12.61c0,.23-.6.42-1.81.56-1.21.14-2.45.21-3.74.21s-2.13-.06-2.51-.18c-.38-.12-.58-.31-.58-.59v-15.78c0-.45.61-.9,1.84-1.34,1.23-.45,2.52-.67,3.89-.67s2.13.39,2.3,1.18l.29,1.41h.22c.62-1.24,1.69-2.1,3.2-2.59.62-.19,1.3-.29,2.05-.29,2.15,0,3.61.65,4.37,1.94.76,1.29,1.14,3.39,1.14,6.29v9.86Zm22.25,0c0,.23-.59.42-1.78.56-1.18.14-2.33.21-3.42.21s-1.8-.04-2.11-.11c-.31-.07-.5-.15-.58-.24-.08-.08-.12-.22-.14-.42l-.26-1.82h-.26c-.19.75-.58,1.38-1.15,1.89-.73.66-1.82.99-3.3.99-.79,0-1.53-.12-2.21-.35-.68-.23-1.24-.52-1.68-.86-.44-.34-.82-.8-1.14-1.38s-.57-1.12-.74-1.65c-.17-.52-.3-1.17-.38-1.94-.13-1.13-.19-2.42-.19-3.87,0-2.96.54-5.22,1.63-6.77,1.09-1.55,2.58-2.32,4.48-2.32s3.35.46,4.22,1.38c.19.21.34.47.45.77h.26l-.38-2.21v-4c0-.47.6-.93,1.79-1.38,1.19-.45,2.49-.67,3.87-.67s2.38.28,2.78.83c.15.21.22.43.22.64v22.72Zm11.94,1.06c-3.54,0-6.13-.34-7.78-1.02-.83-.36-1.25-.71-1.25-1.06,0-.87.26-1.9.77-3.07.51-1.17.96-1.76,1.34-1.76.21,0,.93.24,2.16.7,1.23.47,2.26.7,3.1.7s1.4-.05,1.66-.16c.27-.11.4-.31.4-.62s-.21-.55-.64-.74c-.43-.18-.96-.3-1.6-.37-.64-.06-1.33-.19-2.06-.38-.74-.19-1.42-.44-2.06-.74s-1.17-.79-1.6-1.49c-.43-.69-.64-1.44-.64-2.24s.02-1.4.06-1.79c.04-.39.22-.95.53-1.66.31-.71.75-1.3,1.31-1.74.56-.45,1.44-.85,2.62-1.22,1.18-.36,2.51-.54,3.98-.54s2.7.05,3.7.14c.99.1,1.77.22,2.34.37.57.15,1.03.32,1.39.51.62.32.93.67.93,1.06,0,.83-.3,1.79-.9,2.88-.6,1.09-1.07,1.63-1.42,1.63s-1.12-.19-2.29-.56-2.04-.56-2.59-.56c-.9,0-1.34.26-1.34.77,0,.32.3.56.91.72.61.16,1.34.33,2.19.5s1.71.41,2.58.72c.86.31,1.6.87,2.21,1.68.61.81.91,1.83.91,3.07,0,4.18-2.98,6.27-8.93,6.27Z" fill="#d2b2b2"/><path d="m139.66,17.02c-.21-.28-.44-.55-.67-.79.27-.4.49-.79.65-1.08.84-1.52,1.24-2.9,1.24-4.23,0-.85-.32-2.45-2.44-3.54-.53-.28-1.18-.53-1.96-.73-.73-.19-1.63-.34-2.78-.45-1.09-.11-2.38-.16-3.97-.16-1.74,0-3.36.22-4.8.67-1.54.47-2.7,1.03-3.54,1.7-.42.33-.79.71-1.12,1.12v-5.27c0-.78-.25-1.55-.72-2.24l-.02-.03-.02-.03c-1.45-1.98-4.15-1.98-5.04-1.98-1.72,0-3.35.29-4.86.85-2.39.9-3.61,2.24-3.61,4v1.38c-.55-.08-1.13-.11-1.74-.11-2.82,0-5.16,1.21-6.77,3.51-.18.25-.35.52-.5.8-.15-.35-.3-.69-.48-.99-.89-1.51-2.79-3.32-6.78-3.32-1.03,0-2,.14-2.88.41-.65.21-1.25.48-1.8.79-.75-.53-1.83-.92-3.38-.92-1.69,0-3.32.28-4.85.84-.62.22-2.09.76-2.97,1.91-1.53-1.69-4.22-3.04-8.92-3.04-1.9,0-3.59.18-5.04.53-1.6.39-3.08,1.08-4.38,2.04-.66.48-1.24,1.05-1.74,1.69-.1-.48-.28-1.04-.69-1.58.83-1.2.94-2.49.94-3.12,0-2.15-.96-3.83-2.71-4.74-1.22-.63-2.72-.94-4.6-.94-6.73,0-7.25,4.35-7.25,5.68,0,.23.02.56.08.94-.81-.33-1.78-.51-2.95-.51-1.57,0-3.13.38-4.64,1.14-.08.04-.16.08-.24.12-.76-.56-1.89-.98-3.55-.98-1.75,0-3.39.3-4.9.9-.24.09-.57.23-.94.41.15-.88.24-1.85.24-2.96C22.53,0,15.94,0,13.78,0c-1.94,0-3.72.33-5.29.98-1.15.47-2.16,1.12-3,1.93-.89.86-1.6,1.98-2.17,3.45-.28.72-.49,1.49-.62,2.32-.74.36-1.55,1.06-2.09,2.42-.4,1-.6,2.07-.6,3.19,0,3.64,1.19,5.06,2.5,5.52v7.18c0,1.63.93,3.57,5.36,3.57,1.81,0,3.37-.08,4.65-.23,1.05-.12,4.23-.5,4.23-3.34v-6.99h.98c.43,0,1.21-.1,1.98-.62v7.62c0,1.51,1,2.8,2.56,3.27.51.15,1.26.3,3.33.3,1.39,0,2.76-.08,4.06-.23,1.17-.13,4.29-.49,4.29-3.34v-7.61c.25.05.55.13.89.22,1.76.5,2.3.59,2.78.59.52,0,1.25-.11,1.98-.58v7.38c0,1.52.97,2.78,2.52,3.26.5.16,1.25.3,3.33.3,1.39,0,2.76-.08,4.09-.23,1.18-.13,4.33-.49,4.33-3.34v-.2c.1.12.19.23.3.35.72.79,1.56,1.47,2.51,2.01.93.53,2.06.95,3.44,1.27,1.32.31,2.86.46,4.73.46s3.77-.24,5.69-.72c1.42-.35,2.41-.87,3.11-1.44.44.71,1.15,1.27,2.06,1.54.51.15,1.26.3,3.33.3,1.39,0,2.76-.08,4.06-.23.52-.06,1.43-.16,2.28-.51.28.18.6.33.95.44.5.16,1.26.3,3.33.3,1.39,0,2.76-.08,4.08-.23,1.01-.12,3.46-.4,4.13-2.29.31.37.65.71,1.02.99.68.53,1.52.97,2.49,1.3.97.33,2.02.5,3.12.5,1.54,0,2.86-.29,3.95-.86.39.2.77.31,1.08.38.46.11,1.12.19,2.76.19,1.2,0,2.46-.08,3.75-.23.72-.08,2.43-.29,3.45-1.31.31.2.66.39,1.05.56,2.05.85,4.94,1.26,8.89,1.26,10.2,0,11.73-5.68,11.73-9.07,0-1.85-.5-3.45-1.47-4.75ZM13.94,11.12h4.26c.58,0,.86.94.86,2.82,0,.83-.12,1.58-.37,2.26-.25.67-.57,1.01-.98,1.01h-3.78v9.79c0,.23-.59.42-1.76.56s-2.61.21-4.32.21-2.56-.26-2.56-.77v-9.79h-1.63c-.58,0-.86-.97-.86-2.91,0-.77.13-1.49.4-2.16.27-.67.61-1.01,1.04-1.01h1.06c0-1.43.21-2.68.62-3.74s.92-1.88,1.5-2.45c.59-.57,1.3-1.02,2.13-1.36,1.24-.51,2.65-.77,4.22-.77,3.97,0,5.95.65,5.95,1.95,0,1.41-.14,2.56-.42,3.46-.28.9-.65,1.34-1.12,1.34-.19,0-.55-.07-1.07-.21-.52-.14-1.02-.21-1.49-.21-1.24,0-1.86.43-1.86,1.28,0,.21.05.45.16.7Zm25.58,1.89c-.09.88-.29,1.82-.62,2.85-.33,1.02-.76,1.54-1.3,1.54-.21,0-.89-.16-2.02-.48-1.13-.32-2.06-.48-2.8-.48s-1.2.11-1.38.32c-.18.21-.27.51-.27.9v9.34c0,.23-.6.42-1.81.56-1.21.14-2.45.21-3.74.21s-2.13-.06-2.51-.18c-.38-.12-.58-.31-.58-.59v-15.78c0-.41.59-.84,1.78-1.31,1.18-.47,2.47-.7,3.87-.7s2.18.38,2.35,1.15l.32,1.47h.22c.3-.81,1.01-1.5,2.14-2.06,1.13-.57,2.26-.85,3.39-.85s1.92.18,2.38.54c.46.36.69.83.69,1.39,0,.09,0,.19,0,.28-.04.21-.07.43-.07.66v.59c-.02.2-.03.41-.06.63Zm11.53,13.98c0,.23-.61.42-1.84.56-1.23.14-2.49.21-3.78.21s-2.12-.06-2.5-.18c-.37-.12-.56-.31-.56-.59v-14.51c.02-.3.04-.58.05-.84.12-.41.69-.83,1.76-1.23,1.21-.46,2.52-.69,3.95-.69,1.94,0,2.91.5,2.91,1.5v15.78Zm-4.32-18.43c-2.99,0-4.48-.96-4.48-2.88s1.48-2.88,4.45-2.88c1.41,0,2.51.21,3.31.62.8.42,1.2,1.17,1.2,2.26,0,1.92-1.49,2.88-4.48,2.88Zm18.12,14.05c.77,0,1.77-.26,3.01-.78,1.24-.52,1.89-.78,1.95-.78.4,0,.94.61,1.6,1.82.66,1.22.99,2.11.99,2.69,0,.83-.85,1.46-2.56,1.89-1.71.43-3.38.64-5.01.64s-3-.13-4.1-.38c-1.1-.26-2-.58-2.69-.98-.69-.39-1.3-.88-1.82-1.46-.52-.58-.91-1.12-1.17-1.65s-.46-1.1-.61-1.74c-.21-.94-.32-1.91-.32-2.91,0-3.88,1.01-6.56,3.04-8.03,1-.75,2.12-1.27,3.36-1.57,1.24-.3,2.7-.45,4.38-.45,5.4,0,8.1,1.88,8.1,5.63,0,3.99-3.03,5.98-9.09,5.98h-1.06c0,1.39.66,2.08,1.98,2.08Zm30.38,4.38c0,.23-.61.42-1.82.56s-2.47.21-3.76.21-2.12-.06-2.5-.18c-.37-.12-.56-.31-.56-.59v-10.18c0-.96-.04-1.59-.11-1.89-.08-.3-.14-.57-.21-.8-.15-.41-.42-.61-.8-.61-.6,0-.9.29-.9.86v12.61c0,.23-.6.42-1.81.56-1.21.14-2.45.21-3.74.21s-2.13-.06-2.51-.18c-.38-.12-.58-.31-.58-.59v-15.78c0-.45.61-.9,1.84-1.34,1.23-.45,2.52-.67,3.89-.67s2.13.39,2.3,1.18l.29,1.41h.22c.62-1.24,1.69-2.1,3.2-2.59.62-.19,1.3-.29,2.05-.29,2.15,0,3.61.65,4.37,1.94.76,1.29,1.14,3.39,1.14,6.29v9.86Zm22.25,0c0,.23-.59.42-1.78.56-1.18.14-2.33.21-3.42.21s-1.8-.04-2.11-.11c-.31-.07-.5-.15-.58-.24-.08-.08-.12-.22-.14-.42l-.26-1.82h-.26c-.19.75-.58,1.38-1.15,1.89-.73.66-1.82.99-3.3.99-.79,0-1.53-.12-2.21-.35-.68-.23-1.24-.52-1.68-.86-.44-.34-.82-.8-1.14-1.38s-.57-1.12-.74-1.65c-.17-.52-.3-1.17-.38-1.94-.13-1.13-.19-2.42-.19-3.87,0-2.96.54-5.22,1.63-6.77,1.09-1.55,2.58-2.32,4.48-2.32s3.35.46,4.22,1.38c.19.21.34.47.45.77h.26l-.38-2.21v-4c0-.47.6-.93,1.79-1.38,1.19-.45,2.49-.67,3.87-.67s2.38.28,2.78.83c.15.21.22.43.22.64v22.72Zm11.94,1.06c-3.54,0-6.13-.34-7.78-1.02-.83-.36-1.25-.71-1.25-1.06,0-.87.26-1.9.77-3.07.51-1.17.96-1.76,1.34-1.76.21,0,.93.24,2.16.7,1.23.47,2.26.7,3.1.7s1.4-.05,1.66-.16c.27-.11.4-.31.4-.62s-.21-.55-.64-.74c-.43-.18-.96-.3-1.6-.37-.64-.06-1.33-.19-2.06-.38-.74-.19-1.42-.44-2.06-.74s-1.17-.79-1.6-1.49c-.43-.69-.64-1.44-.64-2.24s.02-1.4.06-1.79c.04-.39.22-.95.53-1.66.31-.71.75-1.3,1.31-1.74.56-.45,1.44-.85,2.62-1.22,1.18-.36,2.51-.54,3.98-.54s2.7.05,3.7.14c.99.1,1.77.22,2.34.37.57.15,1.03.32,1.39.51.62.32.93.67.93,1.06,0,.83-.3,1.79-.9,2.88-.6,1.09-1.07,1.63-1.42,1.63s-1.12-.19-2.29-.56-2.04-.56-2.59-.56c-.9,0-1.34.26-1.34.77,0,.32.3.56.91.72.61.16,1.34.33,2.19.5s1.71.41,2.58.72c.86.31,1.6.87,2.21,1.68.61.81.91,1.83.91,3.07,0,4.18-2.98,6.27-8.93,6.27Z" fill="#f1d3de"/></g><path d="m13.94,17.2v9.79c0,.23-.59.42-1.76.56s-2.61.21-4.32.21-2.56-.26-2.56-.77v-9.79h-1.63c-.58,0-.86-.97-.86-2.91,0-.77.13-1.49.4-2.16.27-.67.61-1.01,1.04-1.01h1.06c0-1.43.21-2.68.62-3.74s.92-1.88,1.5-2.45c.59-.57,1.3-1.02,2.13-1.36,1.24-.51,2.65-.77,4.22-.77,3.97,0,5.95.65,5.95,1.95,0,1.41-.14,2.56-.42,3.46-.28.9-.65,1.34-1.12,1.34-.19,0-.55-.07-1.07-.21-.52-.14-1.02-.21-1.49-.21-1.24,0-1.86.43-1.86,1.28,0,.21.05.45.16.7h4.26c.58,0,.86.94.86,2.82,0,.83-.12,1.58-.37,2.26-.25.67-.57,1.01-.98,1.01h-3.78Z" fill="#fff"/><path d="m31.13,17.65v9.34c0,.23-.6.42-1.81.56-1.21.14-2.45.21-3.74.21s-2.13-.06-2.51-.18c-.38-.12-.58-.31-.58-.59v-15.78c0-.41.59-.84,1.78-1.31,1.18-.47,2.47-.7,3.87-.7s2.18.38,2.35,1.15l.32,1.47h.22c.3-.81,1.01-1.5,2.14-2.06,1.13-.57,2.26-.85,3.39-.85s1.92.18,2.38.54c.46.36.69.83.69,1.39s-.04,1.29-.13,2.16c-.09.88-.29,1.82-.62,2.85-.33,1.02-.76,1.54-1.3,1.54-.21,0-.89-.16-2.02-.48-1.13-.32-2.06-.48-2.8-.48s-1.2.11-1.38.32c-.18.21-.27.51-.27.9Z" fill="#fff"/><path d="m46.69,2.8c1.41,0,2.51.21,3.31.62.8.42,1.2,1.17,1.2,2.26,0,1.92-1.49,2.88-4.48,2.88s-4.48-.96-4.48-2.88,1.48-2.88,4.45-2.88Zm4.35,8.42v15.78c0,.23-.61.42-1.84.56-1.23.14-2.49.21-3.78.21s-2.12-.06-2.5-.18c-.37-.12-.56-.31-.56-.59v-15.2c0-.47.6-.93,1.81-1.39,1.21-.46,2.52-.69,3.95-.69,1.94,0,2.91.5,2.91,1.5Z" fill="#fff"/><path d="m62.86,20.53c0,1.39.66,2.08,1.98,2.08.77,0,1.77-.26,3.01-.78,1.24-.52,1.89-.78,1.95-.78.4,0,.94.61,1.6,1.82.66,1.22.99,2.11.99,2.69,0,.83-.85,1.46-2.56,1.89-1.71.43-3.38.64-5.01.64s-3-.13-4.1-.38c-1.1-.26-2-.58-2.69-.98-.69-.39-1.3-.88-1.82-1.46-.52-.58-.91-1.12-1.17-1.65s-.46-1.1-.61-1.74c-.21-.94-.32-1.91-.32-2.91,0-3.88,1.01-6.56,3.04-8.03,1-.75,2.12-1.27,3.36-1.57,1.24-.3,2.7-.45,4.38-.45,5.4,0,8.1,1.88,8.1,5.63,0,3.99-3.03,5.98-9.09,5.98h-1.06Zm-.06-4.67v2.11c.62,0,1.12-.25,1.52-.74.39-.49.59-1.09.59-1.79,0-1.28-.33-1.92-.99-1.92-.75,0-1.12.78-1.12,2.34Z" fill="#fff"/><path d="m95.22,17.14v9.86c0,.23-.61.42-1.82.56s-2.47.21-3.76.21-2.12-.06-2.5-.18c-.37-.12-.56-.31-.56-.59v-10.18c0-.96-.04-1.59-.11-1.89-.08-.3-.14-.57-.21-.8-.15-.41-.42-.61-.8-.61-.6,0-.9.29-.9.86v12.61c0,.23-.6.42-1.81.56-1.21.14-2.45.21-3.74.21s-2.13-.06-2.51-.18c-.38-.12-.58-.31-.58-.59v-15.78c0-.45.61-.9,1.84-1.34,1.23-.45,2.52-.67,3.89-.67s2.13.39,2.3,1.18l.29,1.41h.22c.62-1.24,1.69-2.1,3.2-2.59.62-.19,1.3-.29,2.05-.29,2.15,0,3.61.65,4.37,1.94.76,1.29,1.14,3.39,1.14,6.29Z" fill="#fff"/><path d="m104.47,28.05c-.79,0-1.53-.12-2.21-.35-.68-.23-1.24-.52-1.68-.86-.44-.34-.82-.8-1.14-1.38s-.57-1.12-.74-1.65c-.17-.52-.3-1.17-.38-1.94-.13-1.13-.19-2.42-.19-3.87,0-2.96.54-5.22,1.63-6.77,1.09-1.55,2.58-2.32,4.48-2.32s3.35.46,4.22,1.38c.19.21.34.47.45.77h.26l-.38-2.21v-4c0-.47.6-.93,1.79-1.38,1.19-.45,2.49-.67,3.87-.67s2.38.28,2.78.83c.15.21.22.43.22.64v22.72c0,.23-.59.42-1.78.56-1.18.14-2.33.21-3.42.21s-1.8-.04-2.11-.11c-.31-.07-.5-.15-.58-.24-.08-.08-.12-.22-.14-.42l-.26-1.82h-.26c-.19.75-.58,1.38-1.15,1.89-.73.66-1.82.99-3.3.99Zm3.58-4.67c.34,0,.6-.21.77-.64v-8.54c0-.21-.11-.38-.34-.5-.22-.12-.42-.18-.59-.18-.72,0-1.09,1.66-1.09,4.99,0,1.77.1,3.02.3,3.76.2.74.52,1.1.94,1.1Z" fill="#fff"/><path d="m129.41,28.05c-3.54,0-6.13-.34-7.78-1.02-.83-.36-1.25-.71-1.25-1.06,0-.87.26-1.9.77-3.07.51-1.17.96-1.76,1.34-1.76.21,0,.93.24,2.16.7,1.23.47,2.26.7,3.1.7s1.4-.05,1.66-.16c.27-.11.4-.31.4-.62s-.21-.55-.64-.74c-.43-.18-.96-.3-1.6-.37-.64-.06-1.33-.19-2.06-.38-.74-.19-1.42-.44-2.06-.74s-1.17-.79-1.6-1.49c-.43-.69-.64-1.44-.64-2.24s.02-1.4.06-1.79c.04-.39.22-.95.53-1.66.31-.71.75-1.3,1.31-1.74.56-.45,1.44-.85,2.62-1.22,1.18-.36,2.51-.54,3.98-.54s2.7.05,3.7.14c.99.1,1.77.22,2.34.37.57.15,1.03.32,1.39.51.62.32.93.67.93,1.06,0,.83-.3,1.79-.9,2.88-.6,1.09-1.07,1.63-1.42,1.63s-1.12-.19-2.29-.56-2.04-.56-2.59-.56c-.9,0-1.34.26-1.34.77,0,.32.3.56.91.72.61.16,1.34.33,2.19.5s1.71.41,2.58.72c.86.31,1.6.87,2.21,1.68.61.81.91,1.83.91,3.07,0,4.18-2.98,6.27-8.93,6.27Z" fill="#fff"/></g></g></g></svg>