<?xml version="1.0" encoding="UTF-8"?><svg id="Calque_2" xmlns="http://www.w3.org/2000/svg" viewBox="0 0 94.3 30.49"><g id="Calque_1-2"><g id="Home"><g id="text"><path d="m92.06,20.84c1.83-1.74,2.24-3.97,2.24-5.61,0-2.4-1-7.97-10.24-7.97-1.77,0-3.35.17-4.7.49-1.5.36-2.88,1.01-4.11,1.92-.75.55-1.39,1.22-1.92,2-.16-.42-.33-.82-.53-1.17-.83-1.47-2.6-3.23-6.36-3.23-1.73,0-3.33.42-4.78,1.26-.07.04-.14.08-.2.12-1.14-.9-2.54-1.37-4.12-1.37-1.17,0-2.14.13-2.97.4h-.04s-.04.03-.04.03c-.49.18-.96.39-1.39.64-.71-.46-1.71-.8-3.11-.8-1.58,0-3.11.27-4.54.79-.66.24-2.33.85-3.11,2.24,0,0-.01-.02-.02-.02-.81-.95-1.86-1.69-3.12-2.21-1.07-.45-2.16-.74-3.22-.88-.94-.12-2.07-.19-3.34-.19-3.31,0-6.1.82-8.29,2.43-.73.54-1.35,1.18-1.87,1.9-.15-.4-.31-.78-.5-1.12-.81-1.47-2.55-3.22-6.22-3.22-.69,0-1.36.06-2.02.19v-1.82c0-.77-.25-1.52-.73-2.16-1.33-1.85-3.89-1.85-4.73-1.85-1.58,0-3.11.26-4.55.79-.88.32-3.54,1.28-3.54,3.85v20.47c0,1.46.9,2.67,2.34,3.17.55.19,1.29.31,3.17.31,1.3,0,2.59-.07,3.82-.21.42-.05,1.18-.13,1.94-.4.21.12.43.22.67.3.54.19,1.29.31,3.16.31,1.29,0,2.58-.07,3.82-.21.96-.11,3.75-.42,4.14-2.71.32.33.66.64,1.04.92,1.13.85,2.45,1.47,3.87,1.81,1.27.31,2.77.46,4.46.46,3.54,0,6.46-1,8.66-2.96.23-.2.43-.42.64-.64.06,1.4,1,2.59,2.45,3.04.65.21,1.56.29,3.13.29,1.29,0,2.57-.07,3.79-.21.4-.05,1.12-.13,1.86-.38.22.12.46.22.71.3.48.15,1.19.29,3.15.29,1.31,0,2.58-.07,3.79-.21.4-.05,1.11-.13,1.83-.37.22.12.47.22.72.3.66.2,1.56.28,3.13.28,1.3,0,2.56-.07,3.77-.21.97-.11,3.8-.44,4.09-2.85.64.68,1.38,1.27,2.2,1.74.88.5,1.94.89,3.22,1.19,1.23.29,2.67.43,4.41.43s3.51-.23,5.29-.67c3.88-.97,4.46-3.19,4.46-4.43,0-1.04-.39-2.21-1.25-3.8-.11-.2-.25-.46-.43-.75Zm-71.71,5.88c0,.22-.58.39-1.73.52-1.15.13-2.32.19-3.52.19s-1.95-.05-2.26-.16c-.32-.11-.47-.29-.47-.55v-8.21c0-1.48-.06-2.55-.18-3.22-.12-.67-.4-1-.86-1-.39,0-.59.27-.59.8v11.64c0,.22-.57.39-1.71.52-1.14.13-2.31.19-3.52.19s-1.96-.05-2.27-.16-.47-.29-.47-.55V6.25c0-.41.57-.83,1.71-1.24,1.14-.41,2.34-.62,3.6-.62s2.16.25,2.51.74c.12.16.18.32.18.5v4.34l-.32,2.04h.21c.28-.41.71-.78,1.3-1.09,1.1-.59,2.3-.89,3.6-.89,1.87,0,3.14.6,3.8,1.79.62,1.12.95,2.91.98,5.35-.04.49-.07,1-.07,1.52,0,.6.03,1.18.07,1.73v6.3Zm18.91-1.29c-1.69,1.51-3.97,2.26-6.82,2.26-1.48,0-2.75-.13-3.81-.38-1.06-.26-2.03-.71-2.9-1.36-1.51-1.1-2.38-3-2.61-5.69v-2.64c0-.1,0-.19,0-.29.23-2.45,1.12-4.26,2.68-5.41,1.71-1.26,3.93-1.89,6.65-1.89,1.16,0,2.16.05,2.98.16s1.67.34,2.53.69c.86.35,1.55.84,2.07,1.45.52.61.95,1.45,1.29,2.53.21.68.35,1.46.43,2.31v2.9c-.23,2.31-1.05,4.11-2.47,5.37Zm30.48,1.8c-1.11.13-2.26.19-3.46.19s-1.96-.05-2.32-.16-.53-.29-.53-.55v-8.18c0-2.82-.29-4.22-.86-4.22-.14,0-.28.06-.41.18-.14.12-.21.32-.21.62v11.61c0,.22-.56.39-1.67.52-1.11.13-2.27.19-3.47.19s-1.97-.05-2.32-.16c-.34-.11-.52-.29-.52-.55v-8.18c0-2.19-.14-3.5-.41-3.93-.14-.2-.32-.3-.53-.3-.37,0-.56.27-.56.8v11.61c0,.22-.56.39-1.68.52-1.12.13-2.28.19-3.47.19s-1.96-.05-2.3-.16c-.34-.11-.52-.29-.52-.55v-6.49c.05-.5.07-1.01.07-1.54,0-.56-.03-1.1-.07-1.63v-4.9c0-.41.57-.83,1.7-1.24,1.13-.41,2.33-.62,3.59-.62s1.97.36,2.13,1.09l.27,1.3h.21c.57-1.12,1.52-1.92,2.84-2.39.55-.18,1.26-.27,2.13-.27,1.73,0,2.99.89,3.78,2.66.26-.59.9-1.18,1.92-1.77,1.02-.59,2.16-.89,3.4-.89,1.95,0,3.26.61,3.94,1.82.67,1.2,1.01,3.11,1.02,5.74-.05.55-.07,1.12-.07,1.72,0,.46.03.91.07,1.36v6.05c0,.22-.56.39-1.67.52Zm14.26-4.56c.71,0,1.63-.24,2.78-.72,1.14-.48,1.74-.72,1.8-.72.37,0,.87.56,1.48,1.68s.92,1.95.92,2.48c0,.77-.79,1.35-2.36,1.74-1.58.39-3.12.59-4.62.59s-2.77-.12-3.78-.35c-1.02-.24-1.84-.54-2.48-.9-.64-.36-1.2-.81-1.68-1.34-.48-.53-.84-1.04-1.08-1.52-.24-.48-.42-1.02-.56-1.61-.1-.43-.17-.87-.22-1.32v-2.94c.24-2.74,1.15-4.7,2.73-5.85.93-.69,1.96-1.17,3.1-1.45,1.14-.28,2.49-.41,4.05-.41,4.98,0,7.47,1.73,7.47,5.2,0,3.68-2.8,5.52-8.39,5.52h-.97c0,1.28.61,1.92,1.83,1.92Z" fill="#d2b2b2"/><path d="m92.06,19.22c1.83-1.74,2.24-3.97,2.24-5.61,0-2.4-1-7.97-10.24-7.97-1.77,0-3.35.17-4.7.49-1.5.36-2.88,1.01-4.11,1.92-.75.55-1.39,1.22-1.92,2-.16-.42-.33-.82-.53-1.17-.83-1.47-2.6-3.23-6.36-3.23-1.73,0-3.33.42-4.78,1.26-.07.04-.14.08-.2.12-1.14-.9-2.54-1.37-4.12-1.37-1.17,0-2.14.13-2.97.4h-.04s-.04.03-.04.03c-.49.18-.96.39-1.39.64-.71-.46-1.71-.8-3.11-.8-1.58,0-3.11.27-4.54.79-.66.24-2.33.85-3.11,2.24,0,0-.01-.02-.02-.02-.81-.95-1.86-1.69-3.12-2.21-1.07-.45-2.16-.74-3.22-.88-.94-.12-2.07-.19-3.34-.19-3.31,0-6.1.82-8.29,2.43-.73.54-1.35,1.18-1.87,1.9-.15-.4-.31-.78-.5-1.12-.81-1.47-2.55-3.22-6.22-3.22-.69,0-1.36.06-2.02.19v-1.82c0-.77-.25-1.52-.73-2.16-1.33-1.85-3.89-1.85-4.73-1.85-1.58,0-3.11.26-4.55.79-.88.32-3.54,1.28-3.54,3.85v20.47c0,1.46.9,2.67,2.34,3.17.55.19,1.29.31,3.17.31,1.3,0,2.59-.07,3.82-.21.42-.05,1.18-.13,1.94-.4.21.12.43.22.67.3.54.19,1.29.31,3.16.31,1.29,0,2.58-.07,3.82-.21.96-.11,3.75-.42,4.14-2.71.32.33.66.64,1.04.92,1.13.85,2.45,1.47,3.87,1.81,1.27.31,2.77.46,4.46.46,3.54,0,6.46-1,8.66-2.96.23-.2.43-.42.64-.64.06,1.4,1,2.59,2.45,3.04.65.21,1.56.29,3.13.29,1.29,0,2.57-.07,3.79-.21.4-.05,1.12-.13,1.86-.38.22.12.46.22.71.3.48.15,1.19.29,3.15.29,1.31,0,2.58-.07,3.79-.21.4-.05,1.11-.13,1.83-.37.22.12.47.22.72.3.66.2,1.56.28,3.13.28,1.3,0,2.56-.07,3.77-.21.97-.11,3.8-.44,4.09-2.85.64.68,1.38,1.27,2.2,1.74.88.5,1.94.89,3.22,1.19,1.23.29,2.67.43,4.41.43s3.51-.23,5.29-.67c3.88-.97,4.46-3.19,4.46-4.43,0-1.04-.39-2.21-1.25-3.8-.11-.2-.25-.46-.43-.75Zm-71.71,5.88c0,.22-.58.39-1.73.52-1.15.13-2.32.19-3.52.19s-1.95-.05-2.26-.16c-.32-.11-.47-.29-.47-.55v-8.21c0-1.48-.06-2.55-.18-3.22-.12-.67-.4-1-.86-1-.39,0-.59.27-.59.8v11.64c0,.22-.57.39-1.71.52-1.14.13-2.31.19-3.52.19s-1.96-.05-2.27-.16-.47-.29-.47-.55V4.63c0-.41.57-.83,1.71-1.24,1.14-.41,2.34-.62,3.6-.62s2.16.25,2.51.74c.12.16.18.32.18.5v4.34l-.32,2.04h.21c.28-.41.71-.78,1.3-1.09,1.1-.59,2.3-.89,3.6-.89,1.87,0,3.14.6,3.8,1.79.62,1.12.95,2.91.98,5.35-.04.49-.07,1-.07,1.52,0,.6.03,1.18.07,1.73v6.3Zm18.91-1.29c-1.69,1.51-3.97,2.26-6.82,2.26-1.48,0-2.75-.13-3.81-.38-1.06-.26-2.03-.71-2.9-1.36-1.51-1.1-2.38-3-2.61-5.69v-2.64c0-.1,0-.19,0-.29.23-2.45,1.12-4.26,2.68-5.41,1.71-1.26,3.93-1.89,6.65-1.89,1.16,0,2.16.05,2.98.16s1.67.34,2.53.69c.86.35,1.55.84,2.07,1.45.52.61.95,1.45,1.29,2.53.21.68.35,1.46.43,2.31v2.9c-.23,2.31-1.05,4.11-2.47,5.37Zm30.48,1.8c-1.11.13-2.26.19-3.46.19s-1.96-.05-2.32-.16-.53-.29-.53-.55v-8.18c0-2.82-.29-4.22-.86-4.22-.14,0-.28.06-.41.18-.14.12-.21.32-.21.62v11.61c0,.22-.56.39-1.67.52-1.11.13-2.27.19-3.47.19s-1.97-.05-2.32-.16c-.34-.11-.52-.29-.52-.55v-8.18c0-2.19-.14-3.5-.41-3.93-.14-.2-.32-.3-.53-.3-.37,0-.56.27-.56.8v11.61c0,.22-.56.39-1.68.52-1.12.13-2.28.19-3.47.19s-1.96-.05-2.3-.16c-.34-.11-.52-.29-.52-.55v-6.49c.05-.5.07-1.01.07-1.54,0-.56-.03-1.1-.07-1.63v-4.9c0-.41.57-.83,1.7-1.24,1.13-.41,2.33-.62,3.59-.62s1.97.36,2.13,1.09l.27,1.3h.21c.57-1.12,1.52-1.92,2.84-2.39.55-.18,1.26-.27,2.13-.27,1.73,0,2.99.89,3.78,2.66.26-.59.9-1.18,1.92-1.77,1.02-.59,2.16-.89,3.4-.89,1.95,0,3.26.61,3.94,1.82.67,1.2,1.01,3.11,1.02,5.74-.05.55-.07,1.12-.07,1.72,0,.46.03.91.07,1.36v6.05c0,.22-.56.39-1.67.52Zm14.26-4.56c.71,0,1.63-.24,2.78-.72,1.14-.48,1.74-.72,1.8-.72.37,0,.87.56,1.48,1.68s.92,1.95.92,2.48c0,.77-.79,1.35-2.36,1.74-1.58.39-3.12.59-4.62.59s-2.77-.12-3.78-.35c-1.02-.24-1.84-.54-2.48-.9-.64-.36-1.2-.81-1.68-1.34-.48-.53-.84-1.04-1.08-1.52-.24-.48-.42-1.02-.56-1.61-.1-.43-.17-.87-.22-1.32v-2.94c.24-2.74,1.15-4.7,2.73-5.85.93-.69,1.96-1.17,3.1-1.45,1.14-.28,2.49-.41,4.05-.41,4.98,0,7.47,1.73,7.47,5.2,0,3.68-2.8,5.52-8.39,5.52h-.97c0,1.28.61,1.92,1.83,1.92Z" fill="#f1d3de"/><path d="m33.37,13.82c-.07-.31-.16-.56-.28-.74-.18-.26-.39-.38-.64-.38s-.45.07-.61.22c-.16.15-.31.58-.44,1.3-.14.72-.21,1.74-.21,3.06s.07,2.33.21,3.04c.14.71.28,1.13.43,1.27.15.14.34.21.59.21s.44-.07.59-.21c.15-.14.29-.56.41-1.27s.19-1.6.19-2.67-.02-1.9-.07-2.48c-.05-.58-.11-1.03-.18-1.34Z" fill="#f1d3de"/><path d="m83.51,16.09c.36-.45.55-1,.55-1.65,0-1.18-.31-1.77-.92-1.77-.69,0-1.03.72-1.03,2.16v1.95c.57,0,1.04-.23,1.4-.68Z" fill="#f1d3de"/><path d="m32.44,26.08c-1.48,0-2.75-.13-3.81-.38-1.06-.26-2.03-.71-2.9-1.36-1.79-1.3-2.69-3.72-2.69-7.27,0-3.15.92-5.41,2.75-6.76,1.71-1.26,3.93-1.89,6.65-1.89,1.16,0,2.16.05,2.98.16s1.67.34,2.53.69c.86.35,1.55.84,2.07,1.45.52.61.95,1.45,1.29,2.53.33,1.07.5,2.35.5,3.83,0,2.99-.85,5.24-2.54,6.75-1.69,1.51-3.97,2.26-6.82,2.26Zm-1.03-5.76c.14.71.28,1.13.43,1.27.15.14.34.21.59.21s.44-.07.59-.21c.15-.14.29-.56.41-1.27s.19-1.6.19-2.67-.02-1.9-.07-2.48c-.05-.58-.11-1.03-.18-1.34-.07-.31-.16-.56-.28-.74-.18-.26-.39-.38-.64-.38s-.45.07-.61.22c-.16.15-.31.58-.44,1.3-.14.72-.21,1.74-.21,3.06s.07,2.33.21,3.04Z" fill="#fff"/><path d="m71.41,16.06v9.04c0,.22-.56.39-1.67.52-1.11.13-2.26.19-3.46.19s-1.96-.05-2.32-.16-.53-.29-.53-.55v-8.18c0-2.82-.29-4.22-.86-4.22-.14,0-.28.06-.41.18-.14.12-.21.32-.21.62v11.61c0,.22-.56.39-1.67.52-1.11.13-2.27.19-3.47.19s-1.97-.05-2.32-.16c-.34-.11-.52-.29-.52-.55v-8.18c0-2.19-.14-3.5-.41-3.93-.14-.2-.32-.3-.53-.3-.37,0-.56.27-.56.8v11.61c0,.22-.56.39-1.68.52-1.12.13-2.28.19-3.47.19s-1.96-.05-2.3-.16c-.34-.11-.52-.29-.52-.55v-14.56c0-.41.57-.83,1.7-1.24,1.13-.41,2.33-.62,3.59-.62s1.97.36,2.13,1.09l.27,1.3h.21c.57-1.12,1.52-1.92,2.84-2.39.55-.18,1.26-.27,2.13-.27,1.73,0,2.99.89,3.78,2.66.26-.59.9-1.18,1.92-1.77,1.02-.59,2.16-.89,3.4-.89,1.95,0,3.26.61,3.94,1.82s1.02,3.16,1.02,5.83Z" fill="#fff"/><path d="m82.17,19.14c0,1.28.61,1.92,1.83,1.92.71,0,1.63-.24,2.78-.72,1.14-.48,1.74-.72,1.8-.72.37,0,.87.56,1.48,1.68s.92,1.95.92,2.48c0,.77-.79,1.35-2.36,1.74-1.58.39-3.12.59-4.62.59s-2.77-.12-3.78-.35c-1.02-.24-1.84-.54-2.48-.9-.64-.36-1.2-.81-1.68-1.34-.48-.53-.84-1.04-1.08-1.52-.24-.48-.42-1.02-.56-1.61-.2-.87-.3-1.76-.3-2.69,0-3.58.94-6.06,2.81-7.42.93-.69,1.96-1.17,3.1-1.45,1.14-.28,2.49-.41,4.05-.41,4.98,0,7.47,1.73,7.47,5.2,0,3.68-2.8,5.52-8.39,5.52h-.97Zm-.06-4.31v1.95c.57,0,1.04-.23,1.4-.68.36-.45.55-1,.55-1.65,0-1.18-.31-1.77-.92-1.77-.69,0-1.03.72-1.03,2.16Z" fill="#fff"/><path d="m12.37,25.1v-8.21c0-1.48-.06-2.55-.18-3.22-.12-.67-.4-1-.86-1-.39,0-.59.27-.59.8v11.64c0,.22-.57.39-1.71.52-1.14.13-2.31.19-3.52.19s-1.96-.05-2.27-.16-.47-.29-.47-.55V4.63c0-.41.57-.83,1.71-1.24,1.14-.41,2.34-.62,3.6-.62s2.16.25,2.51.74c.12.16.18.32.18.5v4.34l-.32,2.04h.21c.28-.41.71-.78,1.3-1.09,1.1-.59,2.3-.89,3.6-.89,1.87,0,3.14.6,3.8,1.79.66,1.19.99,3.13.99,5.8v9.1c0,.22-.58.39-1.73.52-1.15.13-2.32.19-3.52.19s-1.95-.05-2.26-.16c-.32-.11-.47-.29-.47-.55Z" fill="#fff"/></g></g></g></svg>