<?xml version="1.0" encoding="UTF-8"?><svg id="Calque_2" xmlns="http://www.w3.org/2000/svg" viewBox="0 0 45.27 47.21"><g id="Calque_1-2"><g id="Home"><g><circle cx="22.64" cy="24.57" r="22.64" fill="#d2b2b2"/><circle cx="22.64" cy="22.64" r="22.64" fill="#f1d3de"/><path d="m33.35,32.91c0,.75-.61,1.33-1.33,1.33H13.21c-.75,0-1.33-.61-1.33-1.33v-12.08h-4.05l13.86-12.6c.52-.47,1.29-.47,1.8,0l13.89,12.6h-4.03v12.08Zm-10.75-4.03l4.52-4.52c1.17-1.17,1.17-3.09,0-4.26s-3.09-1.17-4.26,0l-.23.23-.23-.23c-1.17-1.17-3.09-1.17-4.26,0s-1.17,3.09,0,4.26l4.47,4.52Z" fill="#fff"/></g></g></g></svg>