<?xml version="1.0" encoding="UTF-8"?>
<svg id="Calque_2" data-name="Calque 2" xmlns="http://www.w3.org/2000/svg" viewBox="0 0 157.54 68.79">
  <defs>
    <style>
      .cls-1 {
        fill: #f1d7d7;
      }

      .cls-2 {
        fill: #fff;
      }

      .cls-3 {
        fill: #d1b2b2;
      }
    </style>
  </defs>
  <g id="Calque_2-2" data-name="Calque 2">
    <g>
      <path class="cls-3" d="m91.2,32.26h-1.81v18.57h1.88c1.29,0,1.94-3.09,1.94-9.29s-.67-9.28-2-9.28Z"/>
      <path class="cls-3" d="m157.54,34.2c0-4.61-1.75-19.65-24.3-19.65-3.94,0-7.34.36-10.4,1.1-3.5.84-6.72,2.35-9.57,4.46-.07.05-.13.1-.19.15-1.57-1.72-3.51-3.11-5.8-4.12-2.42-1.07-5.26-1.59-8.69-1.59-.12,0-.23,0-.35,0-.67-3.43-3.35-9.74-14.11-9.74-3.64,0-7.18.6-10.52,1.79-.17.06-.33.13-.49.19-.73-.61-1.53-1.15-2.41-1.6-2.84-1.48-6.25-2.19-10.41-2.19-11.37,0-16.24,6.09-17.21,12.11-.21,0-.41,0-.63,0-2.92,0-6.05.49-9.59,1.49-.72.21-1.4.43-2.03.67-2.18-1.28-5.19-2.16-9.37-2.16-2.74,0-5.55.4-8.35,1.18-2.76.77-4.98,1.65-6.81,2.69C2.12,21.34,0,24.52,0,28.39q0,2.22,5.13,13.31c2.78,6,5.56,12.51,8.26,19.32,1.15,2.94,3.45,5.17,6.49,6.28,1.7.62,3.7.88,6.9.88,6.35,0,14.16,0,17.53-5.72,1.25,2.31,3.41,4.1,6.18,4.97,1.7.53,3.78.74,7.41.74,2.77,0,5.51-.15,8.15-.45,1.74-.2,3.08-.45,4.22-.79.47-.14.91-.32,1.33-.5.78.32,1.62.62,2.57.86l.09.02c3.88.95,8.71,1.4,14.77,1.4,6.58,0,11.76-.85,15.84-2.61,2.47-1.06,4.65-2.55,6.49-4.39,1.34,1.27,2.84,2.38,4.47,3.31,2.08,1.18,4.53,2.1,7.49,2.79,2.77.65,5.98.96,9.78.96s7.72-.5,11.65-1.48c10.52-2.63,11.66-9.48,11.66-12.3,0-2.6-.84-5.37-2.72-8.92,2.52-3.25,3.87-7.32,3.87-11.89Zm-114.42-5.2v12.89c-1.72,4.15-3.88,9.43-6.48,15.84-.4.97-3.69,1.45-9.86,1.45-1.94,0-3.21-.11-3.81-.33-.6-.22-1.01-.59-1.21-1.12-2.78-7.02-5.61-13.62-8.47-19.81-2.86-6.19-4.29-9.37-4.29-9.53,0-.4.58-.94,1.75-1.6,1.17-.67,2.76-1.28,4.78-1.85,2.02-.56,3.99-.85,5.93-.85,3.91,0,5.93.95,6.05,2.84l1.51,19.24h.79l1.33-18.27c.08-1.01,1.47-1.9,4.17-2.66,2.7-.77,5.08-1.15,7.14-1.15.7,0,1.31.03,1.89.07-.92,1.68-1.21,3.37-1.21,4.83Zm14.78,30.18c-2.44,0-4.01-.11-4.72-.33-.71-.22-1.06-.59-1.06-1.12v-14.05c1.3-3.12,2.3-5.48,3-7.05,2.88-6.51,3.34-7.71,3.34-9.87,0-.36-.02-.77-.08-1.21,1.47-.31,3.01-.49,4.63-.49.37,0,.71.02,1.04.04v30.93c0,.6.07,1.61.39,2.8-2.13.22-4.31.34-6.55.34Zm6.15-41.49v4.86c-1.06.23-2.29.34-3.7.34-1.01,0-1.92-.06-2.75-.18-.32-.73-.73-1.5-1.3-2.28-1.29-1.75-2.91-2.81-4.39-3.52.27-3.27,3.06-4.92,8.38-4.92,2.02,0,3.71.23,5.07.68-.99,1.73-1.31,3.48-1.31,5Zm40.63,32.36c.34,1.47.79,2.84,1.33,4.12-1.22,1.61-2.78,2.85-4.71,3.68-2.9,1.25-7,1.88-12.28,1.88-4.71,0-8.57-.31-11.58-.92.05-.37.07-.73.07-1.08v-29.82c0-.47-.06-2.38-.98-4.53.88-1.92,1.28-3.98,1.28-5.93,0-.92-.08-1.8-.22-2.66,2.09-.63,4.26-.97,6.53-.97,3.55,0,5.32.93,5.32,2.78v6.83l-.67,4.17h.48c.24-.36.7-.81,1.36-1.33.67-.52,1.36-.97,2.09-1.33,1.77-.93,3.73-1.39,5.87-1.39s3.82.27,5.05.82c1.23.54,2.22,1.25,2.96,2.12.2.23.38.48.56.74-2.19,4.11-3.3,9.23-3.3,15.32,0,2.56.28,5.08.83,7.5Zm28.43-.61c1.45,0,3.35-.49,5.69-1.48,2.34-.99,3.57-1.48,3.69-1.48.77,0,1.77,1.15,3.02,3.45,1.25,2.3,1.88,3.99,1.88,5.08,0,1.57-1.61,2.76-4.84,3.57-3.23.81-6.38,1.21-9.47,1.21s-5.67-.24-7.74-.73c-2.08-.48-3.77-1.1-5.08-1.84-1.31-.75-2.46-1.66-3.45-2.75-.18-.2-.35-.4-.52-.6,1.49-4.03,2.23-9.1,2.23-15.49,0-3.78-.39-7.05-1.17-9.95.39-.38.8-.74,1.24-1.06,1.9-1.41,4.01-2.4,6.35-2.96,2.34-.56,5.1-.85,8.29-.85,10.2,0,15.3,3.55,15.3,10.65,0,7.54-5.73,11.31-17.18,11.31h-2c0,2.62,1.25,3.93,3.75,3.93Z"/>
      <path class="cls-3" d="m132.12,39.28c.75-.93,1.12-2.06,1.12-3.39,0-2.42-.63-3.63-1.88-3.63-1.41,0-2.12,1.47-2.12,4.42v3.99c1.17,0,2.13-.46,2.87-1.39Z"/>
    </g>
    <g>
      <path class="cls-1" d="m91.2,29.26h-1.81v18.57h1.88c1.29,0,1.94-3.09,1.94-9.29s-.67-9.28-2-9.28Z"/>
      <path class="cls-1" d="m157.54,31.2c0-4.61-1.75-19.65-24.3-19.65-3.94,0-7.34.36-10.4,1.1-3.5.84-6.72,2.35-9.57,4.46-.07.05-.13.1-.19.15-1.57-1.72-3.51-3.11-5.8-4.12-2.42-1.07-5.26-1.59-8.69-1.59-.12,0-.23,0-.35,0-.67-3.43-3.35-9.74-14.11-9.74-3.64,0-7.18.6-10.52,1.79-.17.06-.33.13-.49.19-.73-.61-1.53-1.15-2.41-1.6-2.84-1.48-6.25-2.19-10.41-2.19-11.37,0-16.24,6.09-17.21,12.11-.21,0-.41,0-.63,0-2.92,0-6.05.49-9.59,1.49-.72.21-1.4.43-2.03.67-2.18-1.28-5.19-2.16-9.37-2.16-2.74,0-5.55.4-8.35,1.18-2.76.77-4.98,1.65-6.81,2.69C2.12,18.34,0,21.52,0,25.39q0,2.22,5.13,13.31c2.78,6,5.56,12.51,8.26,19.32,1.15,2.94,3.45,5.17,6.49,6.28,1.7.62,3.7.88,6.9.88,6.35,0,14.16,0,17.53-5.72,1.25,2.31,3.41,4.1,6.18,4.97,1.7.53,3.78.74,7.41.74,2.77,0,5.51-.15,8.15-.45,1.74-.2,3.08-.45,4.22-.79.47-.14.91-.32,1.33-.5.78.32,1.62.62,2.57.86l.09.02c3.88.95,8.71,1.4,14.77,1.4,6.58,0,11.76-.85,15.84-2.61,2.47-1.06,4.65-2.55,6.49-4.39,1.34,1.27,2.84,2.38,4.47,3.31,2.08,1.18,4.53,2.1,7.49,2.79,2.77.65,5.98.96,9.78.96s7.72-.5,11.65-1.48c10.52-2.63,11.66-9.48,11.66-12.3,0-2.6-.84-5.37-2.72-8.92,2.52-3.25,3.87-7.32,3.87-11.89Zm-114.42-5.2v12.89c-1.72,4.15-3.88,9.43-6.48,15.84-.4.97-3.69,1.45-9.86,1.45-1.94,0-3.21-.11-3.81-.33-.6-.22-1.01-.59-1.21-1.12-2.78-7.02-5.61-13.62-8.47-19.81-2.86-6.19-4.29-9.37-4.29-9.53,0-.4.58-.94,1.75-1.6,1.17-.67,2.76-1.28,4.78-1.85,2.02-.56,3.99-.85,5.93-.85,3.91,0,5.93.95,6.05,2.84l1.51,19.24h.79l1.33-18.27c.08-1.01,1.47-1.9,4.17-2.66,2.7-.77,5.08-1.15,7.14-1.15.7,0,1.31.03,1.89.07-.92,1.68-1.21,3.37-1.21,4.83Zm14.78,30.18c-2.44,0-4.01-.11-4.72-.33-.71-.22-1.06-.59-1.06-1.12v-14.05c1.3-3.12,2.3-5.48,3-7.05,2.88-6.51,3.34-7.71,3.34-9.87,0-.36-.02-.77-.08-1.21,1.47-.31,3.01-.49,4.63-.49.37,0,.71.02,1.04.04v30.93c0,.6.07,1.61.39,2.8-2.13.22-4.31.34-6.55.34Zm6.15-41.49v4.86c-1.06.23-2.29.34-3.7.34-1.01,0-1.92-.06-2.75-.18-.32-.73-.73-1.5-1.3-2.28-1.29-1.75-2.91-2.81-4.39-3.52.27-3.27,3.06-4.92,8.38-4.92,2.02,0,3.71.23,5.07.68-.99,1.73-1.31,3.48-1.31,5Zm40.63,32.36c.34,1.47.79,2.84,1.33,4.12-1.22,1.61-2.78,2.85-4.71,3.68-2.9,1.25-7,1.88-12.28,1.88-4.71,0-8.57-.31-11.58-.92.05-.37.07-.73.07-1.08v-29.82c0-.47-.06-2.38-.98-4.53.88-1.92,1.28-3.98,1.28-5.93,0-.92-.08-1.8-.22-2.66,2.09-.63,4.26-.97,6.53-.97,3.55,0,5.32.93,5.32,2.78v6.83l-.67,4.17h.48c.24-.36.7-.81,1.36-1.33.67-.52,1.36-.97,2.09-1.33,1.77-.93,3.73-1.39,5.87-1.39s3.82.27,5.05.82c1.23.54,2.22,1.25,2.96,2.12.2.23.38.48.56.74-2.19,4.11-3.3,9.23-3.3,15.32,0,2.56.28,5.08.83,7.5Zm28.43-.61c1.45,0,3.35-.49,5.69-1.48,2.34-.99,3.57-1.48,3.69-1.48.77,0,1.77,1.15,3.02,3.45,1.25,2.3,1.88,3.99,1.88,5.08,0,1.57-1.61,2.76-4.84,3.57-3.23.81-6.38,1.21-9.47,1.21s-5.67-.24-7.74-.73c-2.08-.48-3.77-1.1-5.08-1.84-1.31-.75-2.46-1.66-3.45-2.75-.18-.2-.35-.4-.52-.6,1.49-4.03,2.23-9.1,2.23-15.49,0-3.78-.39-7.05-1.17-9.95.39-.38.8-.74,1.24-1.06,1.9-1.41,4.01-2.4,6.35-2.96,2.34-.56,5.1-.85,8.29-.85,10.2,0,15.3,3.55,15.3,10.65,0,7.54-5.73,11.31-17.18,11.31h-2c0,2.62,1.25,3.93,3.75,3.93Z"/>
      <path class="cls-1" d="m132.12,36.28c.75-.93,1.12-2.06,1.12-3.39,0-2.42-.63-3.63-1.88-3.63-1.41,0-2.12,1.47-2.12,4.42v3.99c1.17,0,2.13-.46,2.87-1.39Z"/>
    </g>
    <path class="cls-2" d="m9,25.39c0-.4.58-.94,1.75-1.6,1.17-.67,2.76-1.28,4.78-1.85,2.02-.56,3.99-.85,5.93-.85,3.91,0,5.93.95,6.05,2.84l1.51,19.24h.79l1.33-18.27c.08-1.01,1.47-1.9,4.17-2.66,2.7-.77,5.08-1.15,7.14-1.15s3.6.18,4.63.54,1.68.74,1.97,1.12c.28.38.42.72.42,1s-.86,2.36-2.57,6.23c-1.71,3.87-5.13,12.12-10.25,24.74-.4.97-3.69,1.45-9.86,1.45-1.94,0-3.21-.11-3.81-.33-.6-.22-1.01-.59-1.21-1.12-2.78-7.02-5.61-13.62-8.47-19.81-2.86-6.19-4.29-9.37-4.29-9.53Z"/>
    <path class="cls-2" d="m60.29,9c2.66,0,4.75.39,6.26,1.18s2.27,2.21,2.27,4.26c0,3.63-2.82,5.44-8.47,5.44s-8.47-1.81-8.47-5.44,2.8-5.44,8.41-5.44Zm8.23,15.91v29.82c0,.44-1.16.8-3.48,1.06-2.32.26-4.7.39-7.14.39s-4.01-.11-4.72-.33c-.71-.22-1.06-.59-1.06-1.12v-28.73c0-.89,1.14-1.76,3.42-2.63,2.28-.87,4.77-1.3,7.47-1.3,3.67,0,5.5.95,5.5,2.84Z"/>
    <path class="cls-2" d="m76.38,55.58c-2.22-.56-3.33-1.41-3.33-2.54V14.69c0-.89,1.19-1.75,3.57-2.6,2.38-.85,4.88-1.27,7.5-1.27,3.55,0,5.32.93,5.32,2.78v6.83l-.67,4.17h.48c.24-.36.7-.81,1.36-1.33.67-.52,1.36-.97,2.09-1.33,1.77-.93,3.73-1.39,5.87-1.39s3.82.27,5.05.82c1.23.54,2.22,1.25,2.96,2.12.75.87,1.34,1.97,1.78,3.3.77,2.3,1.15,5.16,1.15,8.59,0,5.69-.65,10.04-1.94,13.06-1.29,3.02-3.39,5.16-6.29,6.41-2.9,1.25-7,1.88-12.28,1.88s-9.5-.38-12.64-1.15Zm13-7.74h1.88c1.29,0,1.94-3.09,1.94-9.29s-.67-9.28-2-9.28h-1.81v18.57Z"/>
    <path class="cls-2" d="m129.37,42.51c0,2.62,1.25,3.93,3.75,3.93,1.45,0,3.35-.49,5.69-1.48,2.34-.99,3.57-1.48,3.69-1.48.77,0,1.77,1.15,3.02,3.45,1.25,2.3,1.88,3.99,1.88,5.08,0,1.57-1.61,2.76-4.84,3.57-3.23.81-6.38,1.21-9.47,1.21s-5.67-.24-7.74-.73c-2.08-.48-3.77-1.1-5.08-1.84-1.31-.75-2.46-1.66-3.45-2.75-.99-1.09-1.72-2.13-2.21-3.11-.48-.99-.87-2.09-1.15-3.3-.4-1.77-.6-3.61-.6-5.5,0-7.34,1.92-12.4,5.75-15.18,1.9-1.41,4.01-2.4,6.35-2.96,2.34-.56,5.1-.85,8.29-.85,10.2,0,15.3,3.55,15.3,10.65,0,7.54-5.73,11.31-17.18,11.31h-2Zm-.12-8.83v3.99c1.17,0,2.13-.46,2.87-1.39.75-.93,1.12-2.06,1.12-3.39,0-2.42-.63-3.63-1.88-3.63-1.41,0-2.12,1.47-2.12,4.42Z"/>
  </g>
</svg>