<?xml version="1.0" encoding="UTF-8"?><svg id="Calque_2" xmlns="http://www.w3.org/2000/svg" viewBox="0 0 45.31 47.27"><g id="Calque_1-2"><g id="LogOut"><circle cx="22.64" cy="24.64" r="22.64" fill="#d2b2b2"/><circle cx="22.68" cy="22.64" r="22.64" fill="#f1d3de"/><path d="m22.66,36.18c-7.48,0-13.54-6.05-13.54-13.54s6.05-13.54,13.54-13.54c4.27,0,8.27,2,10.82,5.41h-3.65c-4.48-3.96-11.32-3.53-15.28.95-3.96,4.48-3.53,11.32.95,15.28,4.1,3.6,10.23,3.6,14.33,0h3.67c-2.55,3.43-6.58,5.43-10.85,5.43Zm9.49-8.13v-4.05h-10.85v-2.72h10.82v-4.05l6.79,5.41-6.77,5.41Z" fill="#fff"/></g></g></svg>