<?xml version="1.0" encoding="UTF-8"?><svg id="Calque_2" xmlns="http://www.w3.org/2000/svg" viewBox="0 0 119.28 35.01"><g id="Calque_1-2"><g id="LogOut"><g id="text"><g><path d="m23.77,13.82c-.07-.31-.16-.56-.28-.74-.18-.26-.39-.38-.64-.38s-.45.07-.61.22c-.16.15-.31.58-.44,1.3-.14.72-.21,1.74-.21,3.06s.07,2.33.21,3.04c.14.71.28,1.13.43,1.27.15.14.34.21.59.21s.44-.07.59-.21c.15-.14.29-.56.41-1.27.13-.71.19-1.6.19-2.67s-.02-1.9-.07-2.48c-.05-.58-.11-1.03-.18-1.34Z" fill="#f1d3de"/><path d="m43.67,12.67c-.75,0-1.12,1.23-1.12,3.69,0,1.14.09,2.06.28,2.75.19.69.44,1.03.75,1.03.22,0,.39-.08.53-.24.14-.16.21-.33.21-.53v-6.09c-.08-.41-.3-.62-.65-.62Z" fill="#f1d3de"/><path d="m71.96,13.82c-.07-.31-.16-.56-.28-.74-.18-.26-.39-.38-.63-.38s-.45.07-.61.22c-.16.15-.31.58-.44,1.3-.14.72-.21,1.74-.21,3.06s.07,2.33.21,3.04c.14.71.28,1.13.43,1.27.15.14.34.21.59.21s.44-.07.59-.21c.15-.14.28-.56.41-1.27.13-.71.19-1.6.19-2.67s-.03-1.9-.07-2.48c-.05-.58-.11-1.03-.18-1.34Z" fill="#f1d3de"/><path d="m54.25,9.58l-.02-.03-.02-.03c-1.11-1.59-3.18-1.77-4.63-1.77-1.21,0-3.41,0-5.12.78-.4-.24-.86-.45-1.38-.62-.85-.29-1.83-.43-2.99-.43-1.25,0-2.44.26-3.55.78-1.14.53-2.04,1.23-2.69,2.07-.29.37-.54.77-.77,1.2-.18-.27-.37-.53-.57-.77-.81-.94-1.86-1.69-3.12-2.21-1.08-.45-2.16-.74-3.22-.88-.96-.12-2.05-.19-3.34-.19-3.31,0-6.1.82-8.29,2.43-.37.28-.71.58-1.03.91v-4.85c0-.97-.4-4.13-5.49-4.13-1.61,0-3.14.27-4.55.79C1.17,3.5,0,4.8,0,6.51v20.44c0,1.47.96,2.72,2.46,3.19.65.21,1.56.29,3.13.29,1.29,0,2.56-.07,3.79-.21.95-.11,3.7-.43,4.09-2.71.32.33.66.64,1.04.92,1.13.85,2.45,1.47,3.87,1.81,1.27.31,2.77.46,4.46.46,3.54,0,6.46-1,8.66-2.96.83-.74,1.51-1.61,2.05-2.58.11.15.21.3.33.44.2.24.43.47.68.68-.15.35-.26.67-.34.9-.5,1.47-.73,2.48-.73,3.29s.28,2.22,2.16,3.27c1.6.87,4.04,1.27,7.7,1.27s6.4-.82,8.41-2.44c1.51-1.21,3.31-3.5,3.31-7.47v-12.38c0-.6-.03-1.06-.11-1.44-.11-.58-.35-1.14-.71-1.68ZM10.75,26.95c0,.22-.56.39-1.68.52s-2.28.19-3.47.19-1.96-.05-2.3-.16c-.34-.11-.52-.29-.52-.55V6.51c0-.43.56-.86,1.67-1.27,1.11-.41,2.31-.62,3.59-.62,1.81,0,2.72.45,2.72,1.36v11.37c-.05.51-.07,1.03-.07,1.57,0,.6.03,1.17.07,1.73v6.31Zm18.91-1.29c-1.69,1.51-3.97,2.26-6.82,2.26-1.48,0-2.75-.13-3.81-.38-1.06-.26-2.03-.71-2.9-1.36-1.51-1.1-2.38-3-2.61-5.69v-2.97c.24-2.43,1.13-4.22,2.67-5.37,1.71-1.26,3.93-1.89,6.65-1.89,1.16,0,2.16.05,2.98.16s1.67.34,2.53.69c.86.35,1.55.84,2.07,1.45.52.61.95,1.45,1.29,2.53.08.24.14.5.2.77-.04.46-.07.94-.07,1.43,0,1.36.08,2.54.23,3.58-.3,2.03-1.1,3.63-2.4,4.79Zm22.64-.58c0,2.32-.76,4.1-2.27,5.32-1.52,1.22-3.74,1.83-6.68,1.83-3.11,0-5.23-.31-6.35-.92-.49-.28-.74-.56-.74-.86,0-.47.19-1.27.58-2.39s.74-1.68,1.08-1.68c.08,0,.35.07.83.21,1.5.39,2.71.59,3.65.59s1.57-.12,1.89-.36c.32-.24.49-.61.49-1.12v-1.71h-.24c-.08.1-.22.22-.41.37-.2.15-.68.35-1.46.61-.78.26-1.65.38-2.63.38s-1.8-.15-2.47-.44c-.67-.3-1.19-.67-1.57-1.11-.37-.44-.67-1.04-.89-1.79-.1-.35-.18-.76-.25-1.19.07-.62.12-1.25.12-1.92,0-1.15-.1-2.21-.28-3.19.18-1.53.63-2.77,1.36-3.69.37-.49.93-.91,1.67-1.26.74-.34,1.53-.52,2.38-.52s1.55.09,2.1.28c.55.19.96.41,1.24.66.55.55.87,1.03.95,1.45l.03.27h.24l.27-1.15c.2-.83,1.75-1.24,4.67-1.24,1.3,0,2.09.2,2.36.59.16.24.26.46.3.66.04.21.06.52.06.93v12.38Z" fill="#d2b2b2"/><path d="m116.32,20.24v-1.62c.83-.26,1.84-.93,2.45-2.59.34-.94.51-2.02.51-3.33,0-3.8-1.76-4.74-2.95-4.94v-1.56c0-.96-.39-4.1-5.46-4.1-1.42,0-2.87.23-4.33.69-3.24,1.02-3.73,3.02-3.73,4.12v1.31c-.19.11-.37.26-.55.42-.73-.52-1.79-.9-3.36-.9-1.69,0-3.3.22-4.76.64-.59.17-1.11.37-1.57.6-.78-.7-2.04-1.24-4.07-1.24-1.56,0-3.07.23-4.49.67-.71.22-2.55.81-3.33,2.3-.81-.93-1.84-1.66-3.08-2.17-1.08-.45-2.16-.74-3.23-.88-.96-.12-2.05-.19-3.34-.19-3.31,0-6.1.82-8.29,2.43-2.57,1.91-3.88,4.93-3.88,9,0,4.47,1.29,7.66,3.83,9.51,1.13.85,2.45,1.47,3.87,1.81,1.29.31,2.75.46,4.46.46,3.54,0,6.46-1,8.67-2.96.57-.51,1.07-1.07,1.5-1.69.27.71.6,1.33,1.01,1.86,1.42,1.86,3.72,2.8,6.82,2.8.99,0,1.92-.15,2.75-.43.32-.11.61-.23.88-.36.68.32,1.61.52,2.87.52s2.6-.06,3.93-.19c1.08-.1,4.37-.42,4.37-3.35v-.82c.56,1.22,1.34,2.2,2.37,2.88,1.06.7,2.18,1.17,3.36,1.4,1.02.21,2.23.31,3.68.31s3.14-.14,4.32-1.26c1.24-1.17,1.4-3.02,1.4-4.5,0-.9-.06-1.58-.19-2.14-.3-1.28-1.23-2.22-2.44-2.53Zm-38.47,5.42c-1.69,1.51-3.97,2.26-6.82,2.26-1.48,0-2.75-.13-3.81-.38s-2.03-.71-2.9-1.36c-1.79-1.3-2.69-3.72-2.69-7.27,0-3.15.92-5.41,2.75-6.77,1.71-1.26,3.93-1.89,6.65-1.89,1.16,0,2.16.05,2.98.16s1.67.34,2.53.69,1.55.84,2.07,1.45c.52.61.95,1.45,1.29,2.53.21.69.35,1.46.43,2.32v2.84s0,.02,0,.04c-.23,2.32-1.04,4.12-2.47,5.38Zm21.34,1.82c-1.24.12-2.46.18-3.66.18s-1.81-.16-1.83-.47l-.3-1.92h-.24c-.18.71-.53,1.29-1.06,1.74-.28.24-.68.45-1.23.64-.54.19-1.16.28-1.85.28-2.21,0-3.75-.57-4.62-1.71-.86-1.12-1.29-3.05-1.31-5.79.04-.49.07-.99.07-1.51,0-.56-.03-1.1-.07-1.62v-5.09c0-.39.58-.77,1.74-1.14s2.38-.55,3.66-.55c1.71,0,2.57.44,2.57,1.33v7.5c0,1.5.06,2.58.18,3.26s.41,1.02.89,1.02c.63,0,.94-.27.94-.8v-10.64c0-.41.61-.8,1.83-1.15,1.22-.35,2.55-.53,3.99-.53,1.01,0,1.66.19,1.96.57-.21.74-.32,1.53-.32,2.38,0,1.11.13,2.02.39,2.77.04.11.08.22.13.32v10.32c0,.28-.62.47-1.86.59Zm16.46-.09c-.36.33-1.16.5-2.42.5s-2.3-.08-3.13-.25c-.83-.17-1.61-.5-2.36-.99-1.44-.96-2.16-2.97-2.16-6.03v-4.61h-1.48c-.1,0-.19-.05-.28-.15v-4.19c0-.07,0-.25-.04-.49.23-.45.51-.69.85-.69h.95v-3.57c0-.61.6-1.1,1.79-1.48,1.19-.37,2.36-.56,3.5-.56,1.79,0,2.69.44,2.69,1.33v4.28h2.19c.51,0,.77.74.77,2.22,0,.97-.11,1.76-.34,2.38s-.52.93-.87.93h-1.74v5.41c0,.53.23.91.68,1.14.45.23.85.34,1.2.34s.56.17.63.5c.08.34.12.84.12,1.51,0,1.32-.18,2.15-.53,2.48Z" fill="#d2b2b2"/><path d="m116.32,18.4v-1.62c.83-.26,1.84-.93,2.45-2.59.34-.94.51-2.02.51-3.33,0-3.8-1.76-4.74-2.95-4.94v-1.56c0-.96-.39-4.1-5.46-4.1-1.42,0-2.87.23-4.33.69-3.24,1.02-3.73,3.02-3.73,4.12v1.31c-.19.11-.37.26-.55.42-.73-.52-1.79-.9-3.36-.9-1.69,0-3.3.22-4.76.64-.59.17-1.11.37-1.57.6-.78-.7-2.04-1.24-4.07-1.24-1.56,0-3.07.23-4.49.67-.71.22-2.55.81-3.33,2.3-.81-.93-1.84-1.66-3.08-2.17-1.08-.45-2.16-.74-3.23-.88-.96-.12-2.05-.19-3.34-.19-3.31,0-6.1.82-8.29,2.43-2.57,1.91-3.88,4.93-3.88,9,0,4.47,1.29,7.66,3.83,9.51,1.13.85,2.45,1.47,3.87,1.81,1.29.31,2.75.46,4.46.46,3.54,0,6.46-1,8.67-2.96.57-.51,1.07-1.07,1.5-1.69.27.71.6,1.33,1.01,1.86,1.42,1.86,3.72,2.8,6.82,2.8.99,0,1.92-.15,2.75-.43.32-.11.61-.23.88-.36.68.32,1.61.52,2.87.52s2.6-.06,3.93-.19c1.08-.1,4.37-.42,4.37-3.35v-.82c.56,1.22,1.34,2.2,2.37,2.88,1.06.7,2.18,1.17,3.36,1.4,1.02.21,2.23.31,3.68.31s3.14-.14,4.32-1.26c1.24-1.17,1.4-3.02,1.4-4.5,0-.9-.06-1.58-.19-2.14-.3-1.28-1.23-2.22-2.44-2.53Zm-38.47,5.42c-1.69,1.51-3.97,2.26-6.82,2.26-1.48,0-2.75-.13-3.81-.38s-2.03-.71-2.9-1.36c-1.79-1.3-2.69-3.72-2.69-7.27,0-3.15.92-5.41,2.75-6.77,1.71-1.26,3.93-1.89,6.65-1.89,1.16,0,2.16.05,2.98.16s1.67.34,2.53.69,1.55.84,2.07,1.45c.52.61.95,1.45,1.29,2.53.21.69.35,1.46.43,2.32v2.84s0,.02,0,.04c-.23,2.32-1.04,4.12-2.47,5.38Zm21.34,1.82c-1.24.12-2.46.18-3.66.18s-1.81-.16-1.83-.47l-.3-1.92h-.24c-.18.71-.53,1.29-1.06,1.74-.28.24-.68.45-1.23.64-.54.19-1.16.28-1.85.28-2.21,0-3.75-.57-4.62-1.71-.86-1.12-1.29-3.05-1.31-5.79.04-.49.07-.99.07-1.51,0-.56-.03-1.1-.07-1.62v-5.09c0-.39.58-.77,1.74-1.14s2.38-.55,3.66-.55c1.71,0,2.57.44,2.57,1.33v7.5c0,1.5.06,2.58.18,3.26s.41,1.02.89,1.02c.63,0,.94-.27.94-.8v-10.64c0-.41.61-.8,1.83-1.15,1.22-.35,2.55-.53,3.99-.53,1.01,0,1.66.19,1.96.57-.21.74-.32,1.53-.32,2.38,0,1.11.13,2.02.39,2.77.04.11.08.22.13.32v10.32c0,.28-.62.47-1.86.59Zm16.46-.09c-.36.33-1.16.5-2.42.5s-2.3-.08-3.13-.25c-.83-.17-1.61-.5-2.36-.99-1.44-.96-2.16-2.97-2.16-6.03v-4.61h-1.48c-.1,0-.19-.05-.28-.15v-4.19c0-.07,0-.25-.04-.49.23-.45.51-.69.85-.69h.95v-3.57c0-.61.6-1.1,1.79-1.48,1.19-.37,2.36-.56,3.5-.56,1.79,0,2.69.44,2.69,1.33v4.28h2.19c.51,0,.77.74.77,2.22,0,.97-.11,1.76-.34,2.38s-.52.93-.87.93h-1.74v5.41c0,.53.23.91.68,1.14.45.23.85.34,1.2.34s.56.17.63.5c.08.34.12.84.12,1.51,0,1.32-.18,2.15-.53,2.48Z" fill="#f1d3de"/><path d="m54.25,7.73l-.02-.03-.02-.03c-1.11-1.59-3.18-1.77-4.63-1.77-1.21,0-3.41,0-5.12.78-.4-.24-.86-.45-1.38-.62-.85-.29-1.83-.43-2.99-.43-1.25,0-2.44.26-3.55.78-1.14.53-2.04,1.23-2.69,2.07-.29.37-.54.77-.77,1.2-.18-.27-.37-.53-.57-.77-.81-.94-1.86-1.69-3.12-2.21-1.08-.45-2.16-.74-3.22-.88-.96-.12-2.05-.19-3.34-.19-3.31,0-6.1.82-8.29,2.43-.37.28-.71.58-1.03.91v-4.85c0-.97-.4-4.13-5.49-4.13-1.61,0-3.14.27-4.55.79C1.17,1.65,0,2.95,0,4.66v20.44c0,1.47.96,2.72,2.46,3.19.65.21,1.56.29,3.13.29,1.29,0,2.56-.07,3.79-.21.95-.11,3.7-.43,4.09-2.71.32.33.66.64,1.04.92,1.13.85,2.45,1.47,3.87,1.81,1.27.31,2.77.46,4.46.46,3.54,0,6.46-1,8.66-2.96.83-.74,1.51-1.61,2.05-2.58.11.15.21.3.33.44.2.24.43.47.68.68-.15.35-.26.67-.34.9-.5,1.47-.73,2.48-.73,3.29s.28,2.22,2.16,3.27c1.6.87,4.04,1.27,7.7,1.27s6.4-.82,8.41-2.44c1.51-1.21,3.31-3.5,3.31-7.47v-12.38c0-.6-.03-1.06-.11-1.44-.11-.58-.35-1.14-.71-1.68ZM10.75,25.1c0,.22-.56.39-1.68.52s-2.28.19-3.47.19-1.96-.05-2.3-.16c-.34-.11-.52-.29-.52-.55V4.66c0-.43.56-.86,1.67-1.27,1.11-.41,2.31-.62,3.59-.62,1.81,0,2.72.45,2.72,1.36v11.37c-.05.51-.07,1.03-.07,1.57,0,.6.03,1.17.07,1.73v6.31Zm18.91-1.29c-1.69,1.51-3.97,2.26-6.82,2.26-1.48,0-2.75-.13-3.81-.38-1.06-.26-2.03-.71-2.9-1.36-1.51-1.1-2.38-3-2.61-5.69v-2.97c.24-2.43,1.13-4.22,2.67-5.37,1.71-1.26,3.93-1.89,6.65-1.89,1.16,0,2.16.05,2.98.16s1.67.34,2.53.69c.86.35,1.55.84,2.07,1.45.52.61.95,1.45,1.29,2.53.08.24.14.5.2.77-.04.46-.07.94-.07,1.43,0,1.36.08,2.54.23,3.58-.3,2.03-1.1,3.63-2.4,4.79Zm22.64-.58c0,2.32-.76,4.1-2.27,5.32-1.52,1.22-3.74,1.83-6.68,1.83-3.11,0-5.23-.31-6.35-.92-.49-.28-.74-.56-.74-.86,0-.47.19-1.27.58-2.39s.74-1.68,1.08-1.68c.08,0,.35.07.83.21,1.5.39,2.71.59,3.65.59s1.57-.12,1.89-.36c.32-.24.49-.61.49-1.12v-1.71h-.24c-.08.1-.22.22-.41.37-.2.15-.68.35-1.46.61-.78.26-1.65.38-2.63.38s-1.8-.15-2.47-.44c-.67-.3-1.19-.67-1.57-1.11-.37-.44-.67-1.04-.89-1.79-.1-.35-.18-.76-.25-1.19.07-.62.12-1.25.12-1.92,0-1.15-.1-2.21-.28-3.19.18-1.53.63-2.77,1.36-3.69.37-.49.93-.91,1.67-1.26.74-.34,1.53-.52,2.38-.52s1.55.09,2.1.28c.55.19.96.41,1.24.66.55.55.87,1.03.95,1.45l.03.27h.24l.27-1.15c.2-.83,1.75-1.24,4.67-1.24,1.3,0,2.09.2,2.36.59.16.24.26.46.3.66.04.21.06.52.06.93v12.38Z" fill="#f1d3de"/></g><path d="m10.75,4.13v20.97c0,.22-.56.39-1.68.52s-2.28.19-3.47.19-1.96-.05-2.3-.16c-.34-.11-.52-.29-.52-.55V4.66c0-.43.56-.86,1.67-1.27,1.11-.41,2.31-.62,3.59-.62,1.81,0,2.72.45,2.72,1.36Z" fill="#fff"/><path d="m22.84,26.08c-1.48,0-2.75-.13-3.81-.38-1.06-.26-2.03-.71-2.9-1.36-1.79-1.3-2.69-3.72-2.69-7.27,0-3.15.92-5.41,2.75-6.77,1.71-1.26,3.93-1.89,6.65-1.89,1.16,0,2.16.05,2.98.16s1.67.34,2.53.69c.86.35,1.55.84,2.07,1.45.52.61.95,1.45,1.29,2.53.33,1.07.5,2.35.5,3.83,0,2.99-.85,5.24-2.54,6.75-1.69,1.51-3.97,2.26-6.82,2.26Zm-1.03-5.76c.14.71.28,1.13.43,1.27.15.14.34.21.59.21s.44-.07.59-.21c.15-.14.29-.56.41-1.27.13-.71.19-1.6.19-2.67s-.02-1.9-.07-2.48c-.05-.58-.11-1.03-.18-1.34-.07-.31-.16-.56-.28-.74-.18-.26-.39-.38-.64-.38s-.45.07-.61.22c-.16.15-.31.58-.44,1.3-.14.72-.21,1.74-.21,3.06s.07,2.33.21,3.04Z" fill="#fff"/><path d="m44.76,23.86v-1.71h-.24c-.08.1-.22.22-.41.37-.2.15-.68.35-1.46.61-.78.26-1.65.38-2.63.38s-1.8-.15-2.47-.44c-.67-.3-1.19-.67-1.57-1.11-.37-.44-.67-1.04-.89-1.79-.34-1.16-.5-2.74-.5-4.73,0-2.28.48-4.04,1.45-5.26.37-.49.93-.91,1.67-1.26.74-.34,1.53-.52,2.38-.52s1.55.09,2.1.28c.55.19.96.41,1.24.66.55.55.87,1.03.95,1.45l.03.27h.24l.27-1.15c.2-.83,1.75-1.24,4.67-1.24,1.3,0,2.09.2,2.36.59.16.24.26.46.3.66.04.21.06.52.06.93v12.38c0,2.32-.76,4.1-2.27,5.32-1.52,1.22-3.74,1.83-6.68,1.83-3.11,0-5.23-.31-6.35-.92-.49-.28-.74-.56-.74-.86,0-.47.19-1.27.58-2.39s.74-1.68,1.08-1.68c.08,0,.35.07.83.21,1.5.39,2.71.59,3.65.59s1.57-.12,1.89-.36c.32-.24.49-.61.49-1.12Zm-1.18-3.72c.22,0,.39-.08.53-.24.14-.16.21-.33.21-.53v-6.09c-.08-.41-.3-.62-.65-.62-.75,0-1.12,1.23-1.12,3.69,0,1.14.09,2.06.28,2.75.19.69.44,1.03.75,1.03Z" fill="#fff"/><path d="m71.03,26.08c-1.48,0-2.75-.13-3.81-.38s-2.03-.71-2.9-1.36c-1.79-1.3-2.69-3.72-2.69-7.27,0-3.15.92-5.41,2.75-6.77,1.71-1.26,3.93-1.89,6.65-1.89,1.16,0,2.16.05,2.98.16s1.67.34,2.53.69,1.55.84,2.07,1.45c.52.61.95,1.45,1.29,2.53.33,1.07.5,2.35.5,3.83,0,2.99-.85,5.24-2.54,6.75s-3.97,2.26-6.82,2.26Zm-1.03-5.76c.14.71.28,1.13.43,1.27.15.14.34.21.59.21s.44-.07.59-.21c.15-.14.28-.56.41-1.27.13-.71.19-1.6.19-2.67s-.03-1.9-.07-2.48c-.05-.58-.11-1.03-.18-1.34-.07-.31-.16-.56-.28-.74-.18-.26-.39-.38-.63-.38s-.45.07-.61.22c-.16.15-.31.58-.44,1.3-.14.72-.21,1.74-.21,3.06s.07,2.33.21,3.04Z" fill="#fff"/><path d="m89.03,26.08c-2.21,0-3.75-.57-4.62-1.71-.88-1.14-1.31-3.13-1.31-5.97v-8.04c0-.39.58-.77,1.74-1.14s2.38-.55,3.66-.55c1.71,0,2.57.44,2.57,1.33v7.5c0,1.5.06,2.58.18,3.26s.41,1.02.89,1.02c.63,0,.94-.27.94-.8v-10.64c0-.41.61-.8,1.83-1.15,1.22-.35,2.55-.53,3.99-.53s2.16.38,2.16,1.15v15.21c0,.28-.62.47-1.86.59-1.24.12-2.46.18-3.66.18s-1.81-.16-1.83-.47l-.3-1.92h-.24c-.18.71-.53,1.29-1.06,1.74-.28.24-.68.45-1.23.64-.54.19-1.16.28-1.85.28Z" fill="#fff"/><path d="m115.65,25.55c-.36.33-1.16.5-2.42.5s-2.3-.08-3.13-.25c-.83-.17-1.61-.5-2.36-.99-1.44-.96-2.16-2.97-2.16-6.03v-4.61h-1.48c-.22,0-.4-.23-.56-.68-.16-.45-.24-1.07-.24-1.86s.12-1.48.37-2.08c.25-.6.57-.9.96-.9h.95v-3.57c0-.61.6-1.1,1.79-1.48,1.19-.37,2.36-.56,3.5-.56,1.79,0,2.69.44,2.69,1.33v4.28h2.19c.51,0,.77.74.77,2.22,0,.97-.11,1.76-.34,2.38s-.52.93-.87.93h-1.74v5.41c0,.53.23.91.68,1.14.45.23.85.34,1.2.34s.56.17.63.5c.08.34.12.84.12,1.51,0,1.32-.18,2.15-.53,2.48Z" fill="#fff"/></g></g></g></svg>