<svg viewBox="0 0 48 48" xml:space="preserve" xmlns="http://www.w3.org/2000/svg"><path d="M24 48C10.767 48 0 37.233 0 24S10.767 0 24 0s24 10.767 24 24-10.767 24-24 24zm0-46C11.869 2 2 11.869 2 24s9.869 22 22 22 22-9.869 22-22S36.131 2 24 2z" fill="#8f5653" class="fill-000000"></path><path d="M24 42c-8.822 0-16-7.178-16-16a1 1 0 1 1 2 0c0 7.72 6.28 14 14 14s14-6.28 14-14a1 1 0 1 1 2 0c0 8.822-7.178 16-16 16zM19 21a1 1 0 0 1-1-1c0-1.654-1.346-3-3-3s-3 1.346-3 3a1 1 0 1 1-2 0c0-2.757 2.243-5 5-5s5 2.243 5 5a1 1 0 0 1-1 1zM37 21a1 1 0 0 1-1-1c0-1.654-1.346-3-3-3s-3 1.346-3 3a1 1 0 1 1-2 0c0-2.757 2.243-5 5-5s5 2.243 5 5a1 1 0 0 1-1 1z" fill="#8f5653" fill-opacity="0.6" class="fill-000000"></path></svg>