<?xml version="1.0" encoding="utf-8"?>
<!-- Generator: Adobe Illustrator 27.1.1, SVG Export Plug-In . SVG Version: 6.00 Build 0)  -->
<svg version="1.1" id="Calque_1" xmlns="http://www.w3.org/2000/svg" xmlns:xlink="http://www.w3.org/1999/xlink" x="0px" y="0px"
	 viewBox="0 0 128 128" style="enable-background:new 0 0 128 128;" xml:space="preserve">
<style type="text/css">
	.st0{fill:#C0A0A0;}
</style>
<path class="st0" d="M64,128C28.7,128,0,99.3,0,64S28.7,0,64,0s64,28.7,64,64S99.3,128,64,128z M64,5.3C31.7,5.3,5.3,31.7,5.3,64
	s26.3,58.7,58.7,58.7s58.7-26.3,58.7-58.7S96.3,5.3,64,5.3z"/>
<path class="st0" d="M64,112c-23.5,0-42.7-19.1-42.7-42.7c0-1.5,1.2-2.7,2.7-2.7s2.7,1.2,2.7,2.7c0,20.6,16.7,37.3,37.3,37.3
	s37.3-16.7,37.3-37.3c0-1.5,1.2-2.7,2.7-2.7s2.7,1.2,2.7,2.7C106.7,92.9,87.5,112,64,112z M50.7,56c-1.5,0-2.7-1.2-2.7-2.7
	c0-4.4-3.6-8-8-8s-8,3.6-8,8c0,1.5-1.2,2.7-2.7,2.7c-1.5,0-2.7-1.2-2.7-2.7C26.7,46,32.6,40,40,40s13.3,6,13.3,13.3
	C53.3,54.8,52.1,56,50.7,56z M98.7,56c-1.5,0-2.7-1.2-2.7-2.7c0-4.4-3.6-8-8-8s-8,3.6-8,8c0,1.5-1.2,2.7-2.7,2.7
	c-1.5,0-2.7-1.2-2.7-2.7C74.7,46,80.6,40,88,40s13.3,6,13.3,13.3C101.3,54.8,100.1,56,98.7,56z"/>
</svg>
