<?xml version="1.0" encoding="UTF-8"?><svg id="Calque_2" xmlns="http://www.w3.org/2000/svg" viewBox="0 0 122.24 34.71"><g id="Calque_1-2"><g id="Profile"><g id="text"><g><path d="m11.51,12.64c-.35,0-.61.2-.77.59v7.74c0,.51.27.77.8.77.69,0,1.03-1.53,1.03-4.58,0-1.67-.09-2.85-.27-3.52-.18-.67-.44-1-.8-1Z" fill="#f1d3de"/><path d="m51.54,13.82c-.07-.31-.16-.56-.28-.74-.18-.26-.39-.38-.64-.38s-.45.07-.61.22c-.16.15-.31.58-.44,1.3-.14.72-.21,1.74-.21,3.06s.07,2.33.21,3.04c.14.71.28,1.13.43,1.27.15.14.34.21.59.21s.44-.07.59-.21c.15-.14.29-.56.41-1.27s.19-1.6.19-2.67-.02-1.9-.07-2.48c-.05-.58-.11-1.03-.18-1.34Z" fill="#f1d3de"/><path d="m120,21.07c1.83-1.74,2.24-3.97,2.24-5.61,0-2.4-1-7.97-10.24-7.97-1.77,0-3.35.17-4.7.49-1.5.36-2.88,1.01-4.11,1.92-.06.04-.1.09-.16.13v-4.05c0-.97-.4-4.13-5.49-4.13-1.6,0-3.14.27-4.55.79-1.21.45-2.1,1.02-2.67,1.71-.44-.67-1.03-1.23-1.77-1.62-1.15-.6-2.57-.89-4.34-.89-2.62,0-4.23.7-5.24,1.62-1.95-1.61-5.46-1.62-6.91-1.62-1.82,0-3.48.31-4.96.92-1.08.44-2.03,1.06-2.83,1.82-.84.81-1.51,1.87-2.05,3.25-.25.65-.44,1.34-.57,2.08-.41.21-.84.54-1.23,1.04-.05-.06-.09-.13-.14-.18-.81-.95-1.86-1.69-3.12-2.21-1.07-.45-2.16-.74-3.22-.88-.94-.12-2.07-.19-3.34-.19-3.31,0-6.1.82-8.29,2.43-.25.19-.48.39-.71.6-.27-.75-.75-1.41-1.41-1.93-.94-.74-2.22-1.1-3.92-1.1-1.47,0-2.94.36-4.37,1.08-.04.02-.08.04-.12.06-.73-.5-1.78-.87-3.29-.87-1.63,0-3.18.28-4.59.84-.51.2-1.65.66-2.47,1.53-.55-.68-1.26-1.27-2.15-1.76-1.08-.59-2.28-.88-3.56-.88-1.09,0-2.08.14-2.95.4-.61.19-1.14.4-1.59.65-.31-.19-.59-.31-.74-.37-.68-.28-1.48-.42-2.44-.42-1.62,0-3.17.28-4.59.84-.84.33-3.41,1.34-3.41,3.85v18.79c0,1.15.69,2.68,2.63,3.22.67.18,1.6.26,3.11.26,1.28,0,2.56-.07,3.8-.21,1.03-.12,4.16-.47,4.16-3.27v-.6c.22.02.45.03.69.03,2.55,0,4.58-.8,6.03-2.37.1-.11.17-.23.27-.34.34,1.02,1.17,1.84,2.33,2.19.66.2,1.57.28,3.13.28,1.3,0,2.57-.07,3.77-.21,1.02-.12,4.12-.47,4.12-3.27v-6.79c.17.04.37.09.58.15,1.64.47,2.15.55,2.61.55.31,0,.78-.05,1.29-.25.29,3.59,1.55,6.22,3.76,7.82,1.13.85,2.45,1.47,3.87,1.81,1.27.31,2.77.46,4.46.46,3.54,0,6.46-1,8.66-2.96.91-.81,1.64-1.77,2.19-2.87v2.08c0,1.3.67,3.48,5.13,3.48,1.7,0,3.12-.07,4.31-.21,1.01-.12,4.07-.48,4.07-3.27v-6.27h.72c.31,0,1.02-.06,1.76-.5v6.77c0,1.47.96,2.72,2.46,3.19.65.21,1.56.29,3.13.29,1.29,0,2.57-.07,3.8-.21.7-.08,2.38-.27,3.37-1.27.43.54,1.03.96,1.76,1.19.65.21,1.56.29,3.13.29,1.29,0,2.57-.07,3.79-.21.87-.1,3.23-.37,3.93-2.15.45.38.93.74,1.46,1.04.88.5,1.94.89,3.22,1.19,1.23.29,2.67.43,4.41.43s3.51-.23,5.29-.67c3.88-.97,4.46-3.19,4.46-4.43,0-1.04-.39-2.21-1.25-3.8-.11-.2-.25-.46-.43-.75Zm-99.83,1.51c-.16.85-.38,1.58-.68,2.19-.3.61-.67,1.16-1.12,1.65-.91.99-2.24,1.48-3.99,1.48-.63,0-1.19-.09-1.67-.28-.48-.19-.84-.41-1.08-.66-.49-.53-.78-1-.86-1.42l-.03-.3h-.24l.41,2.66v3.34c0,.22-.57.39-1.7.52-1.13.13-2.29.19-3.49.19s-1.98-.05-2.38-.16-.59-.29-.59-.55V12.44c0-.41.55-.84,1.65-1.27,1.1-.43,2.29-.65,3.57-.65.59,0,1.05.07,1.39.21.33.14.54.28.62.41.08.14.23.73.44,1.77h.24c.04-.18.22-.45.53-.83.31-.37.64-.68.96-.92s.79-.45,1.4-.64c.61-.19,1.32-.28,2.14-.28s1.56.18,2.23.55c.67.36,1.17.79,1.49,1.27.32.48.58,1.09.77,1.83.15.59.25,1.08.3,1.48v4.27c0,.14,0,.28-.01.42-.06.82-.17,1.65-.32,2.5Zm17.05-4.49c-.2,0-.82-.15-1.86-.44-1.04-.3-1.91-.44-2.58-.44s-1.1.1-1.27.3c-.17.2-.25.47-.25.83v8.63c0,.22-.56.39-1.67.52-1.11.13-2.27.19-3.46.19s-1.96-.05-2.32-.16c-.35-.11-.53-.29-.53-.55v-7.29c.04-.68.07-1.37.07-2.06,0-.9-.02-1.59-.05-2.1,0-.08-.02-.16-.02-.24v-2.87c0-.37.55-.78,1.64-1.21s2.28-.65,3.57-.65,2.01.35,2.17,1.06l.3,1.36h.21c.28-.75.93-1.38,1.98-1.91,1.04-.52,2.09-.78,3.13-.78s1.78.17,2.2.5c.42.34.64.76.64,1.29s-.04,1.19-.12,1.99c-.08.81-.27,1.68-.58,2.63-.31.95-.7,1.42-1.2,1.42Zm20.21,7.58c-1.69,1.51-3.97,2.26-6.82,2.26-1.48,0-2.75-.13-3.81-.38-1.06-.26-2.03-.71-2.9-1.36-1.79-1.3-2.69-3.72-2.69-7.27,0-3.15.92-5.41,2.75-6.76,1.71-1.26,3.93-1.89,6.65-1.89,1.16,0,2.16.05,2.98.16s1.67.34,2.53.69c.86.35,1.55.84,2.07,1.45.39.46.73,1.06,1.02,1.78-.03.29-.05.58-.05.88,0,1.82.32,3.05.81,3.88-.04,2.9-.88,5.09-2.53,6.56Zm14.78-13.37h3.93c.53,0,.8.87.8,2.6,0,.77-.11,1.46-.34,2.08-.23.62-.53.93-.9.93h-3.49v9.04c0,.22-.54.39-1.62.52-1.08.13-2.41.19-3.99.19s-2.36-.24-2.36-.71v-9.04h-1.51s-.01,0-.02,0c-.07-1.34-.26-2.57-.6-3.64-.02-.06-.04-.12-.06-.18.06-.29.14-.58.25-.86.25-.62.57-.93.96-.93h.97c0-1.32.19-2.47.58-3.46s.85-1.74,1.39-2.26c.54-.52,1.2-.94,1.96-1.26,1.14-.47,2.44-.71,3.9-.71,3.25,0,5.05.48,5.42,1.42-.11.51-.15.95-.15,1.24,0,.25.02.62.1,1.05-.06.47-.15.91-.27,1.28-.26.83-.6,1.24-1.03,1.24-.18,0-.51-.06-.99-.19-.48-.13-.94-.19-1.37-.19-1.14,0-1.71.39-1.71,1.18,0,.2.05.41.15.65Zm16.02,14.65c0,.22-.57.39-1.7.52-1.13.13-2.29.19-3.49.19s-1.96-.05-2.3-.16-.52-.29-.52-.55v-14.03c0-.43.56-.86,1.67-1.29,1.11-.42,2.33-.64,3.65-.64,1.79,0,2.69.46,2.69,1.39v14.56Zm-3.99-17.02c-2.28,0-3.6-.61-3.99-1.82.05-.53.08-1.09.08-1.69,0-.06-.01-.11-.01-.17.47-1.08,1.76-1.63,3.9-1.63,1.3,0,2.32.19,3.06.58s1.11,1.08,1.11,2.08c0,1.77-1.38,2.66-4.14,2.66Zm14.34,17.53c-1.12.13-2.28.19-3.47.19s-1.96-.05-2.3-.16-.52-.29-.52-.55V6.51c0-.43.56-.86,1.67-1.27,1.11-.41,2.31-.62,3.59-.62,1.81,0,2.72.45,2.72,1.36v7.74c-.66,1.61-1,3.56-1,5.82,0,1.13.12,2.24.36,3.3.16.67.38,1.29.63,1.87v2.24c0,.22-.56.39-1.68.52Zm13.35-4.56c.71,0,1.63-.24,2.78-.72,1.14-.48,1.74-.72,1.8-.72.37,0,.87.56,1.48,1.68s.92,1.95.92,2.48c0,.77-.79,1.35-2.36,1.74-1.58.39-3.12.59-4.62.59s-2.77-.12-3.78-.35c-1.02-.24-1.84-.54-2.48-.9-.64-.36-1.2-.81-1.68-1.34-.41-.45-.71-.87-.94-1.29v-9.73c.45-.92,1.05-1.67,1.81-2.22.93-.69,1.96-1.17,3.1-1.45,1.14-.28,2.49-.41,4.05-.41,4.98,0,7.47,1.73,7.47,5.2,0,3.68-2.8,5.52-8.39,5.52h-.97c0,1.28.61,1.92,1.83,1.92Z" fill="#d2b2b2"/><path d="m120,19.22c1.83-1.74,2.24-3.97,2.24-5.61,0-2.4-1-7.97-10.24-7.97-1.77,0-3.35.17-4.7.49-1.5.36-2.88,1.01-4.11,1.92-.06.04-.1.09-.16.13v-4.05c0-.97-.4-4.13-5.49-4.13-1.6,0-3.14.27-4.55.79-1.21.45-2.1,1.02-2.67,1.71-.44-.67-1.03-1.23-1.77-1.62-1.15-.6-2.57-.89-4.34-.89-2.62,0-4.23.7-5.24,1.62-1.95-1.61-5.46-1.62-6.91-1.62-1.82,0-3.48.31-4.96.92-1.08.44-2.03,1.06-2.83,1.82-.84.81-1.51,1.87-2.05,3.25-.25.65-.44,1.34-.57,2.08-.41.21-.84.54-1.23,1.04-.05-.06-.09-.13-.14-.18-.81-.95-1.86-1.69-3.12-2.21-1.07-.45-2.16-.74-3.22-.88-.94-.12-2.07-.19-3.34-.19-3.31,0-6.1.82-8.29,2.43-.25.19-.48.39-.71.6-.27-.75-.75-1.41-1.41-1.93-.94-.74-2.22-1.1-3.92-1.1-1.47,0-2.94.36-4.37,1.08-.04.02-.08.04-.12.06-.73-.5-1.78-.87-3.29-.87-1.63,0-3.18.28-4.59.84-.51.2-1.65.66-2.47,1.53-.55-.68-1.26-1.27-2.15-1.76-1.08-.59-2.28-.88-3.56-.88-1.09,0-2.08.14-2.95.4-.61.19-1.14.4-1.59.65-.31-.19-.59-.31-.74-.37-.68-.28-1.48-.42-2.44-.42-1.62,0-3.17.28-4.59.84-.84.33-3.41,1.34-3.41,3.85v18.79c0,1.15.69,2.68,2.63,3.22.67.18,1.6.26,3.11.26,1.28,0,2.56-.07,3.8-.21,1.03-.12,4.16-.47,4.16-3.27v-.6c.22.02.45.03.69.03,2.55,0,4.58-.8,6.03-2.37.1-.11.17-.23.27-.34.34,1.02,1.17,1.84,2.33,2.19.66.2,1.57.28,3.13.28,1.3,0,2.57-.07,3.77-.21,1.02-.12,4.12-.47,4.12-3.27v-6.79c.17.04.37.09.58.15,1.64.47,2.15.55,2.61.55.31,0,.78-.05,1.29-.25.29,3.59,1.55,6.22,3.76,7.82,1.13.85,2.45,1.47,3.87,1.81,1.27.31,2.77.46,4.46.46,3.54,0,6.46-1,8.66-2.96.91-.81,1.64-1.77,2.19-2.87v2.08c0,1.3.67,3.48,5.13,3.48,1.7,0,3.12-.07,4.31-.21,1.01-.12,4.07-.48,4.07-3.27v-6.27h.72c.31,0,1.02-.06,1.76-.5v6.77c0,1.47.96,2.72,2.46,3.19.65.21,1.56.29,3.13.29,1.29,0,2.57-.07,3.8-.21.7-.08,2.38-.27,3.37-1.27.43.54,1.03.96,1.76,1.19.65.21,1.56.29,3.13.29,1.29,0,2.57-.07,3.79-.21.87-.1,3.23-.37,3.93-2.15.45.38.93.74,1.46,1.04.88.5,1.94.89,3.22,1.19,1.23.29,2.67.43,4.41.43s3.51-.23,5.29-.67c3.88-.97,4.46-3.19,4.46-4.43,0-1.04-.39-2.21-1.25-3.8-.11-.2-.25-.46-.43-.75Zm-99.83,1.51c-.16.85-.38,1.58-.68,2.19-.3.61-.67,1.16-1.12,1.65-.91.99-2.24,1.48-3.99,1.48-.63,0-1.19-.09-1.67-.28-.48-.19-.84-.41-1.08-.66-.49-.53-.78-1-.86-1.42l-.03-.3h-.24l.41,2.66v3.34c0,.22-.57.39-1.7.52-1.13.13-2.29.19-3.49.19s-1.98-.05-2.38-.16-.59-.29-.59-.55V10.6c0-.41.55-.84,1.65-1.27,1.1-.43,2.29-.65,3.57-.65.59,0,1.05.07,1.39.21.33.14.54.28.62.41.08.14.23.73.44,1.77h.24c.04-.18.22-.45.53-.83.31-.37.64-.68.96-.92s.79-.45,1.4-.64c.61-.19,1.32-.28,2.14-.28s1.56.18,2.23.55c.67.36,1.17.79,1.49,1.27.32.48.58,1.09.77,1.83.15.59.25,1.08.3,1.48v4.27c0,.14,0,.28-.01.42-.06.82-.17,1.65-.32,2.5Zm17.05-4.49c-.2,0-.82-.15-1.86-.44-1.04-.3-1.91-.44-2.58-.44s-1.1.1-1.27.3c-.17.2-.25.47-.25.83v8.63c0,.22-.56.39-1.67.52-1.11.13-2.27.19-3.46.19s-1.96-.05-2.32-.16c-.35-.11-.53-.29-.53-.55v-7.29c.04-.68.07-1.37.07-2.06,0-.9-.02-1.59-.05-2.1,0-.08-.02-.16-.02-.24v-2.87c0-.37.55-.78,1.64-1.21s2.28-.65,3.57-.65,2.01.35,2.17,1.06l.3,1.36h.21c.28-.75.93-1.38,1.98-1.91,1.04-.52,2.09-.78,3.13-.78s1.78.17,2.2.5c.42.34.64.76.64,1.29s-.04,1.19-.12,1.99c-.08.81-.27,1.68-.58,2.63-.31.95-.7,1.42-1.2,1.42Zm20.21,7.58c-1.69,1.51-3.97,2.26-6.82,2.26-1.48,0-2.75-.13-3.81-.38-1.06-.26-2.03-.71-2.9-1.36-1.79-1.3-2.69-3.72-2.69-7.27,0-3.15.92-5.41,2.75-6.76,1.71-1.26,3.93-1.89,6.65-1.89,1.16,0,2.16.05,2.98.16s1.67.34,2.53.69c.86.35,1.55.84,2.07,1.45.39.46.73,1.06,1.02,1.78-.03.29-.05.58-.05.88,0,1.82.32,3.05.81,3.88-.04,2.9-.88,5.09-2.53,6.56Zm14.78-13.37h3.93c.53,0,.8.87.8,2.6,0,.77-.11,1.46-.34,2.08-.23.62-.53.93-.9.93h-3.49v9.04c0,.22-.54.39-1.62.52-1.08.13-2.41.19-3.99.19s-2.36-.24-2.36-.71v-9.04h-1.51s-.01,0-.02,0c-.07-1.34-.26-2.57-.6-3.64-.02-.06-.04-.12-.06-.18.06-.29.14-.58.25-.86.25-.62.57-.93.96-.93h.97c0-1.32.19-2.47.58-3.46s.85-1.74,1.39-2.26c.54-.52,1.2-.94,1.96-1.26,1.14-.47,2.44-.71,3.9-.71,3.25,0,5.05.48,5.42,1.42-.11.51-.15.95-.15,1.24,0,.25.02.62.1,1.05-.06.47-.15.91-.27,1.28-.26.83-.6,1.24-1.03,1.24-.18,0-.51-.06-.99-.19-.48-.13-.94-.19-1.37-.19-1.14,0-1.71.39-1.71,1.18,0,.2.05.41.15.65Zm16.02,14.65c0,.22-.57.39-1.7.52-1.13.13-2.29.19-3.49.19s-1.96-.05-2.3-.16-.52-.29-.52-.55v-14.03c0-.43.56-.86,1.67-1.29,1.11-.42,2.33-.64,3.65-.64,1.79,0,2.69.46,2.69,1.39v14.56Zm-3.99-17.02c-2.28,0-3.6-.61-3.99-1.82.05-.53.08-1.09.08-1.69,0-.06-.01-.11-.01-.17.47-1.08,1.76-1.63,3.9-1.63,1.3,0,2.32.19,3.06.58s1.11,1.08,1.11,2.08c0,1.77-1.38,2.66-4.14,2.66Zm14.34,17.53c-1.12.13-2.28.19-3.47.19s-1.96-.05-2.3-.16-.52-.29-.52-.55V4.66c0-.43.56-.86,1.67-1.27,1.11-.41,2.31-.62,3.59-.62,1.81,0,2.72.45,2.72,1.36v7.74c-.66,1.61-1,3.56-1,5.82,0,1.13.12,2.24.36,3.3.16.67.38,1.29.63,1.87v2.24c0,.22-.56.39-1.68.52Zm13.35-4.56c.71,0,1.63-.24,2.78-.72,1.14-.48,1.74-.72,1.8-.72.37,0,.87.56,1.48,1.68s.92,1.95.92,2.48c0,.77-.79,1.35-2.36,1.74-1.58.39-3.12.59-4.62.59s-2.77-.12-3.78-.35c-1.02-.24-1.84-.54-2.48-.9-.64-.36-1.2-.81-1.68-1.34-.41-.45-.71-.87-.94-1.29v-9.73c.45-.92,1.05-1.67,1.81-2.22.93-.69,1.96-1.17,3.1-1.45,1.14-.28,2.49-.41,4.05-.41,4.98,0,7.47,1.73,7.47,5.2,0,3.68-2.8,5.52-8.39,5.52h-.97c0,1.28.61,1.92,1.83,1.92Z" fill="#f1d3de"/><path d="m111.45,16.09c.36-.45.55-1,.55-1.65,0-1.18-.31-1.77-.92-1.77-.69,0-1.03.72-1.03,2.16v1.95c.57,0,1.04-.23,1.4-.68Z" fill="#f1d3de"/></g><path d="m2.77,29.39V10.6c0-.41.55-.84,1.65-1.27,1.1-.43,2.29-.65,3.57-.65.59,0,1.05.07,1.39.21.33.14.54.28.62.41.08.14.23.73.44,1.77h.24c.04-.18.22-.45.53-.83.31-.37.64-.68.96-.92s.79-.45,1.4-.64c.61-.19,1.32-.28,2.14-.28s1.56.18,2.23.55c.67.36,1.17.79,1.49,1.27.32.48.58,1.09.77,1.83.19.74.3,1.33.32,1.77.03.44.04,1.08.04,1.92s-.03,1.66-.09,2.48c-.06.82-.17,1.65-.32,2.5-.16.85-.38,1.58-.68,2.19-.3.61-.67,1.16-1.12,1.65-.91.99-2.24,1.48-3.99,1.48-.63,0-1.19-.09-1.67-.28-.48-.19-.84-.41-1.08-.66-.49-.53-.78-1-.86-1.42l-.03-.3h-.24l.41,2.66v3.34c0,.22-.57.39-1.7.52-1.13.13-2.29.19-3.49.19s-1.98-.05-2.38-.16-.59-.29-.59-.55Zm9.54-15.75c-.18-.67-.44-1-.8-1s-.61.2-.77.59v7.74c0,.51.27.77.8.77.69,0,1.03-1.53,1.03-4.58,0-1.67-.09-2.85-.27-3.52Z" fill="#fff"/><path d="m31.25,16.48v8.63c0,.22-.56.39-1.67.52-1.11.13-2.27.19-3.46.19s-1.96-.05-2.32-.16c-.35-.11-.53-.29-.53-.55v-14.56c0-.37.55-.78,1.64-1.21s2.28-.65,3.57-.65,2.01.35,2.17,1.06l.3,1.36h.21c.28-.75.93-1.38,1.98-1.91,1.04-.52,2.09-.78,3.13-.78s1.78.17,2.2.5c.42.34.64.76.64,1.29s-.04,1.19-.12,1.99c-.08.81-.27,1.68-.58,2.63-.31.95-.7,1.42-1.2,1.42-.2,0-.82-.15-1.86-.44-1.04-.3-1.91-.44-2.58-.44s-1.1.1-1.27.3c-.17.2-.25.47-.25.83Z" fill="#fff"/><path d="m50.61,26.08c-1.48,0-2.75-.13-3.81-.38-1.06-.26-2.03-.71-2.9-1.36-1.79-1.3-2.69-3.72-2.69-7.27,0-3.15.92-5.41,2.75-6.76,1.71-1.26,3.93-1.89,6.65-1.89,1.16,0,2.16.05,2.98.16s1.67.34,2.53.69c.86.35,1.55.84,2.07,1.45.52.61.95,1.45,1.29,2.53.33,1.07.5,2.35.5,3.83,0,2.99-.85,5.24-2.54,6.75-1.69,1.51-3.97,2.26-6.82,2.26Zm-1.03-5.76c.14.71.28,1.13.43,1.27.15.14.34.21.59.21s.44-.07.59-.21c.15-.14.29-.56.41-1.27s.19-1.6.19-2.67-.02-1.9-.07-2.48c-.05-.58-.11-1.03-.18-1.34-.07-.31-.16-.56-.28-.74-.18-.26-.39-.38-.64-.38s-.45.07-.61.22c-.16.15-.31.58-.44,1.3-.14.72-.21,1.74-.21,3.06s.07,2.33.21,3.04Z" fill="#fff"/><path d="m72.21,16.06v9.04c0,.22-.54.39-1.62.52-1.08.13-2.41.19-3.99.19s-2.36-.24-2.36-.71v-9.04h-1.51c-.53,0-.8-.9-.8-2.69,0-.71.12-1.37.37-1.99.25-.62.57-.93.96-.93h.97c0-1.32.19-2.47.58-3.46s.85-1.74,1.39-2.26c.54-.52,1.2-.94,1.96-1.26,1.14-.47,2.44-.71,3.9-.71,3.66,0,5.5.6,5.5,1.8,0,1.3-.13,2.36-.38,3.19-.26.83-.6,1.24-1.03,1.24-.18,0-.51-.06-.99-.19-.48-.13-.94-.19-1.37-.19-1.14,0-1.71.39-1.71,1.18,0,.2.05.41.15.65h3.93c.53,0,.8.87.8,2.6,0,.77-.11,1.46-.34,2.08-.23.62-.53.93-.9.93h-3.49Z" fill="#fff"/><path d="m84.21,2.77c1.3,0,2.32.19,3.06.58s1.11,1.08,1.11,2.08c0,1.77-1.38,2.66-4.14,2.66s-4.14-.89-4.14-2.66,1.37-2.66,4.11-2.66Zm4.02,7.77v14.56c0,.22-.57.39-1.7.52-1.13.13-2.29.19-3.49.19s-1.96-.05-2.3-.16-.52-.29-.52-.55v-14.03c0-.43.56-.86,1.67-1.29,1.11-.42,2.33-.64,3.65-.64,1.79,0,2.69.46,2.69,1.39Z" fill="#fff"/><path d="m100.27,4.13v20.97c0,.22-.56.39-1.68.52-1.12.13-2.28.19-3.47.19s-1.96-.05-2.3-.16-.52-.29-.52-.55V4.66c0-.43.56-.86,1.67-1.27,1.11-.41,2.31-.62,3.59-.62,1.81,0,2.72.45,2.72,1.36Z" fill="#fff"/><path d="m110.11,19.14c0,1.28.61,1.92,1.83,1.92.71,0,1.63-.24,2.78-.72,1.14-.48,1.74-.72,1.8-.72.37,0,.87.56,1.48,1.68s.92,1.95.92,2.48c0,.77-.79,1.35-2.36,1.74-1.58.39-3.12.59-4.62.59s-2.77-.12-3.78-.35c-1.02-.24-1.84-.54-2.48-.9-.64-.36-1.2-.81-1.68-1.34-.48-.53-.84-1.04-1.08-1.52-.24-.48-.42-1.02-.56-1.61-.2-.87-.3-1.76-.3-2.69,0-3.58.94-6.06,2.81-7.42.93-.69,1.96-1.17,3.1-1.45,1.14-.28,2.49-.41,4.05-.41,4.98,0,7.47,1.73,7.47,5.2,0,3.68-2.8,5.52-8.39,5.52h-.97Zm-.06-4.31v1.95c.57,0,1.04-.23,1.4-.68.36-.45.55-1,.55-1.65,0-1.18-.31-1.77-.92-1.77-.69,0-1.03.72-1.03,2.16Z" fill="#fff"/></g></g></g></svg>