<?xml version="1.0" encoding="utf-8"?>
<!-- Generator: Adobe Illustrator 27.1.1, SVG Export Plug-In . SVG Version: 6.00 Build 0)  -->
<svg version="1.1" id="Calque_1" xmlns="http://www.w3.org/2000/svg" xmlns:xlink="http://www.w3.org/1999/xlink" x="0px" y="0px"
     viewBox="0 0 128.1 128.1" enable-background="new 0 0 128.1 128.1" xml:space="preserve">
<path fill="#9D9BBE" fill-opacity="0.6" d="M64,128.1c-35.3,0-64-28.7-64-64s28.7-64,64-64s64,28.7,64,64S99.3,128.1,64,128.1z
     M64,5.4C31.7,5.4,5.3,31.8,5.3,64.1s26.3,58.7,58.7,58.7s58.7-26.3,58.7-58.7S96.3,5.4,64,5.4z"/>
<path fill="#9D9BBE" d="M53.3,42.8c0-1.5-1.2-2.7-2.7-2.7s-2.7,1.2-2.7,2.7c0,4.4-3.6,8-8,8s-8-3.6-8-8c0-1.5-1.2-2.7-2.7-2.7
    c-1.4,0-2.6,1.2-2.6,2.7c0,7.3,5.9,13.3,13.3,13.3C47.3,56.1,53.2,50.1,53.3,42.8z"/>
<path fill="#9D9BBE" d="M98.6,40.1c-1.5,0-2.7,1.2-2.7,2.7c0,4.4-3.6,8-8,8s-8-3.6-8-8c0-1.5-1.2-2.7-2.7-2.7
    c-1.4,0-2.6,1.2-2.6,2.7c0,7.3,5.9,13.3,13.3,13.3s13.3-6,13.4-13.3C101.3,41.3,100.1,40.1,98.6,40.1z"/>
<path fill="#9D9BBE" d="M95.2,103c-1.4,0-2.5-1.1-2.5-2.5c0-15.8-12.9-28.7-28.7-28.7s-28.7,12.9-28.7,28.7c0,1.4-1.1,2.5-2.5,2.5
    s-2.5-1.1-2.5-2.5C30.3,82,45.4,66.9,64,66.9c18.6,0,33.7,15.1,33.7,33.7C97.7,101.9,96.5,103,95.2,103z"/>
<path fill="#9D9BBE" d="M64.1,5.3c32.4,0,58.8,26.4,58.8,58.8s-26.4,58.8-58.8,58.8S5.2,96.5,5.2,64.1S31.6,5.3,64.1,5.3 M64.1,0.3
    C28.8,0.3,0.2,28.8,0.2,64.1s28.6,63.8,63.8,63.8s63.8-28.6,63.8-63.8S99.3,0.3,64.1,0.3L64.1,0.3z"/>
</svg>