<?xml version="1.0" encoding="UTF-8"?><svg id="Calque_2" xmlns="http://www.w3.org/2000/svg" viewBox="0 0 118.16 30.72"><g id="Calque_1-2"><g id="Search"><g id="text"><g><path d="m116.82,10.7c-.81-1.47-2.55-3.21-6.22-3.21-.69,0-1.36.06-2.02.19v-1.82c0-.77-.25-1.51-.71-2.14-1.36-1.87-3.91-1.87-4.74-1.87-1.58,0-3.11.26-4.55.79-.88.32-3.54,1.28-3.54,3.84v1.86c-.08-.04-.16-.08-.25-.12-1.25-.5-3.09-.73-5.79-.73-1.76,0-3.52.4-5.24,1.2-1.11.51-2.1,1.18-2.97,1.99-.26-.81-.76-1.53-1.47-2.09-.94-.74-2.22-1.1-3.92-1.1-1.47,0-2.94.36-4.37,1.08-.04.02-.08.04-.12.06-.73-.5-1.78-.87-3.29-.87-1.63,0-3.18.28-4.59.84-.63.25-2.24.89-2.99,2.23-.02-.03-.04-.05-.06-.08-.65-.79-1.44-1.43-2.36-1.89-.8-.41-1.74-.73-2.89-.99-1.12-.25-2.39-.38-3.87-.38s-3.03.2-4.58.61c-1.58.41-2.81.87-3.76,1.41-.42.24-1.28.73-1.87,1.54-1.31-1.9-3.89-3.56-8.94-3.56-1.77,0-3.35.16-4.7.49-1.51.36-2.89,1.01-4.11,1.92-.44.32-.84.7-1.21,1.1-.26-.76-.85-1.64-2.17-2.32-.5-.27-1.11-.5-1.85-.69-.68-.18-1.53-.31-2.6-.42-1.01-.1-2.21-.15-3.68-.15-1.63,0-3.14.21-4.49.62-1.44.44-2.53.97-3.33,1.6-.88.7-1.57,1.6-2.03,2.68-.41.94-.63,1.68-.7,2.34-.05.47-.07,1.09-.07,1.95,0,1.26.34,2.44,1,3.52.04.07.08.13.12.19-.48.64-.78,1.33-.95,1.72-.63,1.45-.94,2.74-.94,3.94,0,1.52.95,2.7,2.82,3.51,1.91.8,4.61,1.18,8.28,1.18,5.81,0,8.58-2.04,9.88-4.26.2.26.4.52.64.78.68.75,1.47,1.38,2.37,1.89.88.5,1.93.89,3.22,1.19,1.23.29,2.67.43,4.41.43s3.51-.23,5.3-.67c1.98-.49,3.1-1.32,3.72-2.17.25.32.52.62.81.87l.02.02.02.02c1.53,1.26,3.54,1.91,5.99,1.91,1.35,0,2.55-.26,3.56-.76.47.23.9.31,1.13.36.38.07.95.14,2.54.14,1.14,0,2.31-.07,3.47-.21,1.1-.13,1.97-.41,2.62-.81.37.32.82.58,1.34.74.66.2,1.57.28,3.13.28,1.29,0,2.56-.07,3.77-.21,1.02-.12,4.12-.47,4.12-3.27v-6.79c.17.04.37.09.58.15,1.65.47,2.16.55,2.62.55.31,0,.78-.05,1.3-.26.17,2.11.67,3.95,1.54,5.44.54.9,1.21,1.67,2.01,2.3.73.58,1.42,1.02,2.1,1.33,1.5.69,3.35,1.02,5.66,1.02s4.03-.27,5.47-.82c.53-.2,1.01-.47,1.43-.77.39.45.91.8,1.53,1.02.54.19,1.29.31,3.17.31,1.3,0,2.58-.07,3.82-.21.42-.05,1.18-.13,1.94-.4.21.12.43.22.67.3.54.19,1.29.31,3.16.31,1.29,0,2.57-.07,3.82-.21,1.04-.12,4.19-.47,4.19-3.27v-9.1c0-3.18-.44-5.52-1.34-7.15ZM11.1,27.92c-3.27,0-5.66-.31-7.18-.95-.77-.33-1.15-.66-1.15-.97,0-.81.24-1.75.71-2.84.47-1.08.89-1.62,1.24-1.62.2,0,.86.22,1.99.65,1.13.43,2.09.65,2.87.65s1.29-.05,1.54-.15c.25-.1.37-.29.37-.58s-.2-.51-.59-.68c-.39-.17-.89-.28-1.48-.34-.59-.06-1.23-.18-1.91-.36-.68-.18-1.31-.4-1.91-.68s-1.08-.73-1.48-1.37-.59-1.33-.59-2.07.02-1.29.06-1.65c.04-.36.2-.88.49-1.54.29-.66.69-1.2,1.21-1.61.52-.41,1.33-.79,2.42-1.12,1.09-.33,2.32-.5,3.68-.5s2.5.04,3.41.13c.92.09,1.63.2,2.16.34.52.14.95.3,1.29.47.57.29.86.62.86.97,0,.77-.28,1.65-.83,2.66-.55,1-.99,1.51-1.31,1.51s-1.03-.17-2.11-.52c-1.08-.34-1.88-.52-2.39-.52-.83,0-1.24.24-1.24.71,0,.3.28.52.84.66.56.15,1.24.3,2.02.46.79.16,1.58.38,2.38.66.8.29,1.48.8,2.04,1.55.22.29.38.62.51.97.04.83.13,1.65.3,2.45-.27,3.47-3,5.21-8.22,5.21Zm25.15-.56c-1.58.39-3.12.59-4.62.59s-2.77-.12-3.78-.36c-1.01-.24-1.84-.54-2.48-.9-.64-.36-1.2-.81-1.68-1.34-.48-.53-.84-1.04-1.08-1.52-.2-.42-.37-.88-.5-1.38,0-.11,0-.22,0-.32,0-.89-.12-1.71-.36-2.47,0-.04,0-.08,0-.13,0-3.58.94-6.06,2.81-7.42.93-.69,1.96-1.17,3.1-1.45,1.14-.27,2.49-.41,4.05-.41,4.98,0,7.47,1.73,7.47,5.2,0,3.68-2.8,5.52-8.39,5.52h-.97c0,1.28.61,1.92,1.83,1.92.71,0,1.63-.24,2.78-.72,1.14-.48,1.74-.72,1.8-.72.37,0,.87.56,1.48,1.68.61,1.12.92,1.95.92,2.48,0,.77-.79,1.35-2.36,1.74Zm23.17-.41c0,.22-.53.39-1.58.52-1.05.13-2.1.19-3.13.19s-1.7-.03-2.01-.09c-.31-.06-.49-.13-.55-.21-.06-.08-.11-.22-.15-.41l-.24-1.68h-.24c-.49,1.77-1.84,2.66-4.05,2.66-1.79,0-3.2-.42-4.22-1.27-.41-.35-.77-.88-1.08-1.57-.31-.69-.46-1.5-.46-2.42s.22-1.73.66-2.42c.44-.69.98-1.22,1.61-1.59s1.37-.68,2.22-.92c1.28-.33,2.69-.5,4.22-.5h.97c0-.81-.28-1.38-.83-1.71-.24-.14-.6-.21-1.08-.21s-1.06.13-1.74.38c-.68.26-1.25.52-1.7.78-.45.27-.76.4-.92.4-.35,0-.84-.47-1.45-1.4-.61-.93-.92-1.79-.92-2.55,0-.26.36-.59,1.09-1,.73-.41,1.76-.79,3.09-1.14,1.33-.34,2.62-.52,3.88-.52s2.35.1,3.26.31c.92.21,1.66.46,2.25.75.58.3,1.07.69,1.48,1.18.4.49.71.94.92,1.33.21.39.36.91.46,1.54.14.73.21,1.62.21,2.69v8.89Zm16.93-8.86c-.2,0-.82-.15-1.86-.44-1.04-.3-1.91-.44-2.58-.44s-1.1.1-1.27.3c-.17.2-.25.47-.25.83v8.63c0,.22-.56.39-1.67.52-1.11.13-2.27.19-3.46.19s-1.96-.05-2.32-.16c-.35-.11-.53-.29-.53-.55v-14.56c0-.37.55-.78,1.64-1.21,1.09-.43,2.28-.65,3.57-.65s2.01.35,2.17,1.06l.3,1.36h.21c.28-.75.93-1.38,1.98-1.91,1.04-.52,2.09-.78,3.13-.78s1.78.17,2.2.5c.42.33.64.76.64,1.28s-.04,1.19-.12,1.99c-.08.81-.27,1.68-.58,2.63-.31.95-.7,1.42-1.2,1.42Zm17.08,9.2c-1.1.42-2.59.64-4.48.64s-3.38-.26-4.5-.77c-.47-.22-.98-.54-1.52-.97-.54-.43-.99-.95-1.34-1.54-.83-1.42-1.24-3.27-1.24-5.55,0-1.42.23-2.68.68-3.8.45-1.11,1-1.97,1.65-2.59.65-.61,1.4-1.11,2.24-1.51,1.36-.63,2.72-.94,4.08-.94,2.28,0,3.87.18,4.77.53.7.28,1.12.71,1.27,1.29v1.51c-.07.55-.19,1.12-.38,1.71-.3.95-.7,1.43-1.2,1.43-.16,0-.63-.17-1.43-.5-.8-.33-1.49-.5-2.07-.5s-1.02.23-1.33.69-.46,1.36-.46,2.69.14,2.23.41,2.72c.28.48.7.72,1.29.72s1.31-.2,2.17-.59c.87-.39,1.35-.59,1.45-.59.38,0,.73.44,1.08,1.33.25.64.4,1.22.47,1.76v.92c-.11.89-.63,1.54-1.61,1.92Zm-1.73-8.21c-.22.09-.47.21-.75.33,0-.1,0-.2,0-.31,0-.12,0-.23,0-.33,0,0,0,0,0,0,.28.12.52.22.74.3Zm23.69,7.87c0,.22-.58.39-1.73.52s-2.32.19-3.52.19-1.95-.05-2.26-.16c-.32-.11-.47-.29-.47-.55v-8.21c0-1.48-.06-2.55-.18-3.22-.12-.67-.4-1-.86-1-.39,0-.59.27-.59.8v11.64c0,.22-.57.39-1.71.52-1.14.13-2.31.19-3.52.19s-1.96-.05-2.27-.16c-.32-.11-.47-.29-.47-.55v-1.27c.02-.2.04-.41.04-.62,0-.26-.01-.53-.04-.8v-10.52c.04-.39.07-.77.07-1.15,0-.28-.03-.56-.07-.82v-5.29c0-.41.57-.83,1.71-1.24s2.34-.62,3.6-.62,2.16.25,2.51.74c.12.16.18.33.18.5v4.34l-.32,2.04h.21c.28-.41.71-.78,1.3-1.09,1.1-.59,2.3-.89,3.6-.89,1.87,0,3.14.6,3.8,1.79.66,1.19.99,3.13.99,5.8v9.1Z" fill="#d2b2b2"/><path d="m116.82,8.86c-.81-1.47-2.55-3.21-6.22-3.21-.69,0-1.36.06-2.02.19v-1.82c0-.77-.25-1.51-.71-2.14C106.51,0,103.96,0,103.13,0,101.55,0,100.02.26,98.58.79c-.88.32-3.54,1.28-3.54,3.84v1.86c-.08-.04-.16-.08-.25-.12-1.25-.5-3.09-.73-5.79-.73-1.76,0-3.52.4-5.24,1.2-1.11.51-2.1,1.18-2.97,1.99-.26-.81-.76-1.53-1.47-2.09-.94-.74-2.22-1.1-3.92-1.1-1.47,0-2.94.36-4.37,1.08-.04.02-.08.04-.12.06-.73-.5-1.78-.87-3.29-.87-1.63,0-3.18.28-4.59.84-.63.25-2.24.89-2.99,2.23-.02-.03-.04-.05-.06-.08-.65-.79-1.44-1.43-2.36-1.89-.8-.41-1.74-.73-2.89-.99-1.12-.25-2.39-.38-3.87-.38s-3.03.2-4.58.61c-1.58.41-2.81.87-3.76,1.41-.42.24-1.28.73-1.87,1.54-1.31-1.9-3.89-3.56-8.94-3.56-1.77,0-3.35.16-4.7.49-1.51.36-2.89,1.01-4.11,1.92-.44.32-.84.7-1.21,1.1-.26-.76-.85-1.64-2.17-2.32-.5-.27-1.11-.5-1.85-.69-.68-.18-1.53-.31-2.6-.42-1.01-.1-2.21-.15-3.68-.15-1.63,0-3.14.21-4.49.62-1.44.44-2.53.97-3.33,1.6-.88.7-1.57,1.6-2.03,2.68-.41.94-.63,1.68-.7,2.34-.05.47-.07,1.09-.07,1.95,0,1.26.34,2.44,1,3.52.04.07.08.13.12.19-.48.64-.78,1.33-.95,1.72-.63,1.45-.94,2.74-.94,3.94,0,1.52.95,2.7,2.82,3.51,1.91.8,4.61,1.18,8.28,1.18,5.81,0,8.58-2.04,9.88-4.26.2.26.4.52.64.78.68.75,1.47,1.38,2.37,1.89.88.5,1.93.89,3.22,1.19,1.23.29,2.67.43,4.41.43s3.51-.23,5.3-.67c1.98-.49,3.1-1.32,3.72-2.17.25.32.52.62.81.87l.02.02.02.02c1.53,1.26,3.54,1.91,5.99,1.91,1.35,0,2.55-.26,3.56-.76.47.23.9.31,1.13.36.38.07.95.14,2.54.14,1.14,0,2.31-.07,3.47-.21,1.1-.13,1.97-.41,2.62-.81.37.32.82.58,1.34.74.66.2,1.57.28,3.13.28,1.29,0,2.56-.07,3.77-.21,1.02-.12,4.12-.47,4.12-3.27v-6.79c.17.04.37.09.58.15,1.65.47,2.16.55,2.62.55.31,0,.78-.05,1.3-.26.17,2.11.67,3.95,1.54,5.44.54.9,1.21,1.67,2.01,2.3.73.58,1.42,1.02,2.1,1.33,1.5.69,3.35,1.02,5.66,1.02s4.03-.27,5.47-.82c.53-.2,1.01-.47,1.43-.77.39.45.91.8,1.53,1.02.54.19,1.29.31,3.17.31,1.3,0,2.58-.07,3.82-.21.42-.05,1.18-.13,1.94-.4.21.12.43.22.67.3.54.19,1.29.31,3.16.31,1.29,0,2.57-.07,3.82-.21,1.04-.12,4.19-.47,4.19-3.27v-9.1c0-3.18-.44-5.52-1.34-7.15ZM11.1,26.08c-3.27,0-5.66-.31-7.18-.95-.77-.33-1.15-.66-1.15-.97,0-.81.24-1.75.71-2.84.47-1.08.89-1.62,1.24-1.62.2,0,.86.22,1.99.65,1.13.43,2.09.65,2.87.65s1.29-.05,1.54-.15c.25-.1.37-.29.37-.58s-.2-.51-.59-.68c-.39-.17-.89-.28-1.48-.34-.59-.06-1.23-.18-1.91-.36-.68-.18-1.31-.4-1.91-.68s-1.08-.73-1.48-1.37-.59-1.33-.59-2.07.02-1.29.06-1.65c.04-.36.2-.88.49-1.54.29-.66.69-1.2,1.21-1.61.52-.41,1.33-.79,2.42-1.12,1.09-.33,2.32-.5,3.68-.5s2.5.04,3.41.13c.92.09,1.63.2,2.16.34.52.14.95.3,1.29.47.57.29.86.62.86.97,0,.77-.28,1.65-.83,2.66-.55,1-.99,1.51-1.31,1.51s-1.03-.17-2.11-.52c-1.08-.34-1.88-.52-2.39-.52-.83,0-1.24.24-1.24.71,0,.3.28.52.84.66.56.15,1.24.3,2.02.46.79.16,1.58.38,2.38.66.8.29,1.48.8,2.04,1.55.22.29.38.62.51.97.04.83.13,1.65.3,2.45-.27,3.47-3,5.21-8.22,5.21Zm25.15-.56c-1.58.39-3.12.59-4.62.59s-2.77-.12-3.78-.36c-1.01-.24-1.84-.54-2.48-.9-.64-.36-1.2-.81-1.68-1.34-.48-.53-.84-1.04-1.08-1.52-.2-.42-.37-.88-.5-1.38,0-.11,0-.22,0-.32,0-.89-.12-1.71-.36-2.47,0-.04,0-.08,0-.13,0-3.58.94-6.06,2.81-7.42.93-.69,1.96-1.17,3.1-1.45,1.14-.27,2.49-.41,4.05-.41,4.98,0,7.47,1.73,7.47,5.2,0,3.68-2.8,5.52-8.39,5.52h-.97c0,1.28.61,1.92,1.83,1.92.71,0,1.63-.24,2.78-.72,1.14-.48,1.74-.72,1.8-.72.37,0,.87.56,1.48,1.68.61,1.12.92,1.95.92,2.48,0,.77-.79,1.35-2.36,1.74Zm23.17-.41c0,.22-.53.39-1.58.52-1.05.13-2.1.19-3.13.19s-1.7-.03-2.01-.09c-.31-.06-.49-.13-.55-.21-.06-.08-.11-.22-.15-.41l-.24-1.68h-.24c-.49,1.77-1.84,2.66-4.05,2.66-1.79,0-3.2-.42-4.22-1.27-.41-.35-.77-.88-1.08-1.57-.31-.69-.46-1.5-.46-2.42s.22-1.73.66-2.42c.44-.69.98-1.22,1.61-1.59s1.37-.68,2.22-.92c1.28-.33,2.69-.5,4.22-.5h.97c0-.81-.28-1.38-.83-1.71-.24-.14-.6-.21-1.08-.21s-1.06.13-1.74.38c-.68.26-1.25.52-1.7.78-.45.27-.76.4-.92.4-.35,0-.84-.47-1.45-1.4-.61-.93-.92-1.79-.92-2.55,0-.26.36-.59,1.09-1,.73-.41,1.76-.79,3.09-1.14,1.33-.34,2.62-.52,3.88-.52s2.35.1,3.26.31c.92.21,1.66.46,2.25.75.58.3,1.07.69,1.48,1.18.4.49.71.94.92,1.33.21.39.36.91.46,1.54.14.73.21,1.62.21,2.69v8.89Zm16.93-8.86c-.2,0-.82-.15-1.86-.44-1.04-.3-1.91-.44-2.58-.44s-1.1.1-1.27.3c-.17.2-.25.47-.25.83v8.63c0,.22-.56.39-1.67.52-1.11.13-2.27.19-3.46.19s-1.96-.05-2.32-.16c-.35-.11-.53-.29-.53-.55v-14.56c0-.37.55-.78,1.64-1.21,1.09-.43,2.28-.65,3.57-.65s2.01.35,2.17,1.06l.3,1.36h.21c.28-.75.93-1.38,1.98-1.91,1.04-.52,2.09-.78,3.13-.78s1.78.17,2.2.5c.42.33.64.76.64,1.28s-.04,1.19-.12,1.99c-.08.81-.27,1.68-.58,2.63-.31.95-.7,1.42-1.2,1.42Zm17.08,9.2c-1.1.42-2.59.64-4.48.64s-3.38-.26-4.5-.77c-.47-.22-.98-.54-1.52-.97-.54-.43-.99-.95-1.34-1.54-.83-1.42-1.24-3.27-1.24-5.55,0-1.42.23-2.68.68-3.8.45-1.11,1-1.97,1.65-2.59.65-.61,1.4-1.11,2.24-1.51,1.36-.63,2.72-.94,4.08-.94,2.28,0,3.87.18,4.77.53.7.28,1.12.71,1.27,1.29v1.51c-.07.55-.19,1.12-.38,1.71-.3.95-.7,1.43-1.2,1.43-.16,0-.63-.17-1.43-.5-.8-.33-1.49-.5-2.07-.5s-1.02.23-1.33.69-.46,1.36-.46,2.69.14,2.23.41,2.72c.28.48.7.72,1.29.72s1.31-.2,2.17-.59c.87-.39,1.35-.59,1.45-.59.38,0,.73.44,1.08,1.33.25.64.4,1.22.47,1.76v.92c-.11.89-.63,1.54-1.61,1.92Zm-1.73-8.21c-.22.09-.47.21-.75.33,0-.1,0-.2,0-.31,0-.12,0-.23,0-.33,0,0,0,0,0,0,.28.12.52.22.74.3Zm23.69,7.87c0,.22-.58.39-1.73.52s-2.32.19-3.52.19-1.95-.05-2.26-.16c-.32-.11-.47-.29-.47-.55v-8.21c0-1.48-.06-2.55-.18-3.22-.12-.67-.4-1-.86-1-.39,0-.59.27-.59.8v11.64c0,.22-.57.39-1.71.52-1.14.13-2.31.19-3.52.19s-1.96-.05-2.27-.16c-.32-.11-.47-.29-.47-.55v-1.27c.02-.2.04-.41.04-.62,0-.26-.01-.53-.04-.8v-10.52c.04-.39.07-.77.07-1.15,0-.28-.03-.56-.07-.82v-5.29c0-.41.57-.83,1.71-1.24s2.34-.62,3.6-.62,2.16.25,2.51.74c.12.16.18.33.18.5v4.34l-.32,2.04h.21c.28-.41.71-.78,1.3-1.09,1.1-.59,2.3-.89,3.6-.89,1.87,0,3.14.6,3.8,1.79.66,1.19.99,3.13.99,5.8v9.1Z" fill="#f1d3de"/><path d="m50.2,18.37c-.32.43-.47.93-.47,1.48,0,1.3.3,1.95.89,1.95.26,0,.46-.06.61-.19s.22-.27.22-.43v-3.46c-.51,0-.93.22-1.24.65Z" fill="#f1d3de"/><path d="m31.15,16.09c.36-.45.55-1,.55-1.65,0-1.18-.31-1.77-.92-1.77-.69,0-1.03.72-1.03,2.16v1.95c.57,0,1.04-.23,1.4-.68Z" fill="#f1d3de"/></g><path d="m107.41,25.1v-8.21c0-1.48-.06-2.55-.18-3.22-.12-.67-.4-1-.86-1-.39,0-.59.27-.59.8v11.64c0,.22-.57.39-1.71.52-1.14.13-2.31.19-3.52.19s-1.96-.05-2.27-.16c-.32-.11-.47-.29-.47-.55V4.63c0-.41.57-.83,1.71-1.24s2.34-.62,3.6-.62,2.16.25,2.51.74c.12.16.18.33.18.5v4.34l-.32,2.04h.21c.28-.41.71-.78,1.3-1.09,1.1-.59,2.3-.89,3.6-.89,1.87,0,3.14.6,3.8,1.79.66,1.19.99,3.13.99,5.8v9.1c0,.22-.58.39-1.73.52s-2.32.19-3.52.19-1.95-.05-2.26-.16c-.32-.11-.47-.29-.47-.55Z" fill="#fff"/><path d="m84.45,25.31c-.47-.22-.98-.54-1.52-.97-.54-.43-.99-.95-1.34-1.54-.83-1.42-1.24-3.27-1.24-5.55,0-1.42.23-2.68.68-3.8.45-1.11,1-1.97,1.65-2.59.65-.61,1.4-1.11,2.24-1.51,1.36-.63,2.72-.94,4.08-.94,2.28,0,3.87.18,4.77.53.9.36,1.34.96,1.34,1.8s-.15,1.75-.46,2.7c-.3.95-.7,1.43-1.2,1.43-.16,0-.63-.17-1.43-.5-.8-.33-1.49-.5-2.07-.5s-1.02.23-1.33.69-.46,1.36-.46,2.69.14,2.23.41,2.72c.28.48.7.72,1.29.72s1.31-.2,2.17-.59c.87-.39,1.35-.59,1.45-.59.38,0,.73.44,1.08,1.33s.52,1.67.52,2.36c0,1.06-.55,1.81-1.66,2.23-1.1.42-2.59.64-4.48.64s-3.38-.26-4.5-.77Z" fill="#fff"/><path d="m70.38,16.48v8.63c0,.22-.56.39-1.67.52-1.11.13-2.27.19-3.46.19s-1.96-.05-2.32-.16c-.35-.11-.53-.29-.53-.55v-14.56c0-.37.55-.78,1.64-1.21,1.09-.43,2.28-.65,3.57-.65s2.01.35,2.17,1.06l.3,1.36h.21c.28-.75.93-1.38,1.98-1.91,1.04-.52,2.09-.78,3.13-.78s1.78.17,2.2.5c.42.33.64.76.64,1.28s-.04,1.19-.12,1.99c-.08.81-.27,1.68-.58,2.63-.31.95-.7,1.42-1.2,1.42-.2,0-.82-.15-1.86-.44-1.04-.3-1.91-.44-2.58-.44s-1.1.1-1.27.3c-.17.2-.25.47-.25.83Z" fill="#fff"/><path d="m47.48,26.08c-1.79,0-3.2-.42-4.22-1.27-.41-.35-.77-.88-1.08-1.57-.31-.69-.46-1.5-.46-2.42s.22-1.73.66-2.42c.44-.69.98-1.22,1.61-1.59s1.37-.68,2.22-.92c1.28-.33,2.69-.5,4.22-.5h.97c0-.81-.28-1.38-.83-1.71-.24-.14-.6-.21-1.08-.21s-1.06.13-1.74.38c-.68.26-1.25.52-1.7.78-.45.27-.76.4-.92.4-.35,0-.84-.47-1.45-1.4-.61-.93-.92-1.79-.92-2.55,0-.26.36-.59,1.09-1,.73-.41,1.76-.79,3.09-1.14,1.33-.34,2.62-.52,3.88-.52s2.35.1,3.26.31c.92.21,1.66.46,2.25.75.58.3,1.07.69,1.48,1.18.4.49.71.94.92,1.33.21.39.36.91.46,1.54.14.73.21,1.62.21,2.69v8.89c0,.22-.53.39-1.58.52-1.05.13-2.1.19-3.13.19s-1.7-.03-2.01-.09c-.31-.06-.49-.13-.55-.21-.06-.08-.11-.22-.15-.41l-.24-1.68h-.24c-.49,1.77-1.84,2.66-4.05,2.66Zm3.96-4.9v-3.46c-.51,0-.93.22-1.24.65-.32.43-.47.93-.47,1.48,0,1.3.3,1.95.89,1.95.26,0,.46-.06.61-.19s.22-.27.22-.43Z" fill="#fff"/><path d="m29.81,19.13c0,1.28.61,1.92,1.83,1.92.71,0,1.63-.24,2.78-.72,1.14-.48,1.74-.72,1.8-.72.37,0,.87.56,1.48,1.68.61,1.12.92,1.95.92,2.48,0,.77-.79,1.35-2.36,1.74-1.58.39-3.12.59-4.62.59s-2.77-.12-3.78-.36c-1.01-.24-1.84-.54-2.48-.9-.64-.36-1.2-.81-1.68-1.34-.48-.53-.84-1.04-1.08-1.52s-.42-1.02-.56-1.61c-.2-.87-.3-1.76-.3-2.69,0-3.58.94-6.06,2.81-7.42.93-.69,1.96-1.17,3.1-1.45,1.14-.27,2.49-.41,4.05-.41,4.98,0,7.47,1.73,7.47,5.2,0,3.68-2.8,5.52-8.39,5.52h-.97Zm-.06-4.31v1.95c.57,0,1.04-.23,1.4-.68.36-.45.55-1,.55-1.65,0-1.18-.31-1.77-.92-1.77-.69,0-1.03.72-1.03,2.16Z" fill="#fff"/><path d="m11.1,26.08c-3.27,0-5.66-.31-7.18-.95-.77-.33-1.15-.66-1.15-.97,0-.81.24-1.75.71-2.84.47-1.08.89-1.62,1.24-1.62.2,0,.86.22,1.99.65,1.13.43,2.09.65,2.87.65s1.29-.05,1.54-.15c.25-.1.37-.29.37-.58s-.2-.51-.59-.68c-.39-.17-.89-.28-1.48-.34-.59-.06-1.23-.18-1.91-.36-.68-.18-1.31-.4-1.91-.68s-1.08-.73-1.48-1.37-.59-1.33-.59-2.07.02-1.29.06-1.65c.04-.36.2-.88.49-1.54.29-.66.69-1.2,1.21-1.61.52-.41,1.33-.79,2.42-1.12,1.09-.33,2.32-.5,3.68-.5s2.5.04,3.41.13c.92.09,1.63.2,2.16.34.52.14.95.3,1.29.47.57.29.86.62.86.97,0,.77-.28,1.65-.83,2.66-.55,1-.99,1.51-1.31,1.51s-1.03-.17-2.11-.52c-1.08-.34-1.88-.52-2.39-.52-.83,0-1.24.24-1.24.71,0,.3.28.52.84.66.56.15,1.24.3,2.02.46.79.16,1.58.38,2.38.66.8.29,1.48.8,2.04,1.55.56.75.84,1.69.84,2.84,0,3.86-2.75,5.79-8.24,5.79Z" fill="#fff"/></g></g></g></svg>