<?xml version="1.0" encoding="utf-8"?>
<!-- Generator: Adobe Illustrator 27.1.1, SVG Export Plug-In . SVG Version: 6.00 Build 0)  -->
<svg version="1.1" id="Calque_1" xmlns="http://www.w3.org/2000/svg" xmlns:xlink="http://www.w3.org/1999/xlink" x="0px" y="0px"
	 viewBox="0 0 128 128" style="enable-background:new 0 0 128 128;" xml:space="preserve">
<style type="text/css">
	.st0{fill:#C0A0A0;}
</style>
<path id="Fill-1" class="st0" d="M52.6,104.7c-28.7,0-52.3-23.3-52.3-52.3C0.2,23.6,23.6,0,52.6,0s52.3,23.3,52.3,52.3
	C104.6,81.3,81.3,104.7,52.6,104.7L52.6,104.7z M52.6,7.8C27.9,7.8,7.8,27.9,7.8,52.6s20.1,44.8,44.8,44.8s44.8-20.1,44.8-44.8
	C97.1,27.9,77,7.8,52.6,7.8L52.6,7.8z"/>
<polyline id="Fill-2" class="st0" points="122.3,128 85.8,91.8 91.7,85.9 128,122.4 122.3,128 "/>
</svg>
