<?xml version="1.0" encoding="UTF-8"?><svg id="Calque_2" xmlns="http://www.w3.org/2000/svg" viewBox="0 0 45.31 47.27"><g id="Calque_1-2"><g id="Search"><circle cx="22.64" cy="24.64" r="22.64" fill="#d2b2b2"/><circle cx="22.68" cy="22.64" r="22.64" fill="#f1d3de"/><path d="m28.45,26.23c2.45-3.56,2.45-8.22,0-11.78-3.25-4.74-9.71-5.93-14.45-2.68-4.74,3.25-5.93,9.71-2.68,14.45,3.25,4.74,9.71,5.93,14.45,2.68l5.05,5.09c.76.73,1.95.73,2.68,0,.73-.76.73-1.95,0-2.71l-5.05-5.05Zm-8.64.88c-3.66,0-6.62-2.96-6.62-6.62s2.96-6.62,6.62-6.62,6.62,2.96,6.62,6.62-2.96,6.62-6.62,6.62Z" fill="#fff"/></g></g></svg>