<?xml version="1.0" encoding="utf-8"?>
<!-- Generator: Adobe Illustrator 27.1.1, SVG Export Plug-In . SVG Version: 6.00 Build 0)  -->
<svg version="1.1" id="Calque_1" xmlns="http://www.w3.org/2000/svg" xmlns:xlink="http://www.w3.org/1999/xlink" x="0px" y="0px"
	 viewBox="0 0 128 128" style="enable-background:new 0 0 128 128;" xml:space="preserve">
<style type="text/css">
	.st0{fill:#9D9BBE;}
</style>
<path class="st0" d="M64,4.8C31.4,4.8,4.8,31.4,4.8,64s26.6,59.2,59.2,59.2s59.2-26.6,59.2-59.2S96.6,4.8,64,4.8z M92.2,92.2
	c-1.9,1.9-5,1.9-7,0L72,78.9c-12.4,8.5-29.3,5.4-37.8-7s-5.4-29.3,7-37.8s29.3-5.4,37.8,7c6.4,9.3,6.4,21.5,0,30.8l13.2,13.2
	C94.1,87.1,94.1,90.2,92.2,92.2L92.2,92.2z"/>
<circle class="st0" cx="56.6" cy="56.6" r="17.3"/>
</svg>
