<?xml version="1.0" encoding="UTF-8"?><svg id="Calque_2" xmlns="http://www.w3.org/2000/svg" viewBox="0 0 143.69 35.01"><g id="Calque_1-2"><g id="Settings"><g id="text"><g><path d="m31.15,16.09c.36-.45.55-1,.55-1.65,0-1.18-.31-1.77-.92-1.77-.69,0-1.03.72-1.03,2.16v1.95c.57,0,1.04-.23,1.4-.68Z" fill="#f1d3de"/><path d="m113.03,12.67c-.75,0-1.12,1.23-1.12,3.69,0,1.14.09,2.06.28,2.75.19.69.44,1.03.75,1.03.22,0,.39-.08.53-.24.14-.16.21-.33.21-.53v-6.09c-.08-.41-.3-.62-.65-.62Z" fill="#f1d3de"/><path d="m142.3,17.64c-.17-.23-.35-.44-.53-.64.22-.34.4-.65.52-.89.79-1.43,1.17-2.74,1.17-3.99,0-.83-.31-2.38-2.35-3.44-.5-.27-1.12-.5-1.85-.69-.68-.18-1.53-.31-2.6-.42-1.01-.1-2.21-.15-3.68-.15-1.63,0-3.14.21-4.49.62-1.44.44-2.53.97-3.33,1.6-.38.3-.72.65-1.02,1.02-.13-.37-.3-.74-.53-1.1l-.02-.03-.02-.03c-1.11-1.59-3.18-1.77-4.63-1.77-1.21,0-3.41,0-5.12.78-.4-.24-.86-.44-1.38-.62-.85-.29-1.83-.43-2.99-.43-1.25,0-2.44.26-3.55.78-1.14.53-2.04,1.23-2.69,2.07-.16.2-.31.41-.45.63-.06-.11-.11-.22-.17-.32-.85-1.44-2.65-3.16-6.42-3.16-.97,0-1.88.13-2.71.39-.57.19-1.11.42-1.6.69-.72-.47-1.72-.81-3.13-.81-1.58,0-3.11.27-4.54.79-.29.1-.77.28-1.29.56.27-.75.32-1.43.32-1.83,0-2.03-.95-3.68-2.6-4.54-1.15-.6-2.57-.89-4.34-.89-6.38,0-6.88,4.15-6.88,5.43,0,.14,0,.32.03.53-.05,0-.09-.02-.14-.03v-1.56c0-.96-.39-4.1-5.46-4.1-1.42,0-2.87.23-4.33.69-3.24,1.02-3.73,3.02-3.73,4.12v1.31c-.08.05-.15.11-.22.16-.47-.37-.99-.55-1.42-.62v-1.56c0-.96-.39-4.1-5.46-4.1-1.42,0-2.87.23-4.33.69-3.24,1.02-3.73,3.02-3.73,4.12v1.31c-.47.28-.94.72-1.34,1.39-1.52-1.23-3.89-2.13-7.6-2.13h-.19s-.38,0-.38,0c-.89,0-2.29.05-4.13.49-1.51.36-2.89,1.01-4.11,1.92-.44.32-.84.7-1.21,1.1-.26-.76-.85-1.64-2.17-2.32-.5-.27-1.11-.5-1.85-.69-.68-.18-1.53-.31-2.6-.42-1.01-.1-2.21-.15-3.68-.15-1.63,0-3.14.21-4.49.62-1.44.44-2.53.97-3.33,1.6-.88.7-1.57,1.6-2.03,2.68-.41.94-.63,1.68-.7,2.34-.05.47-.07,1.09-.07,1.95,0,1.26.34,2.44,1,3.52.04.07.08.13.12.19-.48.64-.78,1.33-.95,1.72-.63,1.45-.94,2.74-.94,3.94,0,1.52.95,2.7,2.82,3.51,1.91.8,4.61,1.18,8.28,1.18,5.81,0,8.58-2.04,9.88-4.26.2.26.4.52.64.78.68.75,1.47,1.38,2.37,1.89.88.5,1.93.89,3.22,1.19,1.23.29,2.67.43,4.41.43s3.51-.23,5.3-.67c3.88-.97,4.46-3.19,4.46-4.43,0-.09-.02-.18-.02-.27.56,1.57,1.44,2.78,2.66,3.6,1.06.7,2.18,1.17,3.36,1.4,1.02.21,2.22.31,3.68.31s3.14-.14,4.32-1.26c.97-.91,1.27-2.23,1.36-3.47.56,1.29,1.37,2.31,2.44,3.02,1.06.7,2.18,1.17,3.36,1.4,1.02.21,2.23.31,3.68.31s3.14-.14,4.32-1.26c.02-.02.04-.05.06-.07.38.35.85.63,1.4.8.65.21,1.56.29,3.13.29,1.29,0,2.57-.07,3.8-.21.59-.07,1.87-.21,2.85-.85.38.34.86.61,1.4.78.66.2,1.56.28,3.13.28,1.29,0,2.56-.07,3.77-.21.44-.05,1.26-.15,2.06-.46.26.16.54.28.84.38.65.21,1.56.29,3.13.29,1.29,0,2.56-.07,3.78-.21.64-.07,2.1-.24,3.1-1.04-.1.49-.16.91-.16,1.29,0,.77.28,2.22,2.15,3.27,1.6.87,4.04,1.27,7.71,1.27s6.4-.82,8.41-2.44c.89-.72,1.88-1.82,2.54-3.42.23.13.47.26.74.37,1.91.8,4.61,1.18,8.28,1.18,9.94,0,11.01-5.99,11.01-8.56,0-1.75-.47-3.26-1.4-4.5ZM11.1,27.92c-3.27,0-5.66-.31-7.18-.95-.77-.33-1.15-.66-1.15-.97,0-.81.24-1.75.71-2.84.47-1.08.89-1.62,1.24-1.62.2,0,.86.22,1.99.65,1.13.43,2.09.65,2.87.65s1.29-.05,1.54-.15c.25-.1.37-.29.37-.58s-.2-.51-.59-.68c-.39-.17-.89-.28-1.48-.34-.59-.06-1.23-.18-1.91-.36-.68-.18-1.31-.4-1.91-.68s-1.08-.73-1.48-1.37-.59-1.33-.59-2.07.02-1.29.06-1.65c.04-.36.2-.88.49-1.54.29-.66.69-1.2,1.21-1.61.52-.41,1.33-.79,2.42-1.12,1.09-.33,2.32-.5,3.68-.5s2.5.04,3.41.13c.92.09,1.63.2,2.16.34.52.14.95.3,1.29.47.57.29.86.62.86.97,0,.77-.28,1.65-.83,2.66-.55,1-.99,1.51-1.31,1.51s-1.03-.17-2.11-.52c-1.08-.34-1.88-.52-2.39-.52-.83,0-1.24.24-1.24.71,0,.3.28.52.84.66.56.15,1.24.3,2.02.46.79.16,1.58.38,2.38.66.8.29,1.48.8,2.04,1.55.22.29.38.62.51.97.04.83.13,1.65.3,2.45-.27,3.47-3,5.21-8.22,5.21Zm25.15-.56c-1.58.39-3.12.59-4.62.59s-2.77-.12-3.78-.36c-1.01-.24-1.84-.54-2.48-.9-.64-.36-1.2-.81-1.68-1.34-.48-.53-.84-1.04-1.08-1.52-.2-.42-.37-.88-.5-1.38,0-.11,0-.22,0-.32,0-.89-.12-1.71-.36-2.47,0-.04,0-.08,0-.13,0-3.58.94-6.06,2.81-7.42.93-.69,1.96-1.17,3.1-1.45,1.55-.37,2.73-.42,3.48-.42.23,0,.42,0,.57,0,3.38,0,5.61.8,6.7,2.39-.02.27-.04.54-.04.82,0,1.11.13,2.02.39,2.77.08.22.17.42.26.61-.66,2.75-3.4,4.12-8.23,4.12h-.97c0,1.28.61,1.92,1.83,1.92.71,0,1.63-.24,2.78-.72,1.14-.48,1.74-.72,1.8-.72.37,0,.87.56,1.48,1.68.61,1.12.92,1.95.92,2.48,0,.77-.79,1.35-2.36,1.74Zm3.88-5.55c-.11-.2-.25-.46-.43-.75.37-.35.67-.73.93-1.11v.67c0,.96.07,1.86.2,2.68-.19-.46-.41-.94-.71-1.49Zm13.35,5.58c-.35.33-1.16.5-2.42.5s-2.3-.08-3.13-.25c-.83-.17-1.62-.5-2.36-.99-1.44-.96-2.16-2.97-2.16-6.03v-4.61h-1.48s0,0,0,0c.01-.19.02-.38.02-.56,0-.83-.13-2.04-.67-3.27.06-.28.13-.55.23-.79.25-.6.57-.9.96-.9h.95v-3.57c0-.61.6-1.1,1.79-1.48,1.19-.37,2.36-.56,3.5-.56,1.79,0,2.69.44,2.69,1.33v4.28h2.19c.16,0,.29.08.4.22-.29.84-.45,1.76-.45,2.76,0,.81.07,1.52.21,2.13-.18.26-.38.41-.61.41h-1.74v5.41c0,.53.23.91.68,1.14.45.23.85.34,1.2.34s.56.17.64.5c.08.34.12.84.12,1.51,0,1.32-.18,2.15-.53,2.48Zm.67-7.15v-1.62c.32-.1.67-.27,1.01-.52.21.17.43.3.64.4v2.13c0,.23.02.43.02.65-.44-.5-1.01-.86-1.67-1.04Zm14.49,7.15c-.36.33-1.16.5-2.42.5s-2.3-.08-3.13-.25c-.83-.17-1.62-.5-2.36-.99-1.44-.96-2.16-2.97-2.16-6.03v-4.61h-1.48c-.14,0-.27-.11-.39-.31.27-.86.41-1.84.41-3,0-.7-.06-1.29-.16-1.81.2-.26.42-.41.68-.41h.95v-3.57c0-.61.6-1.1,1.79-1.48,1.19-.37,2.36-.56,3.5-.56,1.79,0,2.69.44,2.69,1.33v4.28h2.19c.51,0,.77.74.77,2.22,0,.97-.11,1.76-.34,2.38-.23.62-.52.93-.87.93h-1.74v5.41c0,.53.23.91.68,1.14.45.23.85.34,1.2.34s.56.17.63.5c.08.34.12.84.12,1.51,0,1.32-.18,2.15-.53,2.48Zm.67-8.77c.07-.02.15-.05.23-.09v1.78c-.08-.03-.15-.06-.23-.08v-1.62Zm11,8.32c0,.22-.57.39-1.7.52-1.13.13-2.29.19-3.49.19s-1.96-.05-2.3-.16-.52-.29-.52-.55v-14.03c0-.43.56-.86,1.67-1.29,1.11-.42,2.33-.63,3.65-.63,1.79,0,2.69.46,2.69,1.39v14.56Zm-3.99-17.02c-2.76,0-4.14-.89-4.14-2.66s1.37-2.66,4.11-2.66c1.3,0,2.32.19,3.06.58s1.11,1.08,1.11,2.08c0,1.77-1.38,2.66-4.14,2.66Zm23.26,17.53c-1.12.13-2.28.19-3.47.19s-1.96-.05-2.3-.16-.52-.29-.52-.55v-9.39c0-.89-.04-1.47-.1-1.74-.07-.28-.13-.52-.19-.74-.14-.37-.38-.56-.74-.56-.55,0-.83.27-.83.8v11.64c0,.22-.56.39-1.67.52-1.11.13-2.27.19-3.46.19s-1.96-.05-2.32-.16c-.36-.11-.53-.29-.53-.55v-14.56c0-.41.57-.83,1.7-1.24,1.13-.41,2.33-.62,3.59-.62s1.97.36,2.13,1.09l.27,1.3h.21c.57-1.14,1.56-1.94,2.95-2.39.57-.18,1.2-.27,1.89-.27,1.99,0,3.33.6,4.03,1.79.56.95.89,2.39,1,4.29-.02.31-.03.63-.03.95,0,.75.03,1.44.07,2.09v7.57c0,.22-.56.39-1.68.52Zm19.8,2.94c-1.52,1.22-3.74,1.83-6.68,1.83-3.11,0-5.23-.31-6.35-.92-.49-.28-.74-.56-.74-.86,0-.47.19-1.27.58-2.39s.74-1.68,1.08-1.68c.08,0,.35.07.83.21,1.5.39,2.71.59,3.65.59s1.57-.12,1.89-.36c.32-.24.49-.61.49-1.12v-1.71h-.24c-.08.1-.22.22-.41.37-.2.15-.68.35-1.46.61s-1.65.38-2.63.38-1.8-.15-2.47-.44c-.67-.3-1.19-.67-1.57-1.11-.37-.44-.67-1.04-.89-1.79-.21-.74-.35-1.66-.43-2.73v-1.43c0-.46-.01-.9-.03-1.33.1-1.9.55-3.42,1.4-4.49.37-.49.93-.91,1.67-1.26.74-.34,1.53-.52,2.38-.52s1.55.09,2.1.28c.55.19.96.41,1.24.66.55.55.87,1.03.94,1.45l.03.27h.24l.27-1.15c.2-.83,1.75-1.24,4.67-1.24,1.3,0,2.09.2,2.36.59.16.24.26.46.3.66.04.21.06.52.06.93v12.29c-.05.34-.07.68-.07,1.01,0,.05,0,.09.01.13-.2,1.81-.93,3.24-2.21,4.27Zm13.3-2.48c-3.27,0-5.66-.31-7.18-.95-.72-.31-1.09-.62-1.13-.91.02-.26.04-.52.04-.79.1-.63.31-1.33.65-2.11.47-1.08.89-1.62,1.24-1.62.2,0,.86.22,1.99.65,1.13.43,2.09.65,2.87.65s1.29-.05,1.54-.15c.25-.1.37-.29.37-.58s-.2-.51-.59-.68c-.39-.17-.89-.28-1.48-.34-.59-.06-1.23-.18-1.91-.36-.68-.18-1.31-.4-1.9-.68s-1.08-.73-1.48-1.37c-.39-.64-.59-1.33-.59-2.07s.02-1.29.06-1.65c.04-.36.2-.88.49-1.54.29-.66.69-1.2,1.21-1.61.52-.41,1.33-.79,2.42-1.12,1.09-.33,2.32-.5,3.68-.5s2.5.04,3.41.13c.92.09,1.63.2,2.16.34.52.14.95.3,1.29.47.57.29.86.62.86.97,0,.77-.28,1.65-.83,2.66-.55,1-.99,1.51-1.31,1.51s-1.03-.17-2.11-.52-1.88-.52-2.39-.52c-.83,0-1.24.24-1.24.71,0,.3.28.52.84.66.56.15,1.24.3,2.02.46s1.58.38,2.38.66c.8.29,1.48.8,2.04,1.55.56.75.84,1.69.84,2.84,0,3.86-2.75,5.79-8.24,5.79Z" fill="#d2b2b2"/><path d="m142.3,15.79c-.17-.23-.35-.44-.53-.64.22-.34.4-.65.52-.89.79-1.43,1.17-2.74,1.17-3.99,0-.83-.31-2.38-2.35-3.44-.5-.27-1.12-.5-1.85-.69-.68-.18-1.53-.31-2.6-.42-1.01-.1-2.21-.15-3.68-.15-1.63,0-3.14.21-4.49.62-1.44.44-2.53.97-3.33,1.6-.38.3-.72.65-1.02,1.02-.13-.37-.3-.74-.53-1.1l-.02-.03-.02-.03c-1.11-1.59-3.18-1.77-4.63-1.77-1.21,0-3.41,0-5.12.78-.4-.24-.86-.44-1.38-.62-.85-.29-1.83-.43-2.99-.43-1.25,0-2.44.26-3.55.78-1.14.53-2.04,1.23-2.69,2.07-.16.2-.31.41-.45.63-.06-.11-.11-.22-.17-.32-.85-1.44-2.65-3.16-6.42-3.16-.97,0-1.88.13-2.71.39-.57.19-1.11.42-1.6.69-.72-.47-1.72-.81-3.13-.81-1.58,0-3.11.27-4.54.79-.29.1-.77.28-1.29.56.27-.75.32-1.43.32-1.83,0-2.03-.95-3.68-2.6-4.54-1.15-.6-2.57-.89-4.34-.89-6.38,0-6.88,4.15-6.88,5.43,0,.14,0,.32.03.53-.05,0-.09-.02-.14-.03v-1.56c0-.96-.39-4.1-5.46-4.1-1.42,0-2.87.23-4.33.69-3.24,1.02-3.73,3.02-3.73,4.12v1.31c-.08.05-.15.11-.22.16-.47-.37-.99-.55-1.42-.62v-1.56c0-.96-.39-4.1-5.46-4.1-1.42,0-2.87.23-4.33.69-3.24,1.02-3.73,3.02-3.73,4.12v1.31c-.47.28-.94.72-1.34,1.39-1.52-1.23-3.89-2.13-7.6-2.13h-.19s-.38,0-.38,0c-.89,0-2.29.05-4.13.49-1.51.36-2.89,1.01-4.11,1.92-.44.32-.84.7-1.21,1.1-.26-.76-.85-1.64-2.17-2.32-.5-.27-1.11-.5-1.85-.69-.68-.18-1.53-.31-2.6-.42-1.01-.1-2.21-.15-3.68-.15-1.63,0-3.14.21-4.49.62-1.44.44-2.53.97-3.33,1.6-.88.7-1.57,1.6-2.03,2.68-.41.94-.63,1.68-.7,2.34-.05.47-.07,1.09-.07,1.95,0,1.26.34,2.44,1,3.52.04.07.08.13.12.19-.48.64-.78,1.33-.95,1.72-.63,1.45-.94,2.74-.94,3.94,0,1.52.95,2.7,2.82,3.51,1.91.8,4.61,1.18,8.28,1.18,5.81,0,8.58-2.04,9.88-4.26.2.26.4.52.64.78.68.75,1.47,1.38,2.37,1.89.88.5,1.93.89,3.22,1.19,1.23.29,2.67.43,4.41.43s3.51-.23,5.3-.67c3.88-.97,4.46-3.19,4.46-4.43,0-.09-.02-.18-.02-.27.56,1.57,1.44,2.78,2.66,3.6,1.06.7,2.18,1.17,3.36,1.4,1.02.21,2.22.31,3.68.31s3.14-.14,4.32-1.26c.97-.91,1.27-2.23,1.36-3.47.56,1.29,1.37,2.31,2.44,3.02,1.06.7,2.18,1.17,3.36,1.4,1.02.21,2.23.31,3.68.31s3.14-.14,4.32-1.26c.02-.02.04-.05.06-.07.38.35.85.63,1.4.8.65.21,1.56.29,3.13.29,1.29,0,2.57-.07,3.8-.21.59-.07,1.87-.21,2.85-.85.38.34.86.61,1.4.78.66.2,1.56.28,3.13.28,1.29,0,2.56-.07,3.77-.21.44-.05,1.26-.15,2.06-.46.26.16.54.28.84.38.65.21,1.56.29,3.13.29,1.29,0,2.56-.07,3.78-.21.64-.07,2.1-.24,3.1-1.04-.1.49-.16.91-.16,1.29,0,.77.28,2.22,2.15,3.27,1.6.87,4.04,1.27,7.71,1.27s6.4-.82,8.41-2.44c.89-.72,1.88-1.82,2.54-3.42.23.13.47.26.74.37,1.91.8,4.61,1.18,8.28,1.18,9.94,0,11.01-5.99,11.01-8.56,0-1.75-.47-3.26-1.4-4.5ZM11.1,26.08c-3.27,0-5.66-.31-7.18-.95-.77-.33-1.15-.66-1.15-.97,0-.81.24-1.75.71-2.84.47-1.08.89-1.62,1.24-1.62.2,0,.86.22,1.99.65,1.13.43,2.09.65,2.87.65s1.29-.05,1.54-.15c.25-.1.37-.29.37-.58s-.2-.51-.59-.68c-.39-.17-.89-.28-1.48-.34-.59-.06-1.23-.18-1.91-.36-.68-.18-1.31-.4-1.91-.68s-1.08-.73-1.48-1.37-.59-1.33-.59-2.07.02-1.29.06-1.65c.04-.36.2-.88.49-1.54.29-.66.69-1.2,1.21-1.61.52-.41,1.33-.79,2.42-1.12,1.09-.33,2.32-.5,3.68-.5s2.5.04,3.41.13c.92.09,1.63.2,2.16.34.52.14.95.3,1.29.47.57.29.86.62.86.97,0,.77-.28,1.65-.83,2.66-.55,1-.99,1.51-1.31,1.51s-1.03-.17-2.11-.52c-1.08-.34-1.88-.52-2.39-.52-.83,0-1.24.24-1.24.71,0,.3.28.52.84.66.56.15,1.24.3,2.02.46.79.16,1.58.38,2.38.66.8.29,1.48.8,2.04,1.55.22.29.38.62.51.97.04.83.13,1.65.3,2.45-.27,3.47-3,5.21-8.22,5.21Zm25.15-.56c-1.58.39-3.12.59-4.62.59s-2.77-.12-3.78-.36c-1.01-.24-1.84-.54-2.48-.9-.64-.36-1.2-.81-1.68-1.34-.48-.53-.84-1.04-1.08-1.52-.2-.42-.37-.88-.5-1.38,0-.11,0-.22,0-.32,0-.89-.12-1.71-.36-2.47,0-.04,0-.08,0-.13,0-3.58.94-6.06,2.81-7.42.93-.69,1.96-1.17,3.1-1.45,1.55-.37,2.73-.42,3.48-.42.23,0,.42,0,.57,0,3.38,0,5.61.8,6.7,2.39-.02.27-.04.54-.04.82,0,1.11.13,2.02.39,2.77.08.22.17.42.26.61-.66,2.75-3.4,4.12-8.23,4.12h-.97c0,1.28.61,1.92,1.83,1.92.71,0,1.63-.24,2.78-.72,1.14-.48,1.74-.72,1.8-.72.37,0,.87.56,1.48,1.68.61,1.12.92,1.95.92,2.48,0,.77-.79,1.35-2.36,1.74Zm3.88-5.55c-.11-.2-.25-.46-.43-.75.37-.35.67-.73.93-1.11v.67c0,.96.07,1.86.2,2.68-.19-.46-.41-.94-.71-1.49Zm13.35,5.58c-.35.33-1.16.5-2.42.5s-2.3-.08-3.13-.25c-.83-.17-1.62-.5-2.36-.99-1.44-.96-2.16-2.97-2.16-6.03v-4.61h-1.48s0,0,0,0c.01-.19.02-.38.02-.56,0-.83-.13-2.04-.67-3.27.06-.28.13-.55.23-.79.25-.6.57-.9.96-.9h.95v-3.57c0-.61.6-1.1,1.79-1.48,1.19-.37,2.36-.56,3.5-.56,1.79,0,2.69.44,2.69,1.33v4.28h2.19c.16,0,.29.08.4.22-.29.84-.45,1.76-.45,2.76,0,.81.07,1.52.21,2.13-.18.26-.38.41-.61.41h-1.74v5.41c0,.53.23.91.68,1.14.45.23.85.34,1.2.34s.56.17.64.5c.08.34.12.84.12,1.51,0,1.32-.18,2.15-.53,2.48Zm.67-7.15v-1.62c.32-.1.67-.27,1.01-.52.21.17.43.3.64.4v2.13c0,.23.02.43.02.65-.44-.5-1.01-.86-1.67-1.04Zm14.49,7.15c-.36.33-1.16.5-2.42.5s-2.3-.08-3.13-.25c-.83-.17-1.62-.5-2.36-.99-1.44-.96-2.16-2.97-2.16-6.03v-4.61h-1.48c-.14,0-.27-.11-.39-.31.27-.86.41-1.84.41-3,0-.7-.06-1.29-.16-1.81.2-.26.42-.41.68-.41h.95v-3.57c0-.61.6-1.1,1.79-1.48,1.19-.37,2.36-.56,3.5-.56,1.79,0,2.69.44,2.69,1.33v4.28h2.19c.51,0,.77.74.77,2.22,0,.97-.11,1.76-.34,2.38-.23.62-.52.93-.87.93h-1.74v5.41c0,.53.23.91.68,1.14.45.23.85.34,1.2.34s.56.17.63.5c.08.34.12.84.12,1.51,0,1.32-.18,2.15-.53,2.48Zm.67-8.77c.07-.02.15-.05.23-.09v1.78c-.08-.03-.15-.06-.23-.08v-1.62Zm11,8.32c0,.22-.57.39-1.7.52-1.13.13-2.29.19-3.49.19s-1.96-.05-2.3-.16-.52-.29-.52-.55v-14.03c0-.43.56-.86,1.67-1.29,1.11-.42,2.33-.63,3.65-.63,1.79,0,2.69.46,2.69,1.39v14.56Zm-3.99-17.02c-2.76,0-4.14-.89-4.14-2.66s1.37-2.66,4.11-2.66c1.3,0,2.32.19,3.06.58s1.11,1.08,1.11,2.08c0,1.77-1.38,2.66-4.14,2.66Zm23.26,17.53c-1.12.13-2.28.19-3.47.19s-1.96-.05-2.3-.16-.52-.29-.52-.55v-9.39c0-.89-.04-1.47-.1-1.74-.07-.28-.13-.52-.19-.74-.14-.37-.38-.56-.74-.56-.55,0-.83.27-.83.8v11.64c0,.22-.56.39-1.67.52-1.11.13-2.27.19-3.46.19s-1.96-.05-2.32-.16c-.36-.11-.53-.29-.53-.55v-14.56c0-.41.57-.83,1.7-1.24,1.13-.41,2.33-.62,3.59-.62s1.97.36,2.13,1.09l.27,1.3h.21c.57-1.14,1.56-1.94,2.95-2.39.57-.18,1.2-.27,1.89-.27,1.99,0,3.33.6,4.03,1.79.56.95.89,2.39,1,4.29-.02.31-.03.63-.03.95,0,.75.03,1.44.07,2.09v7.57c0,.22-.56.39-1.68.52Zm19.8,2.94c-1.52,1.22-3.74,1.83-6.68,1.83-3.11,0-5.23-.31-6.35-.92-.49-.28-.74-.56-.74-.86,0-.47.19-1.27.58-2.39s.74-1.68,1.08-1.68c.08,0,.35.07.83.21,1.5.39,2.71.59,3.65.59s1.57-.12,1.89-.36c.32-.24.49-.61.49-1.12v-1.71h-.24c-.08.1-.22.22-.41.37-.2.15-.68.35-1.46.61s-1.65.38-2.63.38-1.8-.15-2.47-.44c-.67-.3-1.19-.67-1.57-1.11-.37-.44-.67-1.04-.89-1.79-.21-.74-.35-1.66-.43-2.73v-1.43c0-.46-.01-.9-.03-1.33.1-1.9.55-3.42,1.4-4.49.37-.49.93-.91,1.67-1.26.74-.34,1.53-.52,2.38-.52s1.55.09,2.1.28c.55.19.96.41,1.24.66.55.55.87,1.03.94,1.45l.03.27h.24l.27-1.15c.2-.83,1.75-1.24,4.67-1.24,1.3,0,2.09.2,2.36.59.16.24.26.46.3.66.04.21.06.52.06.93v12.29c-.05.34-.07.68-.07,1.01,0,.05,0,.09.01.13-.2,1.81-.93,3.24-2.21,4.27Zm13.3-2.48c-3.27,0-5.66-.31-7.18-.95-.72-.31-1.09-.62-1.13-.91.02-.26.04-.52.04-.79.1-.63.31-1.33.65-2.11.47-1.08.89-1.62,1.24-1.62.2,0,.86.22,1.99.65,1.13.43,2.09.65,2.87.65s1.29-.05,1.54-.15c.25-.1.37-.29.37-.58s-.2-.51-.59-.68c-.39-.17-.89-.28-1.48-.34-.59-.06-1.23-.18-1.91-.36-.68-.18-1.31-.4-1.9-.68s-1.08-.73-1.48-1.37c-.39-.64-.59-1.33-.59-2.07s.02-1.29.06-1.65c.04-.36.2-.88.49-1.54.29-.66.69-1.2,1.21-1.61.52-.41,1.33-.79,2.42-1.12,1.09-.33,2.32-.5,3.68-.5s2.5.04,3.41.13c.92.09,1.63.2,2.16.34.52.14.95.3,1.29.47.57.29.86.62.86.97,0,.77-.28,1.65-.83,2.66-.55,1-.99,1.51-1.31,1.51s-1.03-.17-2.11-.52-1.88-.52-2.39-.52c-.83,0-1.24.24-1.24.71,0,.3.28.52.84.66.56.15,1.24.3,2.02.46s1.58.38,2.38.66c.8.29,1.48.8,2.04,1.55.56.75.84,1.69.84,2.84,0,3.86-2.75,5.79-8.24,5.79Z" fill="#f1d3de"/></g><path d="m11.1,26.08c-3.27,0-5.66-.31-7.18-.95-.77-.33-1.15-.66-1.15-.97,0-.81.24-1.75.71-2.84.47-1.08.89-1.62,1.24-1.62.2,0,.86.22,1.99.65,1.13.43,2.09.65,2.87.65s1.29-.05,1.54-.15c.25-.1.37-.29.37-.58s-.2-.51-.59-.68c-.39-.17-.89-.28-1.48-.34-.59-.06-1.23-.18-1.91-.36-.68-.18-1.31-.4-1.91-.68s-1.08-.73-1.48-1.37-.59-1.33-.59-2.07.02-1.29.06-1.65c.04-.36.2-.88.49-1.54.29-.66.69-1.2,1.21-1.61.52-.41,1.33-.79,2.42-1.12,1.09-.33,2.32-.5,3.68-.5s2.5.04,3.41.13c.92.09,1.63.2,2.16.34.52.14.95.3,1.29.47.57.29.86.62.86.97,0,.77-.28,1.65-.83,2.66-.55,1-.99,1.51-1.31,1.51s-1.03-.17-2.11-.52c-1.08-.34-1.88-.52-2.39-.52-.83,0-1.24.24-1.24.71,0,.3.28.52.84.66.56.15,1.24.3,2.02.46.79.16,1.58.38,2.38.66.8.29,1.48.8,2.04,1.55.56.75.84,1.69.84,2.84,0,3.86-2.75,5.79-8.24,5.79Z" fill="#fff"/><path d="m29.81,19.13c0,1.28.61,1.92,1.83,1.92.71,0,1.63-.24,2.78-.72,1.14-.48,1.74-.72,1.8-.72.37,0,.87.56,1.48,1.68.61,1.12.92,1.95.92,2.48,0,.77-.79,1.35-2.36,1.74-1.58.39-3.12.59-4.62.59s-2.77-.12-3.78-.36c-1.01-.24-1.84-.54-2.48-.9-.64-.36-1.2-.81-1.68-1.34-.48-.53-.84-1.04-1.08-1.52s-.42-1.02-.56-1.61c-.2-.87-.3-1.76-.3-2.69,0-3.58.94-6.06,2.81-7.42.93-.69,1.96-1.17,3.1-1.45,2.03-.49,3.41-.41,4.05-.41,4.98,0,7.47,1.73,7.47,5.2,0,3.68-2.8,5.52-8.39,5.52h-.97Zm-.06-4.31v1.95c.57,0,1.04-.23,1.4-.68.36-.45.55-1,.55-1.65,0-1.18-.31-1.77-.92-1.77-.69,0-1.03.72-1.03,2.16Z" fill="#fff"/><path d="m53.48,25.55c-.35.33-1.16.5-2.42.5s-2.3-.08-3.13-.25c-.83-.17-1.62-.5-2.36-.99-1.44-.96-2.16-2.97-2.16-6.03v-4.61h-1.48c-.22,0-.4-.23-.56-.68-.16-.45-.24-1.07-.24-1.86s.12-1.48.37-2.08c.25-.6.57-.9.96-.9h.95v-3.57c0-.61.6-1.1,1.79-1.48,1.19-.37,2.36-.56,3.5-.56,1.79,0,2.69.44,2.69,1.33v4.28h2.19c.51,0,.77.74.77,2.22,0,.97-.11,1.76-.34,2.38s-.52.93-.87.93h-1.74v5.41c0,.53.23.91.68,1.14.45.23.85.34,1.2.34s.56.17.64.5c.08.34.12.84.12,1.51,0,1.32-.18,2.15-.53,2.48Z" fill="#fff"/><path d="m68.64,25.55c-.36.33-1.16.5-2.42.5s-2.3-.08-3.13-.25c-.83-.17-1.62-.5-2.36-.99-1.44-.96-2.16-2.97-2.16-6.03v-4.61h-1.48c-.22,0-.4-.23-.56-.68-.16-.45-.24-1.07-.24-1.86s.12-1.48.37-2.08c.25-.6.57-.9.96-.9h.95v-3.57c0-.61.6-1.1,1.79-1.48,1.19-.37,2.36-.56,3.5-.56,1.79,0,2.69.44,2.69,1.33v4.28h2.19c.51,0,.77.74.77,2.22,0,.97-.11,1.76-.34,2.38-.23.62-.52.93-.87.93h-1.74v5.41c0,.53.23.91.68,1.14.45.23.85.34,1.2.34s.56.17.63.5c.08.34.12.84.12,1.51,0,1.32-.18,2.15-.53,2.48Z" fill="#fff"/><path d="m76.3,2.77c1.3,0,2.32.19,3.06.58s1.11,1.08,1.11,2.08c0,1.77-1.38,2.66-4.14,2.66s-4.14-.89-4.14-2.66,1.37-2.66,4.11-2.66Zm4.02,7.77v14.56c0,.22-.57.39-1.7.52-1.13.13-2.29.19-3.49.19s-1.96-.05-2.3-.16-.52-.29-.52-.55v-14.03c0-.43.56-.86,1.67-1.29,1.11-.42,2.33-.63,3.65-.63,1.79,0,2.69.46,2.69,1.39Z" fill="#fff"/><path d="m101.27,16v9.1c0,.22-.56.39-1.68.52s-2.28.19-3.47.19-1.96-.05-2.3-.16-.52-.29-.52-.55v-9.39c0-.89-.04-1.47-.1-1.74-.07-.28-.13-.52-.19-.74-.14-.37-.38-.56-.74-.56-.55,0-.83.27-.83.8v11.64c0,.22-.56.39-1.67.52-1.11.13-2.27.19-3.46.19s-1.96-.05-2.32-.16c-.36-.11-.53-.29-.53-.55v-14.56c0-.41.57-.83,1.7-1.24,1.13-.41,2.33-.62,3.59-.62s1.97.36,2.13,1.09l.27,1.3h.21c.57-1.14,1.56-1.94,2.95-2.39.57-.18,1.2-.27,1.89-.27,1.99,0,3.33.6,4.03,1.79.7,1.19,1.05,3.13,1.05,5.8Z" fill="#fff"/><path d="m114.12,23.86v-1.71h-.24c-.08.1-.22.22-.41.37-.2.15-.68.35-1.46.61s-1.65.38-2.63.38-1.8-.15-2.47-.44c-.67-.3-1.19-.67-1.57-1.11-.37-.44-.67-1.04-.89-1.79-.33-1.16-.5-2.74-.5-4.73,0-2.28.48-4.04,1.45-5.26.37-.49.93-.91,1.67-1.26.74-.34,1.53-.52,2.38-.52s1.55.09,2.1.28c.55.19.96.41,1.24.66.55.55.87,1.03.94,1.45l.03.27h.24l.27-1.15c.2-.83,1.75-1.24,4.67-1.24,1.3,0,2.09.2,2.36.59.16.24.26.46.3.66.04.21.06.52.06.93v12.38c0,2.32-.76,4.1-2.27,5.32-1.52,1.22-3.74,1.83-6.68,1.83-3.11,0-5.23-.31-6.35-.92-.49-.28-.74-.56-.74-.86,0-.47.19-1.27.58-2.39s.74-1.68,1.08-1.68c.08,0,.35.07.83.21,1.5.39,2.71.59,3.65.59s1.57-.12,1.89-.36c.32-.24.49-.61.49-1.12Zm-1.18-3.72c.22,0,.39-.08.53-.24.14-.16.21-.33.21-.53v-6.09c-.08-.41-.3-.62-.65-.62-.75,0-1.12,1.23-1.12,3.69,0,1.14.09,2.06.28,2.75.19.69.44,1.03.75,1.03Z" fill="#fff"/><path d="m132.68,26.08c-3.27,0-5.66-.31-7.18-.95-.77-.33-1.15-.66-1.15-.97,0-.81.24-1.75.71-2.84.47-1.08.89-1.62,1.24-1.62.2,0,.86.22,1.99.65,1.13.43,2.09.65,2.87.65s1.29-.05,1.54-.15c.25-.1.37-.29.37-.58s-.2-.51-.59-.68c-.39-.17-.89-.28-1.48-.34-.59-.06-1.23-.18-1.91-.36-.68-.18-1.31-.4-1.9-.68s-1.08-.73-1.48-1.37c-.39-.64-.59-1.33-.59-2.07s.02-1.29.06-1.65c.04-.36.2-.88.49-1.54.29-.66.69-1.2,1.21-1.61.52-.41,1.33-.79,2.42-1.12,1.09-.33,2.32-.5,3.68-.5s2.5.04,3.41.13c.92.09,1.63.2,2.16.34.52.14.95.3,1.29.47.57.29.86.62.86.97,0,.77-.28,1.65-.83,2.66-.55,1-.99,1.51-1.31,1.51s-1.03-.17-2.11-.52-1.88-.52-2.39-.52c-.83,0-1.24.24-1.24.71,0,.3.28.52.84.66.56.15,1.24.3,2.02.46s1.58.38,2.38.66c.8.29,1.48.8,2.04,1.55.56.75.84,1.69.84,2.84,0,3.86-2.75,5.79-8.24,5.79Z" fill="#fff"/></g></g></g></svg>