<?xml version="1.0" encoding="utf-8"?>
<!-- Generator: Adobe Illustrator 27.1.1, SVG Export Plug-In . SVG Version: 6.00 Build 0)  -->
<svg version="1.1" id="Calque_1" xmlns="http://www.w3.org/2000/svg" xmlns:xlink="http://www.w3.org/1999/xlink" x="0px" y="0px"
	 viewBox="0 0 128 128" style="enable-background:new 0 0 128 128;" xml:space="preserve">
<style type="text/css">
	.st0{fill:#9D9BBE;}
</style>
<path class="st0" d="M23.4,18.6C29.6,13,37,8.7,45,6.1c4.6,5.8,11.6,9.2,19,9.2c7.4,0,14.4-3.4,19-9.2c8,2.6,15.3,6.9,21.6,12.5
	c-2.7,6.9-2.1,14.6,1.6,21.1c3.7,6.4,10.1,10.8,17.4,11.9c1.7,8.2,1.7,16.7,0,24.9c-7.1,1.1-13.6,5.2-17.4,11.9
	c-3.7,6.4-4.3,14.2-1.6,21.1C98.4,115,91,119.3,83,121.9c-4.6-5.8-11.6-9.2-19-9.1c-7.4,0-14.4,3.4-19,9.2
	c-8-2.6-15.3-6.9-21.6-12.5c2.7-6.9,2.1-14.6-1.6-21.1C18.1,82,11.7,77.6,4.3,76.5c-1.7-8.2-1.7-16.7,0-24.9
	c7.3-1.1,13.8-5.5,17.4-11.9C25.5,33.2,26.1,25.5,23.4,18.6L23.4,18.6z M73.1,79.8c8.8-5,11.8-16.2,6.9-24.9S63.8,43.1,55.1,48
	c-0.1,0-0.1,0.1-0.2,0.1c-8.7,5.1-11.6,16.3-6.5,25C53.4,81.8,64.4,84.8,73.1,79.8z"/>
</svg>
