<?xml version="1.0" encoding="UTF-8"?><svg id="Calque_2" xmlns="http://www.w3.org/2000/svg" viewBox="0 0 45.31 47.27"><g id="Calque_1-2"><g id="Settings"><circle cx="22.64" cy="24.64" r="22.64" fill="#d2b2b2"/><circle cx="22.68" cy="22.64" r="22.64" fill="#f1d3de"/><path id="Settings-2" d="m12.84,11.61c1.5-1.36,3.3-2.4,5.24-3.03,1.12,1.41,2.81,2.23,4.61,2.23s3.49-.82,4.61-2.23c1.94.63,3.71,1.67,5.24,3.03-.65,1.67-.51,3.54.39,5.12.9,1.55,2.45,2.62,4.22,2.89.41,1.99.41,4.05,0,6.04-1.72.27-3.3,1.26-4.22,2.89-.9,1.55-1.04,3.44-.39,5.12-1.5,1.33-3.3,2.38-5.24,3.01-1.12-1.41-2.81-2.23-4.61-2.21-1.79,0-3.49.82-4.61,2.23-1.94-.63-3.71-1.67-5.24-3.03.65-1.67.51-3.54-.39-5.12-.9-1.55-2.45-2.62-4.24-2.89-.41-1.99-.41-4.05,0-6.04,1.77-.27,3.35-1.33,4.22-2.89.92-1.58,1.07-3.44.41-5.12h0Zm12.06,14.85c2.13-1.21,2.86-3.93,1.67-6.04s-3.93-2.86-6.04-1.67c-.02,0-.02.02-.05.02-2.11,1.24-2.81,3.95-1.58,6.06,1.21,2.11,3.88,2.84,5.99,1.63Z" fill="#fff"/></g></g></svg>