<?xml version="1.0" encoding="utf-8"?>
<!-- Generator: Adobe Illustrator 27.1.1, SVG Export Plug-In . SVG Version: 6.00 Build 0)  -->
<svg version="1.1" id="Calque_1" xmlns="http://www.w3.org/2000/svg" xmlns:xlink="http://www.w3.org/1999/xlink" x="0px" y="0px"
	 viewBox="0 0 128.1 128.1" enable-background="new 0 0 128.1 128.1" xml:space="preserve">
<linearGradient id="SVGID_1_" gradientUnits="userSpaceOnUse" x1="64.138" y1="0" x2="64.138" y2="128">
	<stop  offset="0" style="stop-color:#F2D7DB"/>
	<stop  offset="1" style="stop-color:#FDF0C7"/>
</linearGradient>
<circle fill="url(#SVGID_1_)" cx="64.1" cy="64" r="64"/>
<path fill="#905855" fill-opacity="0.6" d="M64,128.1c-35.3,0-64-28.7-64-64s28.7-64,64-64s64,28.7,64,64S99.3,128.1,64,128.1z
	 M64,5.4C31.7,5.4,5.3,31.8,5.3,64.1s26.3,58.7,58.7,58.7s58.7-26.3,58.7-58.7S96.3,5.4,64,5.4z"/>
<path fill="#905855" fill-opacity="0.6" d="M64,112.1c-23.5,0-42.7-19.1-42.7-42.7c0-1.5,1.2-2.7,2.7-2.7s2.7,1.2,2.7,2.7
	c0,20.6,16.7,37.3,37.3,37.3s37.3-16.7,37.3-37.3c0-1.5,1.2-2.7,2.7-2.7s2.7,1.2,2.7,2.7C106.7,93,87.5,112.1,64,112.1z M50.7,56.1
	c-1.5,0-2.7-1.2-2.7-2.7c0-4.4-3.6-8-8-8s-8,3.6-8,8c0,1.5-1.2,2.7-2.7,2.7s-2.7-1.2-2.7-2.7c0.1-7.3,6-13.3,13.4-13.3
	s13.3,6,13.3,13.3C53.3,54.9,52.1,56.1,50.7,56.1z M98.7,56.1c-1.5,0-2.7-1.2-2.7-2.7c0-4.4-3.6-8-8-8s-8,3.6-8,8
	c0,1.5-1.2,2.7-2.7,2.7s-2.7-1.2-2.7-2.7c0.1-7.3,6-13.3,13.4-13.3s13.3,6,13.3,13.3C101.3,54.9,100.1,56.1,98.7,56.1z"/>
</svg>
